{"glyphs":{"0":{"ha":850,"x_min":71,"x_max":779,"o":"m 425 -17 q 263 26 333 -17 q 152 139 193 68 q 91 292 111 210 q 71 463 71 374 q 91 633 71 551 q 152 785 111 715 q 263 898 193 856 q 425 940 333 940 q 586 898 515 940 q 698 785 657 856 q 759 633 739 715 q 779 463 779 551 q 759 292 779 374 q 698 139 739 210 q 586 26 657 68 q 425 -17 515 -17 m 286 144 q 314 115 286 144 q 425 86 342 86 q 564 144 508 86 q 640 282 619 201 q 661 463 661 363 q 640 643 661 563 q 564 781 619 724 q 425 838 508 838 q 286 781 342 838 q 210 643 231 724 q 189 463 189 563 q 210 282 189 363 q 286 144 231 201 z "},"1":{"ha":471,"x_min":29,"x_max":363,"o":"m 363 0 l 247 0 l 247 775 l 99 617 l 29 688 l 261 926 l 363 926 l 363 0 z "},"2":{"ha":817,"x_min":74,"x_max":711,"o":"m 711 0 l 75 0 l 75 93 q 475 436 360 315 q 590 668 590 557 q 533 794 590 751 q 396 838 475 838 q 144 721 236 838 l 74 794 q 212 902 126 864 q 396 940 297 940 q 615 869 522 940 q 707 668 707 799 q 596 410 707 539 q 257 103 485 282 l 711 103 l 711 0 z "},"3":{"ha":774,"x_min":40,"x_max":699,"o":"m 369 -17 q 172 26 258 -17 q 40 136 86 69 l 108 208 q 218 119 150 153 q 367 86 286 86 q 525 133 467 86 q 583 260 583 181 q 522 383 583 343 q 353 424 460 424 q 257 422 271 424 l 257 528 q 353 526 272 526 q 508 565 447 526 q 568 679 568 603 q 509 795 568 753 q 361 838 450 838 q 117 725 221 838 l 53 797 q 371 940 169 940 q 596 874 508 940 q 683 694 683 808 q 622 547 683 603 q 485 479 561 492 q 630 411 561 471 q 699 250 699 351 q 609 58 699 132 q 369 -17 519 -17 z "},"4":{"ha":775,"x_min":44,"x_max":731,"o":"m 600 0 l 485 0 l 485 235 l 44 235 l 44 331 l 442 926 l 600 926 l 600 336 l 731 336 l 731 235 l 600 235 l 600 0 m 485 336 l 485 819 l 160 336 l 485 336 z "},"5":{"ha":819,"x_min":92,"x_max":749,"o":"m 418 -17 q 92 132 204 -17 l 163 210 q 418 86 258 86 q 572 143 513 86 q 632 285 632 200 q 573 430 632 375 q 419 485 514 485 q 206 399 296 485 l 121 428 l 121 926 l 688 926 l 688 824 l 236 824 l 236 501 q 453 585 322 585 q 663 506 576 585 q 749 289 749 426 q 655 67 749 151 q 418 -17 561 -17 z "},"6":{"ha":821,"x_min":71,"x_max":753,"o":"m 429 -17 q 264 22 335 -17 q 152 129 193 61 q 91 281 111 197 q 71 463 71 364 q 167 803 71 665 q 449 940 264 940 q 704 829 610 940 l 646 743 q 449 838 565 838 q 255 731 322 838 q 188 474 188 624 l 188 438 q 295 538 222 493 q 450 582 368 582 q 667 505 582 582 q 753 286 753 428 q 664 72 753 161 q 429 -17 575 -17 m 424 86 q 580 147 524 86 q 636 282 636 208 q 576 431 636 379 q 424 482 517 482 q 293 444 356 482 q 192 344 231 406 q 257 164 200 242 q 424 86 314 86 z "},"7":{"ha":715,"x_min":43,"x_max":675,"o":"m 296 0 l 168 0 l 542 824 l 43 824 l 43 926 l 675 926 l 675 847 l 296 0 z "},"8":{"ha":808,"x_min":72,"x_max":736,"o":"m 641 52 q 593 18 641 52 q 404 -17 546 -17 q 167 51 263 -17 q 72 235 72 119 q 135 386 72 322 q 293 478 199 450 q 146 559 204 503 q 88 700 88 615 q 182 878 88 817 q 404 940 276 940 q 627 878 532 940 q 722 700 722 817 q 663 559 722 615 q 515 478 604 503 q 673 386 610 450 q 736 235 736 322 q 641 52 736 121 m 404 525 q 460 539 432 529 q 525 566 489 549 q 583 615 561 583 q 606 685 606 646 q 548 796 606 754 q 404 838 490 838 q 261 797 318 838 q 204 685 204 756 q 226 615 204 646 q 285 566 249 583 q 349 539 321 549 q 404 525 376 529 m 404 86 q 556 131 493 86 q 619 247 619 175 q 576 345 619 303 q 487 405 532 388 q 404 426 442 422 q 322 405 367 422 q 233 345 276 388 q 189 247 189 303 q 251 131 189 175 q 404 86 314 86 z "},"9":{"ha":821,"x_min":68,"x_max":751,"o":"m 374 -15 q 117 96 215 -15 l 175 182 q 374 88 256 88 q 524 143 463 88 q 610 278 585 199 q 635 451 635 357 q 633 488 635 475 q 526 388 599 432 q 372 343 454 343 q 154 420 240 343 q 68 639 68 497 q 157 853 68 764 q 393 942 246 942 q 557 903 486 942 q 669 796 628 864 q 731 644 711 728 q 751 463 751 561 q 713 227 751 332 q 586 53 674 122 q 374 -15 499 -15 m 399 443 q 530 481 467 443 q 631 582 593 519 q 612 671 626 628 q 571 753 597 714 q 499 815 544 792 q 397 839 454 839 q 242 778 299 839 q 185 643 185 718 q 244 494 185 546 q 399 443 304 443 z "},"ˈ":{"ha":704,"x_min":108,"x_max":596,"o":"m 596 -125 l 108 -125 l 108 1044 l 596 1044 l 596 -125 m 551 -83 l 551 1003 l 151 1003 l 151 -83 l 551 -83 z "},"ˉ":{"ha":704,"x_min":108,"x_max":596,"o":"m 596 -125 l 108 -125 l 108 1044 l 596 1044 l 596 -125 m 551 -83 l 551 1003 l 151 1003 l 151 -83 l 551 -83 z "},"ˊ":{"ha":704,"x_min":108,"x_max":596,"o":"m 596 -125 l 108 -125 l 108 1044 l 596 1044 l 596 -125 m 551 -83 l 551 1003 l 151 1003 l 151 -83 l 551 -83 z "},"ν":{"ha":704,"x_min":108,"x_max":596,"o":"m 596 -125 l 108 -125 l 108 1044 l 596 1044 l 596 -125 m 551 -83 l 551 1003 l 151 1003 l 151 -83 l 551 -83 z "},"ξ":{"ha":704,"x_min":108,"x_max":596,"o":"m 596 -125 l 108 -125 l 108 1044 l 596 1044 l 596 -125 m 551 -83 l 551 1003 l 151 1003 l 151 -83 l 551 -83 z "},"ο":{"ha":704,"x_min":108,"x_max":596,"o":"m 596 -125 l 108 -125 l 108 1044 l 596 1044 l 596 -125 m 551 -83 l 551 1003 l 151 1003 l 151 -83 l 551 -83 z "},"―":{"ha":704,"x_min":108,"x_max":596,"o":"m 596 -125 l 108 -125 l 108 1044 l 596 1044 l 596 -125 m 551 -83 l 551 1003 l 151 1003 l 151 -83 l 551 -83 z "},"‖":{"ha":704,"x_min":108,"x_max":596,"o":"m 596 -125 l 108 -125 l 108 1044 l 596 1044 l 596 -125 m 551 -83 l 551 1003 l 151 1003 l 151 -83 l 551 -83 z "},"‗":{"ha":704,"x_min":108,"x_max":596,"o":"m 596 -125 l 108 -125 l 108 1044 l 596 1044 l 596 -125 m 551 -83 l 551 1003 l 151 1003 l 151 -83 l 551 -83 z "},"‛":{"ha":704,"x_min":108,"x_max":596,"o":"m 596 -125 l 108 -125 l 108 1044 l 596 1044 l 596 -125 m 551 -83 l 551 1003 l 151 1003 l 151 -83 l 551 -83 z "},"‟":{"ha":704,"x_min":108,"x_max":596,"o":"m 596 -125 l 108 -125 l 108 1044 l 596 1044 l 596 -125 m 551 -83 l 551 1003 l 151 1003 l 151 -83 l 551 -83 z "},"‣":{"ha":704,"x_min":108,"x_max":596,"o":"m 596 -125 l 108 -125 l 108 1044 l 596 1044 l 596 -125 m 551 -83 l 551 1003 l 151 1003 l 151 -83 l 551 -83 z "},"․":{"ha":704,"x_min":108,"x_max":596,"o":"m 596 -125 l 108 -125 l 108 1044 l 596 1044 l 596 -125 m 551 -83 l 551 1003 l 151 1003 l 151 -83 l 551 -83 z "},"‥":{"ha":704,"x_min":108,"x_max":596,"o":"m 596 -125 l 108 -125 l 108 1044 l 596 1044 l 596 -125 m 551 -83 l 551 1003 l 151 1003 l 151 -83 l 551 -83 z "},"※":{"ha":704,"x_min":108,"x_max":596,"o":"m 596 -125 l 108 -125 l 108 1044 l 596 1044 l 596 -125 m 551 -83 l 551 1003 l 151 1003 l 151 -83 l 551 -83 z "},"‼":{"ha":704,"x_min":108,"x_max":596,"o":"m 596 -125 l 108 -125 l 108 1044 l 596 1044 l 596 -125 m 551 -83 l 551 1003 l 151 1003 l 151 -83 l 551 -83 z "},"‽":{"ha":704,"x_min":108,"x_max":596,"o":"m 596 -125 l 108 -125 l 108 1044 l 596 1044 l 596 -125 m 551 -83 l 551 1003 l 151 1003 l 151 -83 l 551 -83 z "},"₢":{"ha":704,"x_min":108,"x_max":596,"o":"m 596 -125 l 108 -125 l 108 1044 l 596 1044 l 596 -125 m 551 -83 l 551 1003 l 151 1003 l 151 -83 l 551 -83 z "},"℔":{"ha":704,"x_min":108,"x_max":596,"o":"m 596 -125 l 108 -125 l 108 1044 l 596 1044 l 596 -125 m 551 -83 l 551 1003 l 151 1003 l 151 -83 l 551 -83 z "},"ℕ":{"ha":704,"x_min":108,"x_max":596,"o":"m 596 -125 l 108 -125 l 108 1044 l 596 1044 l 596 -125 m 551 -83 l 551 1003 l 151 1003 l 151 -83 l 551 -83 z "},"℡":{"ha":704,"x_min":108,"x_max":596,"o":"m 596 -125 l 108 -125 l 108 1044 l 596 1044 l 596 -125 m 551 -83 l 551 1003 l 151 1003 l 151 -83 l 551 -83 z "},"℣":{"ha":704,"x_min":108,"x_max":596,"o":"m 596 -125 l 108 -125 l 108 1044 l 596 1044 l 596 -125 m 551 -83 l 551 1003 l 151 1003 l 151 -83 l 551 -83 z "},"ℤ":{"ha":704,"x_min":108,"x_max":596,"o":"m 596 -125 l 108 -125 l 108 1044 l 596 1044 l 596 -125 m 551 -83 l 551 1003 l 151 1003 l 151 -83 l 551 -83 z "},"℥":{"ha":704,"x_min":108,"x_max":596,"o":"m 596 -125 l 108 -125 l 108 1044 l 596 1044 l 596 -125 m 551 -83 l 551 1003 l 151 1003 l 151 -83 l 551 -83 z "},"∃":{"ha":704,"x_min":108,"x_max":596,"o":"m 596 -125 l 108 -125 l 108 1044 l 596 1044 l 596 -125 m 551 -83 l 551 1003 l 151 1003 l 151 -83 l 551 -83 z "},"∄":{"ha":704,"x_min":108,"x_max":596,"o":"m 596 -125 l 108 -125 l 108 1044 l 596 1044 l 596 -125 m 551 -83 l 551 1003 l 151 1003 l 151 -83 l 551 -83 z "},"∅":{"ha":704,"x_min":108,"x_max":596,"o":"m 596 -125 l 108 -125 l 108 1044 l 596 1044 l 596 -125 m 551 -83 l 551 1003 l 151 1003 l 151 -83 l 551 -83 z "},"∐":{"ha":704,"x_min":108,"x_max":596,"o":"m 596 -125 l 108 -125 l 108 1044 l 596 1044 l 596 -125 m 551 -83 l 551 1003 l 151 1003 l 151 -83 l 551 -83 z "},"∓":{"ha":704,"x_min":108,"x_max":596,"o":"m 596 -125 l 108 -125 l 108 1044 l 596 1044 l 596 -125 m 551 -83 l 551 1003 l 151 1003 l 151 -83 l 551 -83 z "},"∔":{"ha":704,"x_min":108,"x_max":596,"o":"m 596 -125 l 108 -125 l 108 1044 l 596 1044 l 596 -125 m 551 -83 l 551 1003 l 151 1003 l 151 -83 l 551 -83 z "},"∖":{"ha":704,"x_min":108,"x_max":596,"o":"m 596 -125 l 108 -125 l 108 1044 l 596 1044 l 596 -125 m 551 -83 l 551 1003 l 151 1003 l 151 -83 l 551 -83 z "},"∗":{"ha":704,"x_min":108,"x_max":596,"o":"m 596 -125 l 108 -125 l 108 1044 l 596 1044 l 596 -125 m 551 -83 l 551 1003 l 151 1003 l 151 -83 l 551 -83 z "},"∘":{"ha":704,"x_min":108,"x_max":596,"o":"m 596 -125 l 108 -125 l 108 1044 l 596 1044 l 596 -125 m 551 -83 l 551 1003 l 151 1003 l 151 -83 l 551 -83 z "},"∛":{"ha":704,"x_min":108,"x_max":596,"o":"m 596 -125 l 108 -125 l 108 1044 l 596 1044 l 596 -125 m 551 -83 l 551 1003 l 151 1003 l 151 -83 l 551 -83 z "},"∜":{"ha":704,"x_min":108,"x_max":596,"o":"m 596 -125 l 108 -125 l 108 1044 l 596 1044 l 596 -125 m 551 -83 l 551 1003 l 151 1003 l 151 -83 l 551 -83 z "},"∝":{"ha":704,"x_min":108,"x_max":596,"o":"m 596 -125 l 108 -125 l 108 1044 l 596 1044 l 596 -125 m 551 -83 l 551 1003 l 151 1003 l 151 -83 l 551 -83 z "},"≡":{"ha":704,"x_min":108,"x_max":596,"o":"m 596 -125 l 108 -125 l 108 1044 l 596 1044 l 596 -125 m 551 -83 l 551 1003 l 151 1003 l 151 -83 l 551 -83 z "},"≢":{"ha":704,"x_min":108,"x_max":596,"o":"m 596 -125 l 108 -125 l 108 1044 l 596 1044 l 596 -125 m 551 -83 l 551 1003 l 151 1003 l 151 -83 l 551 -83 z "},"≣":{"ha":704,"x_min":108,"x_max":596,"o":"m 596 -125 l 108 -125 l 108 1044 l 596 1044 l 596 -125 m 551 -83 l 551 1003 l 151 1003 l 151 -83 l 551 -83 z "},"":{"ha":704,"x_min":108,"x_max":596,"o":"m 596 -125 l 108 -125 l 108 1044 l 596 1044 l 596 -125 m 551 -83 l 551 1003 l 151 1003 l 151 -83 l 551 -83 z "},"":{"ha":704,"x_min":108,"x_max":596,"o":"m 596 -125 l 108 -125 l 108 1044 l 596 1044 l 596 -125 m 551 -83 l 551 1003 l 151 1003 l 151 -83 l 551 -83 z "},"":{"ha":704,"x_min":108,"x_max":596,"o":"m 596 -125 l 108 -125 l 108 1044 l 596 1044 l 596 -125 m 551 -83 l 551 1003 l 151 1003 l 151 -83 l 551 -83 z "},"":{"ha":704,"x_min":108,"x_max":596,"o":"m 596 -125 l 108 -125 l 108 1044 l 596 1044 l 596 -125 m 551 -83 l 551 1003 l 151 1003 l 151 -83 l 551 -83 z "},"":{"ha":704,"x_min":108,"x_max":596,"o":"m 596 -125 l 108 -125 l 108 1044 l 596 1044 l 596 -125 m 551 -83 l 551 1003 l 151 1003 l 151 -83 l 551 -83 z "},"":{"ha":704,"x_min":108,"x_max":596,"o":"m 596 -125 l 108 -125 l 108 1044 l 596 1044 l 596 -125 m 551 -83 l 551 1003 l 151 1003 l 151 -83 l 551 -83 z "},"":{"ha":704,"x_min":108,"x_max":596,"o":"m 596 -125 l 108 -125 l 108 1044 l 596 1044 l 596 -125 m 551 -83 l 551 1003 l 151 1003 l 151 -83 l 551 -83 z "},"":{"ha":704,"x_min":108,"x_max":596,"o":"m 596 -125 l 108 -125 l 108 1044 l 596 1044 l 596 -125 m 551 -83 l 551 1003 l 151 1003 l 151 -83 l 551 -83 z "},"":{"ha":704,"x_min":108,"x_max":596,"o":"m 596 -125 l 108 -125 l 108 1044 l 596 1044 l 596 -125 m 551 -83 l 551 1003 l 151 1003 l 151 -83 l 551 -83 z "},"":{"ha":704,"x_min":108,"x_max":596,"o":"m 596 -125 l 108 -125 l 108 1044 l 596 1044 l 596 -125 m 551 -83 l 551 1003 l 151 1003 l 151 -83 l 551 -83 z "},"":{"ha":704,"x_min":108,"x_max":596,"o":"m 596 -125 l 108 -125 l 108 1044 l 596 1044 l 596 -125 m 551 -83 l 551 1003 l 151 1003 l 151 -83 l 551 -83 z "},"":{"ha":704,"x_min":108,"x_max":596,"o":"m 596 -125 l 108 -125 l 108 1044 l 596 1044 l 596 -125 m 551 -83 l 551 1003 l 151 1003 l 151 -83 l 551 -83 z "},"":{"ha":704,"x_min":108,"x_max":596,"o":"m 596 -125 l 108 -125 l 108 1044 l 596 1044 l 596 -125 m 551 -83 l 551 1003 l 151 1003 l 151 -83 l 551 -83 z "},"":{"ha":704,"x_min":108,"x_max":596,"o":"m 596 -125 l 108 -125 l 108 1044 l 596 1044 l 596 -125 m 551 -83 l 551 1003 l 151 1003 l 151 -83 l 551 -83 z "},"":{"ha":704,"x_min":108,"x_max":596,"o":"m 596 -125 l 108 -125 l 108 1044 l 596 1044 l 596 -125 m 551 -83 l 551 1003 l 151 1003 l 151 -83 l 551 -83 z "},"":{"ha":704,"x_min":108,"x_max":596,"o":"m 596 -125 l 108 -125 l 108 1044 l 596 1044 l 596 -125 m 551 -83 l 551 1003 l 151 1003 l 151 -83 l 551 -83 z "},"":{"ha":704,"x_min":108,"x_max":596,"o":"m 596 -125 l 108 -125 l 108 1044 l 596 1044 l 596 -125 m 551 -83 l 551 1003 l 151 1003 l 151 -83 l 551 -83 z "},"":{"ha":704,"x_min":108,"x_max":596,"o":"m 596 -125 l 108 -125 l 108 1044 l 596 1044 l 596 -125 m 551 -83 l 551 1003 l 151 1003 l 151 -83 l 551 -83 z "},"":{"ha":704,"x_min":108,"x_max":596,"o":"m 596 -125 l 108 -125 l 108 1044 l 596 1044 l 596 -125 m 551 -83 l 551 1003 l 151 1003 l 151 -83 l 551 -83 z "},"":{"ha":704,"x_min":108,"x_max":596,"o":"m 596 -125 l 108 -125 l 108 1044 l 596 1044 l 596 -125 m 551 -83 l 551 1003 l 151 1003 l 151 -83 l 551 -83 z "}," ":{"ha":360,"x_min":0,"x_max":0,"o":""},"!":{"ha":319,"x_min":83,"x_max":236,"o":"m 203 260 l 117 260 l 94 926 l 225 926 l 203 260 m 213 9 q 202 -2 213 9 q 160 -14 190 -14 q 106 9 129 -14 q 83 63 83 32 q 106 117 83 94 q 160 139 128 139 q 214 117 192 139 q 236 63 236 94 q 213 9 236 32 z "},"\"":{"ha":478,"x_min":75,"x_max":403,"o":"m 164 572 l 113 572 q 75 876 75 857 q 93 922 75 903 q 138 940 111 940 q 183 922 164 940 q 201 876 201 903 l 164 572 m 365 572 l 314 572 q 276 876 276 857 q 295 922 276 903 q 340 940 314 940 q 385 922 367 940 q 403 876 403 903 l 365 572 z "},"#":{"ha":821,"x_min":31,"x_max":790,"o":"m 417 0 l 332 0 l 417 251 l 263 251 l 179 0 l 93 0 l 178 251 l 31 251 l 54 325 l 203 325 l 294 601 l 144 601 l 167 674 l 319 674 l 403 926 l 489 926 l 406 674 l 558 674 l 642 926 l 726 926 l 642 674 l 790 674 l 769 601 l 618 601 l 525 325 l 679 325 l 657 251 l 500 251 l 417 0 m 440 325 l 533 601 l 381 601 l 288 325 l 440 325 z "},"$":{"ha":824,"x_min":60,"x_max":757,"o":"m 376 -139 l 376 -15 q 60 131 178 -3 l 129 219 q 376 89 225 106 l 376 426 q 269 460 310 444 q 182 504 229 475 q 112 578 135 533 q 89 683 89 622 q 169 860 89 789 q 376 940 250 931 l 376 1067 l 461 1067 l 461 939 q 736 811 626 925 l 667 726 q 461 833 586 815 l 461 531 q 548 503 514 515 q 626 469 582 492 q 695 419 669 446 q 739 351 721 393 q 757 256 757 308 q 684 73 757 150 q 461 -15 611 -4 l 461 -139 l 376 -139 m 638 247 q 592 344 638 310 q 461 404 546 379 l 461 88 q 595 143 553 97 q 638 247 638 189 m 208 690 q 251 607 208 638 q 376 553 294 576 l 376 836 q 255 790 301 831 q 208 690 208 750 z "},"%":{"ha":1017,"x_min":43,"x_max":972,"o":"m 428 548 q 397 516 428 548 q 267 483 365 483 q 106 548 168 483 q 43 710 43 613 q 106 875 43 810 q 267 940 168 940 q 428 875 365 940 q 490 710 490 810 q 428 548 490 613 m 254 0 l 178 0 l 769 926 l 847 926 l 254 0 m 910 48 q 880 16 910 48 q 750 -17 849 -17 q 589 49 651 -17 q 526 211 526 114 q 589 375 526 310 q 750 440 651 440 q 910 375 847 440 q 972 211 972 310 q 910 48 972 113 m 166 599 q 186 576 166 599 q 267 554 206 554 q 367 599 328 554 q 407 710 407 643 q 368 824 407 779 q 267 869 329 869 q 166 824 206 869 q 126 710 126 779 q 166 599 126 643 m 648 99 q 668 76 648 99 q 750 54 688 54 q 851 99 813 54 q 890 211 890 143 q 851 324 890 279 q 750 369 813 369 q 648 324 688 369 q 608 211 608 279 q 648 99 608 143 z "},"&":{"ha":892,"x_min":51,"x_max":851,"o":"m 851 0 l 707 0 q 606 97 679 24 q 339 -17 492 -17 q 133 51 214 -17 q 51 242 51 118 q 106 403 51 340 q 256 518 160 465 q 185 726 185 639 q 252 879 185 818 q 418 940 319 940 q 568 892 510 940 q 626 758 626 843 q 608 669 626 708 q 550 597 590 629 q 480 546 510 564 q 390 497 450 528 q 499 365 435 438 q 608 242 549 306 q 708 454 669 336 l 797 414 q 671 175 736 267 q 851 0 757 86 m 350 69 q 543 161 454 69 q 415 301 451 257 q 300 449 349 378 q 163 249 163 365 q 217 117 163 165 q 350 69 272 69 m 292 724 q 347 564 292 658 q 484 650 438 608 q 531 754 531 692 q 500 832 531 804 q 421 860 469 860 q 329 822 367 860 q 292 724 292 783 z "},"'":{"ha":276,"x_min":75,"x_max":201,"o":"m 164 572 l 113 572 q 75 876 75 857 q 93 922 75 903 q 138 940 111 940 q 183 922 164 940 q 201 876 201 903 l 164 572 z "},"(":{"ha":344,"x_min":61,"x_max":321,"o":"m 321 -228 l 257 -276 q 61 338 61 -7 q 257 951 61 682 l 321 904 q 211 631 247 760 q 175 338 175 501 q 211 45 175 175 q 321 -228 247 -85 z "},")":{"ha":344,"x_min":24,"x_max":283,"o":"m 24 -228 l 88 -276 q 283 338 283 -7 q 88 951 283 682 l 24 904 q 133 631 97 760 q 169 338 169 501 q 133 45 169 175 q 24 -228 97 -85 z "},"*":{"ha":472,"x_min":47,"x_max":425,"o":"m 268 540 l 204 540 l 213 700 l 78 614 l 47 668 l 189 740 l 47 813 l 78 868 l 213 781 l 204 940 l 268 940 l 260 781 l 393 868 l 425 813 l 283 740 l 425 668 l 393 614 l 260 700 l 268 540 z "},"+":{"ha":693,"x_min":40,"x_max":653,"o":"m 653 432 l 386 432 l 386 136 l 307 136 l 307 432 l 40 432 l 40 504 l 307 504 l 307 792 l 386 792 l 386 504 l 653 504 l 653 432 z "},",":{"ha":319,"x_min":79,"x_max":244,"o":"m 244 33 q 213 -84 244 -28 q 132 -176 182 -140 l 79 -133 q 140 -74 114 -111 q 169 -4 165 -37 q 150 -7 164 -7 q 103 13 122 -7 q 83 64 83 33 q 105 117 83 94 q 157 139 126 139 q 219 110 194 139 q 244 33 244 82 z "},"-":{"ha":417,"x_min":42,"x_max":375,"o":"m 375 290 l 42 290 l 42 382 l 375 382 l 375 290 z "},".":{"ha":321,"x_min":83,"x_max":236,"o":"m 214 8 q 203 -3 214 8 q 160 -14 192 -14 q 106 8 128 -14 q 83 63 83 31 q 106 117 83 94 q 160 139 128 139 q 214 117 192 139 q 236 63 236 94 q 214 8 236 31 z "},"/":{"ha":411,"x_min":0,"x_max":411,"o":"m 82 -28 l 0 -28 l 329 954 l 411 954 l 82 -28 z "},":":{"ha":313,"x_min":83,"x_max":236,"o":"m 213 551 q 202 539 213 551 q 160 528 190 528 q 106 551 129 528 q 83 604 83 574 q 106 658 83 636 q 160 681 128 681 q 214 658 192 681 q 236 604 236 636 q 213 551 236 574 m 214 8 q 203 -3 214 8 q 160 -14 192 -14 q 106 8 128 -14 q 83 63 83 31 q 106 117 83 94 q 160 139 128 139 q 214 117 192 139 q 236 63 236 94 q 214 8 236 31 z "},";":{"ha":319,"x_min":79,"x_max":244,"o":"m 213 551 q 202 539 213 551 q 160 528 190 528 q 106 551 129 528 q 83 604 83 574 q 106 658 83 636 q 160 681 128 681 q 214 658 192 681 q 236 604 236 636 q 213 551 236 574 m 244 36 q 213 -82 244 -26 q 132 -174 182 -137 l 79 -132 q 139 -72 113 -110 q 169 -1 165 -35 q 150 -4 164 -4 q 103 16 122 -4 q 83 67 83 36 q 105 119 83 97 q 157 142 126 142 q 219 113 194 142 q 244 36 244 85 z "},"<":{"ha":693,"x_min":40,"x_max":653,"o":"m 653 125 l 40 428 l 40 501 l 653 806 l 653 718 l 129 464 l 653 213 l 653 125 z "},"=":{"ha":693,"x_min":40,"x_max":653,"o":"m 653 561 l 40 561 l 40 635 l 653 635 l 653 561 m 653 293 l 40 293 l 40 367 l 653 367 l 653 293 z "},">":{"ha":693,"x_min":40,"x_max":653,"o":"m 653 428 l 40 125 l 40 213 l 564 464 l 40 718 l 40 806 l 653 501 l 653 428 z "},"?":{"ha":642,"x_min":25,"x_max":599,"o":"m 282 257 q 229 371 229 301 q 255 458 229 419 q 317 524 281 497 q 391 576 354 551 q 453 635 428 601 q 479 708 479 668 q 437 801 479 764 q 317 838 394 838 q 94 724 179 838 l 25 799 q 326 940 133 940 q 524 878 450 940 q 599 725 599 817 q 571 620 599 667 q 503 544 543 574 q 425 489 464 515 q 358 431 386 463 q 331 361 331 399 q 367 294 331 319 l 282 257 m 365 8 q 353 -3 365 8 q 311 -14 342 -14 q 258 8 281 -14 q 235 63 235 31 q 258 117 235 94 q 311 139 281 139 q 365 117 342 139 q 388 63 388 94 q 365 8 388 31 z "},"@":{"ha":1088,"x_min":49,"x_max":1038,"o":"m 489 -97 q 174 28 300 -97 q 49 339 49 154 q 215 724 49 561 q 600 886 381 886 q 915 759 793 886 q 1038 446 1038 632 q 965 206 1038 293 q 797 118 893 118 q 708 151 742 118 q 671 231 674 183 l 671 240 q 574 152 633 186 q 450 118 514 118 q 296 181 354 118 q 238 344 238 243 q 338 590 238 486 q 564 693 438 693 q 674 663 628 693 q 742 585 721 632 l 760 671 l 854 671 l 775 294 q 772 265 772 278 q 791 213 772 232 q 838 193 810 193 q 940 256 890 193 q 989 446 989 318 q 880 728 989 618 q 596 839 771 839 q 247 688 396 839 q 97 342 97 538 q 210 61 97 174 q 494 -51 322 -51 q 753 26 629 -51 l 778 -10 q 489 -97 642 -97 m 479 196 q 685 321 599 196 l 725 514 q 674 584 711 553 q 582 615 638 615 q 409 535 481 615 q 338 350 338 454 q 375 239 338 282 q 479 196 413 196 z "},"A":{"ha":914,"x_min":13,"x_max":901,"o":"m 901 0 l 769 0 l 688 207 l 226 207 l 144 0 l 13 0 l 386 926 l 529 926 l 901 0 m 654 308 l 457 808 l 261 308 l 654 308 z "},"B":{"ha":874,"x_min":108,"x_max":799,"o":"m 531 0 l 108 0 l 108 926 l 521 926 q 710 861 640 926 q 781 690 781 796 q 733 549 781 607 q 618 478 686 492 q 745 400 692 467 q 799 250 799 333 q 727 69 799 138 q 531 0 656 0 m 501 525 q 619 567 578 525 q 661 674 661 608 q 619 781 661 739 q 501 824 576 824 l 224 824 l 224 525 l 501 525 m 508 103 q 634 146 589 103 q 679 263 679 189 q 634 376 679 329 q 508 422 589 422 l 224 422 l 224 103 l 508 103 z "},"C":{"ha":939,"x_min":71,"x_max":900,"o":"m 547 -17 q 208 117 344 -17 q 71 463 71 251 q 208 808 71 674 q 547 942 344 942 q 899 758 771 942 l 803 704 q 694 802 763 765 q 547 839 625 839 q 292 733 393 839 q 190 463 190 628 q 292 192 190 299 q 547 86 394 86 q 694 124 625 86 q 803 221 763 161 l 900 168 q 547 -17 765 -17 z "},"D":{"ha":972,"x_min":108,"x_max":900,"o":"m 425 0 l 108 0 l 108 926 l 425 926 q 769 794 638 926 q 900 463 900 663 q 769 131 900 261 q 425 0 639 0 m 425 103 q 685 206 589 103 q 781 463 781 308 q 686 721 781 618 q 425 824 592 824 l 224 824 l 224 103 l 425 103 z "},"E":{"ha":790,"x_min":108,"x_max":715,"o":"m 715 0 l 108 0 l 108 926 l 715 926 l 715 824 l 224 824 l 224 525 l 706 525 l 706 422 l 224 422 l 224 103 l 715 103 l 715 0 z "},"F":{"ha":765,"x_min":108,"x_max":715,"o":"m 224 0 l 108 0 l 108 926 l 715 926 l 715 824 l 224 824 l 224 525 l 706 525 l 706 422 l 224 422 l 224 0 z "},"G":{"ha":990,"x_min":71,"x_max":911,"o":"m 547 -18 q 208 116 346 -18 q 71 463 71 250 q 208 808 71 675 q 547 942 344 942 q 907 769 768 942 l 815 711 q 699 804 771 769 q 547 839 628 839 q 292 733 393 839 q 190 463 190 628 q 292 192 190 299 q 547 86 394 86 q 690 116 624 86 q 797 186 757 146 l 797 374 l 478 374 l 478 476 l 911 476 l 911 143 q 547 -18 768 -18 z "},"H":{"ha":989,"x_min":108,"x_max":881,"o":"m 881 0 l 765 0 l 765 425 l 224 425 l 224 0 l 108 0 l 108 926 l 224 926 l 224 528 l 765 528 l 765 926 l 881 926 l 881 0 z "},"I":{"ha":332,"x_min":108,"x_max":224,"o":"m 224 0 l 108 0 l 108 926 l 224 926 l 224 0 z "},"J":{"ha":660,"x_min":15,"x_max":551,"o":"m 257 -17 q 15 90 107 -17 l 76 178 q 250 86 150 86 q 385 140 335 86 q 436 281 436 193 l 436 926 l 551 926 l 551 279 q 469 59 551 135 q 257 -17 388 -17 z "},"K":{"ha":835,"x_min":108,"x_max":813,"o":"m 813 0 l 668 0 l 317 417 l 224 311 l 224 0 l 108 0 l 108 926 l 224 926 l 224 449 l 633 926 l 778 926 l 392 488 l 813 0 z "},"L":{"ha":685,"x_min":93,"x_max":639,"o":"m 639 0 l 93 0 l 93 926 l 208 926 l 208 103 l 639 103 l 639 0 z "},"M":{"ha":1124,"x_min":108,"x_max":1015,"o":"m 1015 0 l 900 0 l 900 779 l 586 0 l 539 0 l 224 779 l 224 0 l 108 0 l 108 926 l 274 926 l 563 213 l 850 926 l 1015 926 l 1015 0 z "},"N":{"ha":983,"x_min":108,"x_max":875,"o":"m 875 0 l 764 0 l 224 739 l 224 0 l 108 0 l 108 926 l 226 926 l 760 203 l 760 926 l 875 926 l 875 0 z "},"O":{"ha":1063,"x_min":71,"x_max":992,"o":"m 863 119 q 798 51 863 119 q 531 -17 733 -17 q 199 119 328 -17 q 71 463 71 256 q 199 806 71 669 q 531 942 328 942 q 863 806 733 942 q 992 463 992 669 q 863 119 992 256 m 531 86 q 778 192 683 86 q 872 463 872 299 q 778 733 872 626 q 531 839 683 839 q 283 733 376 839 q 190 463 190 628 q 283 192 190 299 q 531 86 376 86 z "},"P":{"ha":815,"x_min":108,"x_max":771,"o":"m 224 0 l 108 0 l 108 926 l 481 926 q 693 846 615 926 q 771 647 771 765 q 692 449 771 529 q 481 368 614 368 l 224 368 l 224 0 m 467 471 q 600 520 549 471 q 651 647 651 569 q 600 774 651 725 q 467 824 549 824 l 224 824 l 224 471 l 467 471 z "},"Q":{"ha":1063,"x_min":71,"x_max":992,"o":"m 531 -17 q 199 119 328 -17 q 71 463 71 256 q 199 806 71 669 q 531 942 328 942 q 863 806 733 942 q 992 463 992 669 q 864 119 992 256 l 951 26 l 872 -43 l 782 53 q 531 -17 674 -17 m 531 86 q 707 133 629 86 l 575 276 l 656 344 l 786 203 q 872 463 872 308 q 778 733 872 626 q 531 839 683 839 q 283 733 376 839 q 190 463 190 628 q 283 192 190 299 q 531 86 376 86 z "},"R":{"ha":846,"x_min":108,"x_max":781,"o":"m 781 0 l 644 0 l 410 368 l 224 368 l 224 0 l 108 0 l 108 926 l 481 926 q 691 850 610 926 q 772 647 772 774 q 702 457 772 528 q 531 378 632 386 l 781 0 m 467 469 q 601 519 549 469 q 653 647 653 569 q 601 775 653 726 q 467 824 549 824 l 224 824 l 224 469 l 467 469 z "},"S":{"ha":814,"x_min":53,"x_max":750,"o":"m 408 -17 q 53 131 183 -17 l 122 219 q 413 86 238 86 q 578 135 525 86 q 631 247 631 183 q 590 340 631 303 q 488 393 549 376 q 356 431 428 410 q 224 476 285 453 q 123 553 164 500 q 82 683 82 606 q 172 869 82 797 q 401 942 263 942 q 729 811 606 942 l 660 726 q 392 838 561 838 q 255 797 308 838 q 201 690 201 756 q 242 610 201 642 q 344 563 283 578 q 476 524 404 547 q 608 476 547 501 q 709 393 668 450 q 750 256 750 336 q 666 63 750 143 q 408 -17 582 -17 z "},"T":{"ha":792,"x_min":44,"x_max":747,"o":"m 453 0 l 338 0 l 338 824 l 44 824 l 44 926 l 747 926 l 747 824 l 453 824 l 453 0 z "},"U":{"ha":974,"x_min":108,"x_max":865,"o":"m 486 -17 q 206 84 303 -17 q 108 360 108 185 l 108 926 l 225 926 l 225 363 q 292 160 225 233 q 486 86 360 86 q 681 160 613 86 q 749 363 749 233 l 749 926 l 865 926 l 865 361 q 768 84 865 185 q 486 -17 671 -17 z "},"V":{"ha":914,"x_min":13,"x_max":901,"o":"m 529 0 l 386 0 l 13 926 l 144 926 l 457 126 l 769 926 l 901 926 l 529 0 z "},"W":{"ha":1226,"x_min":19,"x_max":1207,"o":"m 942 0 l 817 0 l 613 747 l 408 0 l 283 0 l 19 926 l 147 926 l 353 154 l 565 926 l 661 926 l 874 154 l 1078 926 l 1207 926 l 942 0 z "},"X":{"ha":906,"x_min":17,"x_max":889,"o":"m 889 0 l 749 0 l 453 394 l 157 0 l 17 0 l 378 475 l 38 926 l 178 926 l 453 557 l 726 926 l 868 926 l 528 476 l 889 0 z "},"Y":{"ha":869,"x_min":13,"x_max":857,"o":"m 493 0 l 378 0 l 378 392 l 13 926 l 147 926 l 435 496 l 722 926 l 857 926 l 493 392 l 493 0 z "},"Z":{"ha":813,"x_min":67,"x_max":746,"o":"m 746 0 l 67 0 l 67 96 l 588 824 l 67 824 l 67 926 l 736 926 l 736 831 l 214 103 l 746 103 l 746 0 z "},"[":{"ha":338,"x_min":56,"x_max":314,"o":"m 314 -264 l 56 -264 l 56 942 l 314 942 l 314 865 l 138 865 l 138 -187 l 314 -187 l 314 -264 z "},"\\":{"ha":411,"x_min":0,"x_max":411,"o":"m 329 -28 l 0 954 l 82 954 l 411 -28 l 329 -28 z "},"]":{"ha":338,"x_min":24,"x_max":283,"o":"m 283 -264 l 24 -264 l 24 -187 l 201 -187 l 201 865 l 24 865 l 24 942 l 283 942 l 283 -264 z "},"^":{"ha":600,"x_min":26,"x_max":574,"o":"m 574 463 l 488 463 l 300 850 l 113 463 l 26 463 l 261 926 l 340 926 l 574 463 z "},"_":{"ha":783,"x_min":-4,"x_max":788,"o":"m 788 -132 l -4 -132 l -4 -56 l 788 -56 l 788 -132 z "},"`":{"ha":314,"x_min":0,"x_max":314,"o":"m 314 772 l 235 772 l 0 972 l 108 972 l 314 772 z "},"ˋ":{"ha":314,"x_min":0,"x_max":314,"o":"m 314 772 l 235 772 l 0 972 l 108 972 l 314 772 z "},"a":{"ha":733,"x_min":68,"x_max":628,"o":"m 628 0 l 524 0 l 524 76 q 301 -17 442 -17 q 139 43 210 -17 q 68 206 68 103 q 138 369 68 313 q 301 426 207 426 q 524 336 443 426 l 524 457 q 476 560 524 522 q 354 597 429 597 q 149 504 233 597 l 100 576 q 368 688 207 688 q 556 632 483 688 q 628 461 628 576 l 628 0 m 340 58 q 524 142 464 58 l 524 269 q 340 351 463 351 q 220 310 267 351 q 174 206 174 269 q 220 99 174 140 q 340 58 267 58 z "},"b":{"ha":799,"x_min":104,"x_max":733,"o":"m 208 182 q 292 107 236 138 q 410 76 349 76 q 567 149 508 76 q 625 335 625 221 q 567 522 625 449 q 410 594 508 594 q 292 563 349 594 q 208 486 236 532 l 208 182 m 208 0 l 104 0 l 104 926 l 208 926 l 208 569 q 435 688 296 688 q 651 591 568 688 q 733 335 733 494 q 651 78 733 174 q 435 -17 568 -17 q 208 100 294 -17 l 208 0 z "},"c":{"ha":689,"x_min":65,"x_max":646,"o":"m 400 -17 q 158 84 251 -17 q 65 336 65 185 q 158 588 65 488 q 400 688 251 688 q 646 571 556 688 l 576 508 q 406 594 514 594 q 238 522 301 594 q 174 336 174 449 q 238 149 174 222 q 406 76 301 76 q 576 164 511 76 l 646 100 q 400 -17 556 -17 z "},"d":{"ha":799,"x_min":65,"x_max":694,"o":"m 694 0 l 590 0 l 590 100 q 364 -17 504 -17 q 148 78 231 -17 q 65 335 65 174 q 149 591 65 494 q 364 688 232 688 q 590 569 503 688 l 590 926 l 694 926 l 694 0 m 390 76 q 506 108 450 76 q 590 183 563 139 l 590 486 q 506 563 563 532 q 390 594 450 594 q 232 522 290 594 q 174 335 174 449 q 232 149 174 221 q 390 76 290 76 z "},"e":{"ha":782,"x_min":65,"x_max":718,"o":"m 408 -17 q 161 81 257 -17 q 65 336 65 179 q 160 585 65 483 q 396 688 254 688 q 631 585 544 688 q 718 328 718 483 l 718 301 l 176 301 q 248 136 183 203 q 417 69 313 69 q 625 156 542 69 l 675 88 q 408 -17 568 -17 m 615 379 q 557 533 614 464 q 394 601 500 601 q 237 533 294 601 q 175 379 179 465 l 615 379 z "},"f":{"ha":394,"x_min":22,"x_max":469,"o":"m 238 0 l 133 0 l 133 579 l 22 579 l 22 671 l 133 671 l 133 722 q 186 883 133 825 q 328 940 239 940 q 469 889 414 940 l 426 822 q 344 854 390 854 q 238 722 238 854 l 238 671 l 374 671 l 374 579 l 238 579 l 238 0 z "},"g":{"ha":799,"x_min":65,"x_max":694,"o":"m 374 -272 q 224 -250 286 -272 q 103 -171 161 -228 l 156 -96 q 374 -186 232 -186 q 528 -138 465 -186 q 590 10 590 -90 l 590 111 q 492 24 551 57 q 364 -8 432 -8 q 148 85 231 -8 q 65 339 65 179 q 148 593 65 499 q 364 688 231 688 q 590 569 503 688 l 590 671 l 694 671 l 694 10 q 603 -205 694 -137 q 374 -272 513 -272 m 390 85 q 506 116 450 85 q 590 193 561 147 l 590 488 q 506 563 561 532 q 390 594 450 594 q 232 524 290 594 q 174 339 174 453 q 232 156 174 226 q 390 85 290 85 z "},"h":{"ha":767,"x_min":106,"x_max":663,"o":"m 663 0 l 558 0 l 558 442 q 519 560 558 526 q 407 594 481 594 q 295 564 350 594 q 210 490 240 533 l 210 0 l 106 0 l 106 926 l 210 926 l 210 574 q 313 654 247 621 q 449 688 378 688 q 663 474 663 688 l 663 0 z "},"i":{"ha":313,"x_min":86,"x_max":226,"o":"m 206 787 q 196 777 206 787 q 157 767 186 767 q 107 787 128 767 q 86 836 86 807 q 107 886 86 865 q 157 907 128 907 q 206 886 186 907 q 226 836 226 865 q 206 787 226 807 m 208 0 l 104 0 l 104 671 l 208 671 l 208 0 z "},"j":{"ha":313,"x_min":-136,"x_max":226,"o":"m 206 787 q 196 777 206 787 q 157 767 186 767 q 107 787 128 767 q 86 836 86 807 q 107 886 86 865 q 157 907 128 907 q 206 886 186 907 q 226 836 226 865 q 206 787 226 807 m 10 -272 q -136 -222 -74 -272 l -100 -144 q -4 -186 -58 -186 q 75 -156 46 -186 q 104 -65 104 -126 l 104 671 l 208 671 l 208 -65 q 157 -219 208 -165 q 10 -272 106 -272 z "},"k":{"ha":714,"x_min":104,"x_max":694,"o":"m 694 0 l 561 0 l 321 301 l 208 192 l 208 0 l 104 0 l 104 926 l 208 926 l 208 314 l 561 671 l 693 671 l 396 367 l 694 0 z "},"l":{"ha":313,"x_min":104,"x_max":208,"o":"m 208 0 l 104 0 l 104 926 l 208 926 l 208 0 z "},"m":{"ha":1122,"x_min":104,"x_max":1018,"o":"m 1018 0 l 914 0 l 914 456 q 790 594 914 594 q 690 565 740 594 q 613 492 640 535 l 613 0 l 508 0 l 508 456 q 385 594 508 594 q 287 564 336 594 q 208 490 238 533 l 208 0 l 104 0 l 104 671 l 208 671 l 208 574 q 297 651 235 614 q 426 688 358 688 q 544 653 499 688 q 606 563 590 618 q 699 650 636 613 q 831 688 761 688 q 1018 485 1018 688 l 1018 0 z "},"n":{"ha":767,"x_min":104,"x_max":661,"o":"m 661 0 l 558 0 l 558 439 q 519 559 558 524 q 407 594 481 594 q 294 564 349 594 q 208 490 240 533 l 208 0 l 104 0 l 104 671 l 208 671 l 208 574 q 313 654 247 621 q 449 688 378 688 q 661 471 661 688 l 661 0 z "},"o":{"ha":794,"x_min":65,"x_max":729,"o":"m 638 85 q 593 34 638 85 q 397 -17 547 -17 q 156 85 247 -17 q 65 336 65 186 q 156 587 65 486 q 397 688 247 688 q 638 587 547 688 q 729 336 729 486 q 638 85 729 186 m 235 152 q 265 114 235 152 q 397 76 294 76 q 560 152 500 76 q 619 336 619 228 q 560 519 619 444 q 397 594 500 594 q 235 519 294 594 q 175 336 175 444 q 235 152 175 228 z "},"p":{"ha":794,"x_min":104,"x_max":733,"o":"m 435 -17 q 208 101 297 -17 l 208 -256 l 104 -256 l 104 671 l 208 671 l 208 571 q 306 656 246 624 q 435 688 365 688 q 651 592 568 688 q 733 336 733 497 q 651 79 733 175 q 435 -17 568 -17 m 408 76 q 565 149 507 76 q 624 336 624 222 q 565 522 624 450 q 408 594 507 594 q 292 563 349 594 q 208 488 236 532 l 208 185 q 292 108 236 139 q 408 76 349 76 z "},"q":{"ha":794,"x_min":61,"x_max":690,"o":"m 386 76 q 502 108 446 76 q 586 185 558 139 l 586 488 q 502 563 558 532 q 386 594 446 594 q 229 522 288 594 q 171 336 171 450 q 229 149 171 222 q 386 76 288 76 m 360 -17 q 144 79 226 -17 q 61 336 61 175 q 144 592 61 497 q 360 688 226 688 q 489 656 429 688 q 586 571 549 624 l 586 671 l 690 671 l 690 -256 l 586 -256 l 586 101 q 360 -17 497 -17 z "},"r":{"ha":458,"x_min":104,"x_max":432,"o":"m 208 0 l 104 0 l 104 671 l 208 671 l 208 564 q 432 686 304 686 l 432 579 q 392 582 407 582 q 288 549 343 582 q 208 475 232 517 l 208 0 z "},"s":{"ha":646,"x_min":47,"x_max":581,"o":"m 318 -17 q 47 89 149 -17 l 100 164 q 195 96 135 124 q 321 68 256 68 q 438 100 396 68 q 481 183 481 132 q 438 253 481 228 q 333 292 394 279 q 212 323 272 306 q 108 383 151 340 q 65 494 65 425 q 132 632 65 576 q 314 688 199 688 q 563 590 468 688 l 514 518 q 314 603 443 603 q 206 573 246 603 q 165 497 165 543 q 196 442 165 464 q 273 410 226 419 q 373 385 319 400 q 473 351 426 369 q 550 290 519 332 q 581 186 581 247 q 512 40 581 97 q 318 -17 443 -17 z "},"t":{"ha":408,"x_min":14,"x_max":399,"o":"m 275 -17 q 125 140 125 -17 l 125 579 l 14 579 l 14 671 l 125 671 l 125 854 l 231 854 l 231 671 l 367 671 l 367 579 l 231 579 l 231 163 q 248 100 231 124 q 297 76 265 76 q 368 106 342 76 l 399 26 q 275 -17 353 -17 z "},"u":{"ha":765,"x_min":104,"x_max":661,"o":"m 661 0 l 557 0 l 557 94 q 452 15 515 47 q 318 -17 389 -17 q 104 197 104 -17 l 104 671 l 208 671 l 208 229 q 247 111 208 146 q 360 76 286 76 q 472 106 418 76 q 557 178 526 135 l 557 671 l 661 671 l 661 0 z "},"v":{"ha":681,"x_min":4,"x_max":676,"o":"m 397 0 l 283 0 l 4 671 l 118 671 l 340 121 l 564 671 l 676 671 l 397 0 z "},"w":{"ha":1019,"x_min":17,"x_max":1004,"o":"m 790 0 l 685 0 l 510 539 l 335 0 l 231 0 l 17 671 l 125 671 l 289 136 l 465 671 l 556 671 l 731 136 l 894 671 l 1004 671 l 790 0 z "},"x":{"ha":676,"x_min":17,"x_max":660,"o":"m 660 0 l 540 0 l 338 275 l 136 0 l 17 0 l 274 344 l 31 671 l 151 671 l 338 415 l 525 671 l 644 671 l 401 344 l 660 0 z "},"y":{"ha":681,"x_min":4,"x_max":676,"o":"m 68 -262 l 83 -168 q 140 -179 108 -179 q 200 -164 176 -179 q 240 -108 224 -149 l 285 -7 l 4 671 l 118 671 l 340 121 l 564 671 l 676 671 l 340 -136 q 143 -272 285 -269 q 68 -262 100 -272 z "},"z":{"ha":656,"x_min":72,"x_max":583,"o":"m 583 0 l 72 0 l 72 82 l 442 579 l 72 579 l 72 671 l 578 671 l 578 592 l 206 92 l 583 92 l 583 0 z "},"{":{"ha":363,"x_min":7,"x_max":339,"o":"m 339 -264 l 253 -264 q 132 -212 183 -264 q 81 -78 81 -160 l 81 208 q 62 277 81 250 q 7 304 43 304 l 7 374 q 62 401 43 374 q 81 469 81 428 l 81 754 q 132 890 81 838 q 253 942 183 942 l 339 942 l 339 865 l 253 865 q 188 834 215 865 q 161 756 161 803 l 161 461 q 99 339 161 365 q 161 217 161 313 l 161 -76 q 188 -156 161 -124 q 253 -187 215 -187 l 339 -187 l 339 -264 z "},"|":{"ha":293,"x_min":108,"x_max":185,"o":"m 185 -28 l 108 -28 l 108 954 l 185 954 l 185 -28 z "},"}":{"ha":363,"x_min":24,"x_max":354,"o":"m 24 -264 l 24 -187 l 108 -187 q 174 -156 146 -187 q 201 -76 201 -124 l 201 217 q 264 339 201 313 q 201 461 201 365 l 201 756 q 174 834 201 803 q 108 865 147 865 l 24 865 l 24 942 l 108 942 q 230 890 178 942 q 282 754 282 838 l 282 469 q 301 401 282 428 q 354 374 319 374 l 354 304 q 301 277 319 304 q 282 208 282 250 l 282 -78 q 230 -212 282 -160 q 108 -264 178 -264 l 24 -264 z "},"~":{"ha":699,"x_min":38,"x_max":660,"o":"m 583 926 l 660 918 q 642 794 653 847 q 611 691 632 742 q 555 614 590 640 q 469 588 519 588 q 388 615 421 588 q 340 681 356 642 q 310 758 324 719 q 278 824 297 797 q 229 851 258 851 q 115 586 142 851 l 38 596 q 56 719 44 665 q 88 822 67 772 q 144 899 108 872 q 229 925 181 925 q 310 898 278 925 q 359 831 343 871 q 388 753 375 792 q 421 687 401 714 q 469 660 440 660 q 583 926 557 660 z "}," ":{"ha":360,"x_min":0,"x_max":0,"o":""},"¡":{"ha":319,"x_min":83,"x_max":235,"o":"m 94 -256 l 115 411 l 203 411 l 225 -256 l 94 -256 m 106 556 q 95 567 106 556 q 83 608 83 578 q 106 662 83 639 q 160 685 128 685 q 213 663 190 685 q 235 608 235 640 q 213 556 235 578 q 160 533 190 533 q 106 556 129 533 z "},"¢":{"ha":689,"x_min":65,"x_max":646,"o":"m 350 -139 l 350 -12 q 144 101 222 4 q 65 336 65 199 q 144 569 65 472 q 350 683 222 665 l 350 785 l 432 785 l 432 686 q 646 571 563 675 l 576 508 q 432 593 521 585 l 432 78 q 576 164 519 86 l 646 100 q 432 -15 565 -4 l 432 -139 l 350 -139 m 221 502 q 197 468 221 502 q 174 336 174 433 q 221 169 174 239 q 350 82 268 100 l 350 589 q 221 502 268 571 z "},"£":{"ha":719,"x_min":28,"x_max":706,"o":"m 28 372 l 28 447 l 174 447 q 120 510 135 492 q 86 574 106 529 q 67 667 67 619 q 158 860 67 781 q 378 940 250 940 q 546 899 472 940 q 658 785 619 858 l 565 729 q 499 810 547 776 q 389 843 450 843 q 249 794 307 843 q 192 665 192 746 q 204 595 192 629 q 228 544 217 561 q 267 492 239 526 q 303 447 294 458 l 511 447 l 511 372 l 342 372 q 351 313 351 340 q 246 129 351 204 q 318 142 283 142 q 425 113 364 142 q 524 85 486 85 q 603 102 567 85 q 656 140 640 119 l 706 47 q 518 -18 638 -18 q 386 14 453 -18 q 269 46 319 46 q 106 -10 211 46 l 65 78 q 201 172 154 117 q 249 289 249 226 q 228 372 249 331 l 28 372 z "},"¤":{"ha":725,"x_min":50,"x_max":675,"o":"m 675 190 l 635 150 l 557 229 q 363 158 474 158 q 168 229 251 158 l 89 150 l 50 190 l 128 268 q 58 463 58 356 q 128 657 58 572 l 50 736 l 89 775 l 168 697 q 363 767 250 767 q 557 697 472 767 l 635 775 l 675 736 l 597 657 q 667 463 667 572 q 597 268 667 356 l 675 190 m 531 294 q 565 329 531 294 q 600 463 600 364 q 531 631 600 561 q 363 700 461 700 q 194 631 264 700 q 125 463 125 561 q 194 294 125 364 q 363 225 264 225 q 531 294 461 225 z "},"¥":{"ha":869,"x_min":13,"x_max":857,"o":"m 493 0 l 378 0 l 378 169 l 31 169 l 31 243 l 378 243 l 378 392 l 31 392 l 31 464 l 328 464 l 13 926 l 147 926 l 435 496 l 722 926 l 857 926 l 542 464 l 840 464 l 840 392 l 493 392 l 493 243 l 840 243 l 840 169 l 493 169 l 493 0 z "},"¦":{"ha":293,"x_min":108,"x_max":185,"o":"m 185 -28 l 108 -28 l 108 411 l 185 411 l 185 -28 m 185 515 l 108 515 l 108 954 l 185 954 l 185 515 z "},"§":{"ha":650,"x_min":47,"x_max":581,"o":"m 581 438 q 453 261 581 315 q 581 92 581 211 q 508 -58 581 -4 q 318 -112 436 -112 q 47 -4 158 -112 l 100 64 q 318 -35 182 -35 q 435 -3 390 -35 q 481 85 481 29 q 438 159 481 132 q 333 201 394 186 q 212 233 272 215 q 108 294 151 251 q 65 404 65 336 q 110 517 65 472 q 224 581 156 563 q 65 753 65 631 q 133 886 65 832 q 314 940 200 940 q 563 842 475 940 l 514 779 q 318 863 444 863 q 208 832 250 863 q 165 751 165 801 q 196 692 165 715 q 273 659 226 669 q 373 633 319 649 q 473 600 426 618 q 550 540 519 582 q 581 438 581 499 m 478 425 q 435 506 478 478 q 321 551 393 533 q 200 496 235 529 q 165 414 165 463 q 196 352 165 378 q 253 317 226 326 q 347 292 281 308 q 363 288 357 289 q 478 425 478 338 z "},"¨":{"ha":378,"x_min":-19,"x_max":397,"o":"m 378 884 q 388 875 378 884 q 397 839 397 865 q 378 794 397 813 q 332 775 358 775 q 287 794 306 775 q 268 839 268 813 q 287 884 268 865 q 332 903 306 903 q 378 884 360 903 m 91 884 q 100 875 91 884 q 110 839 110 865 q 91 794 110 813 q 46 775 72 775 q 0 794 19 775 q -19 839 -19 813 q -1 884 -19 865 q 46 903 18 903 q 91 884 72 903 z "},"©":{"ha":1081,"x_min":61,"x_max":1019,"o":"m 879 803 q 949 733 879 803 q 1019 464 1019 663 q 879 125 1019 265 q 540 -15 739 -15 q 201 126 342 -15 q 61 464 61 267 q 201 803 61 663 q 540 943 342 943 q 879 803 739 943 m 976 464 q 849 772 976 644 q 540 900 721 900 q 233 772 361 900 q 104 464 104 644 q 233 156 104 285 q 540 28 361 28 q 849 156 721 28 q 976 464 976 285 m 711 294 l 747 260 q 543 168 668 168 q 338 254 422 168 q 254 467 254 340 q 338 677 254 593 q 543 761 422 761 q 746 671 669 761 l 711 636 q 638 694 685 672 q 543 715 592 715 q 376 645 446 715 q 306 465 306 575 q 376 286 306 358 q 543 214 447 214 q 638 236 593 214 q 711 294 683 258 z "},"ª":{"ha":525,"x_min":57,"x_max":442,"o":"m 442 453 l 363 453 l 363 501 q 213 442 306 442 q 104 481 151 442 q 57 586 57 519 q 103 692 57 654 q 213 729 150 729 q 363 671 307 729 l 363 747 q 331 813 363 789 q 251 838 299 838 q 115 774 169 838 l 79 826 q 261 900 151 900 q 391 863 340 900 q 442 746 442 825 l 442 453 m 243 494 q 363 547 321 494 l 363 625 q 243 678 321 678 q 167 652 197 678 q 138 586 138 626 q 167 519 138 544 q 243 494 197 494 z "},"«":{"ha":610,"x_min":42,"x_max":568,"o":"m 568 88 l 464 88 l 242 338 l 464 583 l 568 583 l 346 338 l 568 88 m 368 88 l 264 88 l 42 338 l 264 583 l 368 583 l 146 338 l 368 88 z "},"¬":{"ha":700,"x_min":40,"x_max":653,"o":"m 653 635 l 653 293 l 576 293 l 576 561 l 40 561 l 40 635 l 653 635 z "},"®":{"ha":686,"x_min":49,"x_max":638,"o":"m 638 646 q 551 438 638 524 q 343 351 465 351 q 135 438 221 351 q 49 646 49 524 q 135 854 49 768 q 343 940 221 940 q 552 855 467 940 q 638 646 638 769 m 597 646 q 523 826 597 753 q 343 900 449 900 q 163 826 238 900 q 89 646 89 753 q 163 467 89 542 q 343 392 238 392 q 523 467 449 392 q 597 646 597 542 m 479 476 l 424 476 l 336 610 l 275 610 l 275 476 l 231 476 l 231 814 l 368 814 q 444 785 413 814 q 475 711 475 757 q 444 637 475 663 q 389 611 413 611 l 479 476 m 429 711 q 410 756 429 738 q 368 775 392 775 l 275 775 l 275 650 l 368 650 q 410 668 390 650 q 429 711 429 686 z "},"¯":{"ha":504,"x_min":0,"x_max":504,"o":"m 504 821 l 0 821 l 0 888 l 504 888 l 504 821 z "},"‾":{"ha":504,"x_min":0,"x_max":504,"o":"m 504 821 l 0 821 l 0 888 l 504 888 l 504 821 z "},"°":{"ha":403,"x_min":32,"x_max":371,"o":"m 371 771 q 321 651 371 700 q 201 601 271 601 q 81 651 131 601 q 32 771 32 700 q 81 890 32 840 q 201 940 131 940 q 321 890 271 940 q 371 771 371 840 m 274 699 q 289 714 274 699 q 304 771 304 729 q 274 843 304 813 q 201 874 243 874 q 130 843 160 874 q 100 771 100 813 q 129 699 100 728 q 201 669 158 669 q 274 699 243 669 z "},"±":{"ha":693,"x_min":40,"x_max":653,"o":"m 653 450 l 386 450 l 386 154 l 307 154 l 307 450 l 40 450 l 40 522 l 307 522 l 307 810 l 386 810 l 386 522 l 653 522 l 653 450 m 653 0 l 40 0 l 40 74 l 653 74 l 653 0 z "},"²":{"ha":539,"x_min":68,"x_max":474,"o":"m 474 585 l 69 585 l 69 647 q 315 844 243 772 q 388 979 388 915 q 353 1055 388 1029 q 269 1081 318 1081 q 179 1060 221 1081 q 114 1008 138 1039 l 68 1061 q 272 1149 138 1149 q 413 1107 356 1149 q 471 985 471 1065 q 401 831 471 908 q 192 653 332 754 l 474 653 l 474 585 z "},"³":{"ha":539,"x_min":58,"x_max":476,"o":"m 476 736 q 420 619 476 664 q 267 575 364 575 q 58 665 124 575 l 104 718 q 265 643 164 643 q 359 669 325 643 q 393 740 393 696 q 249 836 393 836 q 193 835 201 836 l 193 904 q 249 903 203 903 q 385 992 385 903 q 349 1057 385 1033 q 260 1081 314 1081 q 108 1014 171 1081 l 65 1063 q 268 1149 142 1149 q 412 1108 357 1149 q 467 1000 467 1068 q 429 912 467 944 q 343 872 392 879 q 434 831 392 867 q 476 736 476 796 z "},"´":{"ha":314,"x_min":0,"x_max":314,"o":"m 314 972 l 79 772 l 0 772 l 206 972 l 314 972 z "},"µ":{"ha":765,"x_min":104,"x_max":661,"o":"m 208 -256 l 104 -256 l 104 671 l 208 671 l 208 229 q 247 109 208 144 q 360 74 286 74 q 472 104 417 74 q 557 178 526 135 l 557 671 l 661 671 l 661 0 l 557 0 l 557 94 q 452 15 515 47 q 318 -17 389 -17 q 208 3 254 -17 l 208 -256 z "},"μ":{"ha":765,"x_min":104,"x_max":661,"o":"m 208 -256 l 104 -256 l 104 671 l 208 671 l 208 229 q 247 109 208 144 q 360 74 286 74 q 472 104 417 74 q 557 178 526 135 l 557 671 l 661 671 l 661 0 l 557 0 l 557 94 q 452 15 515 47 q 318 -17 389 -17 q 208 3 254 -17 l 208 -256 z "},"¶":{"ha":624,"x_min":38,"x_max":525,"o":"m 525 -139 l 463 -139 l 463 864 l 339 864 l 339 -139 l 276 -139 l 276 449 q 108 519 178 449 q 38 688 38 589 q 108 856 38 786 q 276 926 178 926 l 525 926 l 525 -139 z "},"·":{"ha":321,"x_min":83,"x_max":236,"o":"m 236 340 q 214 286 236 308 q 160 264 192 264 q 106 286 128 264 q 83 340 83 308 q 106 393 83 371 q 160 415 129 415 q 213 393 190 415 q 236 340 236 371 z "},"∙":{"ha":321,"x_min":83,"x_max":236,"o":"m 236 340 q 214 286 236 308 q 160 264 192 264 q 106 286 128 264 q 83 340 83 308 q 106 393 83 371 q 160 415 129 415 q 213 393 190 415 q 236 340 236 371 z "},"¸":{"ha":285,"x_min":0,"x_max":285,"o":"m 140 -265 q 0 -224 53 -265 l 26 -171 q 138 -211 76 -211 q 198 -196 174 -211 q 222 -153 222 -181 q 171 -104 222 -104 q 118 -128 138 -104 l 72 -101 l 115 15 l 178 15 l 142 -76 q 193 -61 161 -61 q 259 -87 233 -61 q 285 -154 285 -112 q 244 -235 285 -204 q 140 -265 203 -265 z "},"¹":{"ha":326,"x_min":19,"x_max":243,"o":"m 243 585 l 160 585 l 160 1032 l 68 936 l 19 988 l 169 1140 l 243 1140 l 243 585 z "},"º":{"ha":563,"x_min":56,"x_max":507,"o":"m 281 442 q 118 508 181 442 q 56 671 56 575 q 117 834 56 768 q 281 900 179 900 q 445 834 383 900 q 507 671 507 768 q 445 508 507 574 q 281 442 383 442 m 281 508 q 386 555 347 508 q 425 671 425 601 q 386 786 425 740 q 281 832 347 832 q 177 786 215 832 q 139 671 139 740 q 177 554 139 600 q 281 508 215 508 z "},"»":{"ha":610,"x_min":42,"x_max":568,"o":"m 368 338 l 146 88 l 42 88 l 264 338 l 42 583 l 146 583 l 368 338 m 568 338 l 346 88 l 242 88 l 464 338 l 242 583 l 346 583 l 568 338 z "},"¼":{"ha":1069,"x_min":19,"x_max":1018,"o":"m 819 926 l 226 0 l 151 0 l 743 926 l 819 926 m 1018 139 l 939 139 l 939 0 l 856 0 l 856 139 l 583 139 l 583 201 l 824 556 l 939 556 l 939 207 l 1018 207 l 1018 139 m 856 207 l 856 482 l 667 207 l 856 207 m 243 371 l 160 371 l 160 818 l 68 722 l 19 774 l 169 926 l 243 926 l 243 371 z "},"½":{"ha":1121,"x_min":19,"x_max":1056,"o":"m 819 926 l 226 0 l 151 0 l 743 926 l 819 926 m 1056 0 l 651 0 l 651 63 q 897 259 825 188 q 969 394 969 331 q 935 470 969 444 q 851 496 900 496 q 761 475 803 496 q 696 424 719 454 l 650 476 q 854 564 719 564 q 995 522 938 564 q 1053 400 1053 481 q 983 247 1053 324 q 774 68 914 169 l 1056 68 l 1056 0 m 243 371 l 160 371 l 160 818 l 68 722 l 19 774 l 169 926 l 243 926 l 243 371 z "},"¾":{"ha":1219,"x_min":58,"x_max":1169,"o":"m 969 926 l 376 0 l 301 0 l 893 926 l 969 926 m 1169 139 l 1090 139 l 1090 0 l 1007 0 l 1007 139 l 735 139 l 735 201 l 975 556 l 1090 556 l 1090 207 l 1169 207 l 1169 139 m 1007 207 l 1007 482 l 818 207 l 1007 207 m 476 522 q 420 406 476 450 q 267 361 364 361 q 58 451 124 361 l 104 504 q 265 429 164 429 q 359 456 325 429 q 393 526 393 482 q 249 622 393 622 q 193 621 201 622 l 193 690 q 249 689 203 689 q 385 778 385 689 q 349 843 385 819 q 260 867 314 867 q 108 800 171 867 l 65 849 q 268 935 142 935 q 412 894 357 935 q 467 786 467 854 q 429 698 467 731 q 343 658 392 665 q 434 617 392 653 q 476 522 476 582 z "},"¿":{"ha":547,"x_min":43,"x_max":617,"o":"m 360 411 q 413 297 413 367 q 387 210 413 249 q 324 144 361 171 q 251 92 288 117 q 188 33 214 67 q 163 -40 163 0 q 205 -133 163 -96 q 325 -169 247 -169 q 547 -57 463 -169 l 617 -131 q 315 -272 508 -272 q 117 -210 192 -272 q 43 -57 43 -149 q 71 48 43 1 q 138 124 99 94 q 216 179 176 153 q 283 238 256 206 q 311 307 311 269 q 275 374 311 349 l 360 411 m 277 662 q 289 673 277 662 q 331 685 300 685 q 384 662 361 685 q 407 608 407 639 q 384 555 407 578 q 331 532 361 532 q 277 555 300 532 q 254 608 254 578 q 277 662 254 639 z "},"À":{"ha":914,"x_min":13,"x_max":901,"o":"m 550 1011 l 471 1011 l 236 1211 l 344 1211 l 550 1011 m 901 0 l 769 0 l 688 207 l 226 207 l 144 0 l 13 0 l 386 926 l 529 926 l 901 0 m 654 308 l 457 808 l 261 308 l 654 308 z "},"Á":{"ha":914,"x_min":13,"x_max":901,"o":"m 681 1211 l 446 1011 l 367 1011 l 572 1211 l 681 1211 m 901 0 l 769 0 l 688 207 l 226 207 l 144 0 l 13 0 l 386 926 l 529 926 l 901 0 m 654 308 l 457 808 l 261 308 l 654 308 z "},"Â":{"ha":914,"x_min":13,"x_max":901,"o":"m 643 1011 l 572 1011 l 457 1158 l 346 1011 l 275 1011 l 407 1211 l 507 1211 l 643 1011 m 901 0 l 769 0 l 688 207 l 226 207 l 144 0 l 13 0 l 386 926 l 529 926 l 901 0 m 654 308 l 457 808 l 261 308 l 654 308 z "},"Ã":{"ha":914,"x_min":13,"x_max":901,"o":"m 540 1008 q 481 1028 507 1008 q 442 1072 456 1049 q 410 1116 429 1096 q 369 1136 392 1136 q 322 1106 340 1136 q 303 1017 303 1076 l 240 1017 q 276 1151 240 1100 q 375 1203 311 1203 q 434 1183 408 1203 q 473 1139 460 1163 q 505 1095 486 1115 q 546 1075 524 1075 q 594 1105 575 1075 q 613 1194 613 1135 l 675 1194 q 640 1060 675 1111 q 540 1008 604 1008 m 901 0 l 769 0 l 688 207 l 226 207 l 144 0 l 13 0 l 386 926 l 529 926 l 901 0 m 654 308 l 457 808 l 261 308 l 654 308 z "},"Ä":{"ha":914,"x_min":13,"x_max":901,"o":"m 648 1119 q 657 1109 648 1119 q 667 1074 667 1100 q 647 1028 667 1047 q 601 1010 628 1010 q 556 1028 575 1010 q 538 1074 538 1047 q 556 1119 538 1100 q 601 1138 575 1138 q 648 1119 629 1138 m 360 1119 q 370 1109 360 1119 q 379 1074 379 1100 q 360 1028 379 1047 q 315 1010 342 1010 q 269 1028 289 1010 q 250 1074 250 1047 q 269 1119 250 1100 q 315 1138 288 1138 q 360 1119 342 1138 m 901 0 l 769 0 l 688 207 l 226 207 l 144 0 l 13 0 l 386 926 l 529 926 l 901 0 m 654 308 l 457 808 l 261 308 l 654 308 z "},"Å":{"ha":914,"x_min":13,"x_max":901,"o":"m 553 1001 q 534 981 553 1001 q 458 961 514 961 q 362 1001 403 961 q 321 1099 321 1042 q 362 1196 321 1156 q 458 1236 403 1236 q 553 1196 514 1236 q 593 1099 593 1156 q 553 1001 593 1042 m 458 1017 q 515 1041 492 1017 q 539 1099 539 1065 q 515 1156 539 1132 q 458 1181 492 1181 q 400 1156 424 1181 q 376 1099 376 1132 q 400 1041 376 1065 q 458 1017 424 1017 m 901 0 l 769 0 l 688 207 l 226 207 l 144 0 l 13 0 l 386 926 l 529 926 l 901 0 m 654 308 l 457 808 l 261 308 l 654 308 z "},"Æ":{"ha":1317,"x_min":10,"x_max":1240,"o":"m 1240 0 l 633 0 l 633 207 l 269 207 l 142 0 l 10 0 l 588 926 l 1240 926 l 1240 824 l 749 824 l 749 525 l 1231 525 l 1231 422 l 749 422 l 749 103 l 1240 103 l 1240 0 m 633 308 l 633 808 l 325 308 l 633 308 z "},"Ç":{"ha":939,"x_min":71,"x_max":900,"o":"m 539 -260 q 399 -218 450 -260 l 425 -165 q 536 -206 475 -206 q 597 -190 572 -206 q 621 -147 621 -175 q 569 -99 621 -99 q 517 -122 536 -99 l 471 -96 l 500 -14 q 192 133 314 1 q 71 463 71 264 q 208 808 71 674 q 547 942 344 942 q 899 758 771 942 l 803 704 q 694 802 763 765 q 547 839 625 839 q 292 733 393 839 q 190 463 190 628 q 292 192 190 299 q 547 86 394 86 q 694 124 625 86 q 803 221 763 161 l 900 168 q 561 -17 768 -11 l 540 -71 q 592 -56 560 -56 q 658 -81 632 -56 q 683 -149 683 -107 q 642 -229 683 -199 q 539 -260 601 -260 z "},"È":{"ha":790,"x_min":108,"x_max":715,"o":"m 504 1011 l 425 1011 l 190 1211 l 299 1211 l 504 1011 m 715 0 l 108 0 l 108 926 l 715 926 l 715 824 l 224 824 l 224 525 l 706 525 l 706 422 l 224 422 l 224 103 l 715 103 l 715 0 z "},"É":{"ha":790,"x_min":108,"x_max":715,"o":"m 633 1211 l 399 1011 l 319 1011 l 525 1211 l 633 1211 m 715 0 l 108 0 l 108 926 l 715 926 l 715 824 l 224 824 l 224 525 l 706 525 l 706 422 l 224 422 l 224 103 l 715 103 l 715 0 z "},"Ê":{"ha":790,"x_min":108,"x_max":715,"o":"m 594 1011 l 524 1011 l 408 1158 l 297 1011 l 226 1011 l 358 1211 l 458 1211 l 594 1011 m 715 0 l 108 0 l 108 926 l 715 926 l 715 824 l 224 824 l 224 525 l 706 525 l 706 422 l 224 422 l 224 103 l 715 103 l 715 0 z "},"Ë":{"ha":790,"x_min":108,"x_max":715,"o":"m 601 1119 q 610 1109 601 1119 q 619 1074 619 1100 q 600 1028 619 1047 q 554 1010 581 1010 q 509 1028 528 1010 q 490 1074 490 1047 q 509 1119 490 1100 q 554 1138 528 1138 q 601 1119 582 1138 m 313 1119 q 323 1109 313 1119 q 332 1074 332 1100 q 313 1028 332 1047 q 268 1010 294 1010 q 222 1028 242 1010 q 203 1074 203 1047 q 222 1119 203 1100 q 268 1138 240 1138 q 313 1119 294 1138 m 715 0 l 108 0 l 108 926 l 715 926 l 715 824 l 224 824 l 224 525 l 706 525 l 706 422 l 224 422 l 224 103 l 715 103 l 715 0 z "},"Ì":{"ha":332,"x_min":-57,"x_max":257,"o":"m 257 1011 l 178 1011 l -57 1211 l 51 1211 l 257 1011 m 224 0 l 108 0 l 108 926 l 224 926 l 224 0 z "},"Í":{"ha":332,"x_min":76,"x_max":390,"o":"m 390 1211 l 156 1011 l 76 1011 l 282 1211 l 390 1211 m 224 0 l 108 0 l 108 926 l 224 926 l 224 0 z "},"Î":{"ha":332,"x_min":-18,"x_max":350,"o":"m 350 1011 l 279 1011 l 164 1158 l 53 1011 l -18 1011 l 114 1211 l 214 1211 l 350 1011 m 224 0 l 108 0 l 108 926 l 224 926 l 224 0 z "},"Ï":{"ha":332,"x_min":-43,"x_max":374,"o":"m 355 1119 q 364 1109 355 1119 q 374 1074 374 1100 q 354 1028 374 1047 q 308 1010 335 1010 q 263 1028 282 1010 q 244 1074 244 1047 q 263 1119 244 1100 q 308 1138 282 1138 q 355 1119 336 1138 m 67 1119 q 77 1109 67 1119 q 86 1074 86 1100 q 67 1028 86 1047 q 22 1010 49 1010 q -24 1028 -4 1010 q -43 1074 -43 1047 q -24 1119 -43 1100 q 22 1138 -6 1138 q 67 1119 49 1138 m 224 0 l 108 0 l 108 926 l 224 926 l 224 0 z "},"Ð":{"ha":1011,"x_min":14,"x_max":939,"o":"m 464 0 l 147 0 l 147 415 l 14 415 l 14 500 l 147 500 l 147 926 l 464 926 q 808 794 676 926 q 939 463 939 663 q 808 131 939 261 q 464 0 678 0 m 497 415 l 263 415 l 263 103 l 464 103 q 724 206 628 103 q 819 463 819 308 q 725 721 819 618 q 464 824 631 824 l 263 824 l 263 500 l 497 500 l 497 415 z "},"Ñ":{"ha":983,"x_min":108,"x_max":875,"o":"m 572 1008 q 513 1028 539 1008 q 474 1072 488 1049 q 442 1116 461 1096 q 401 1136 424 1136 q 353 1106 372 1136 q 335 1017 335 1076 l 272 1017 q 308 1151 272 1100 q 407 1203 343 1203 q 466 1183 440 1203 q 505 1139 492 1163 q 537 1095 518 1115 q 578 1075 556 1075 q 626 1105 607 1075 q 644 1194 644 1135 l 707 1194 q 672 1060 707 1111 q 572 1008 636 1008 m 875 0 l 764 0 l 224 739 l 224 0 l 108 0 l 108 926 l 226 926 l 760 203 l 760 926 l 875 926 l 875 0 z "},"Ò":{"ha":1063,"x_min":71,"x_max":992,"o":"m 628 1011 l 549 1011 l 314 1211 l 422 1211 l 628 1011 m 863 119 q 798 51 863 119 q 531 -17 733 -17 q 199 119 328 -17 q 71 463 71 256 q 199 806 71 669 q 531 942 328 942 q 863 806 733 942 q 992 463 992 669 q 863 119 992 256 m 531 86 q 778 192 683 86 q 872 463 872 299 q 778 733 872 626 q 531 839 683 839 q 283 733 376 839 q 190 463 190 628 q 283 192 190 299 q 531 86 376 86 z "},"Ó":{"ha":1063,"x_min":71,"x_max":992,"o":"m 756 1211 l 521 1011 l 442 1011 l 647 1211 l 756 1211 m 863 119 q 798 51 863 119 q 531 -17 733 -17 q 199 119 328 -17 q 71 463 71 256 q 199 806 71 669 q 531 942 328 942 q 863 806 733 942 q 992 463 992 669 q 863 119 992 256 m 531 86 q 778 192 683 86 q 872 463 872 299 q 778 733 872 626 q 531 839 683 839 q 283 733 376 839 q 190 463 190 628 q 283 192 190 299 q 531 86 376 86 z "},"Ô":{"ha":1063,"x_min":71,"x_max":992,"o":"m 718 1011 l 647 1011 l 532 1158 l 421 1011 l 350 1011 l 482 1211 l 582 1211 l 718 1011 m 863 119 q 798 51 863 119 q 531 -17 733 -17 q 199 119 328 -17 q 71 463 71 256 q 199 806 71 669 q 531 942 328 942 q 863 806 733 942 q 992 463 992 669 q 863 119 992 256 m 531 86 q 778 192 683 86 q 872 463 872 299 q 778 733 872 626 q 531 839 683 839 q 283 733 376 839 q 190 463 190 628 q 283 192 190 299 q 531 86 376 86 z "},"Õ":{"ha":1063,"x_min":71,"x_max":992,"o":"m 614 1008 q 555 1028 581 1008 q 516 1072 529 1049 q 484 1116 503 1096 q 443 1136 465 1136 q 395 1106 414 1136 q 376 1017 376 1076 l 314 1017 q 349 1151 314 1100 q 449 1203 385 1203 q 508 1183 482 1203 q 547 1139 533 1163 q 578 1095 560 1115 q 619 1075 597 1075 q 667 1105 649 1075 q 686 1194 686 1135 l 749 1194 q 713 1060 749 1111 q 614 1008 678 1008 m 863 119 q 798 51 863 119 q 531 -17 733 -17 q 199 119 328 -17 q 71 463 71 256 q 199 806 71 669 q 531 942 328 942 q 863 806 733 942 q 992 463 992 669 q 863 119 992 256 m 531 86 q 778 192 683 86 q 872 463 872 299 q 778 733 872 626 q 531 839 683 839 q 283 733 376 839 q 190 463 190 628 q 283 192 190 299 q 531 86 376 86 z "},"Ö":{"ha":1063,"x_min":71,"x_max":992,"o":"m 720 1119 q 730 1109 720 1119 q 739 1074 739 1100 q 719 1028 739 1047 q 674 1010 700 1010 q 628 1028 647 1010 q 610 1074 610 1047 q 628 1119 610 1100 q 674 1138 647 1138 q 720 1119 701 1138 m 433 1119 q 442 1109 433 1119 q 451 1074 451 1100 q 433 1028 451 1047 q 388 1010 414 1010 q 342 1028 361 1010 q 322 1074 322 1047 q 341 1119 322 1100 q 388 1138 360 1138 q 433 1119 414 1138 m 863 119 q 798 51 863 119 q 531 -17 733 -17 q 199 119 328 -17 q 71 463 71 256 q 199 806 71 669 q 531 942 328 942 q 863 806 733 942 q 992 463 992 669 q 863 119 992 256 m 531 86 q 778 192 683 86 q 872 463 872 299 q 778 733 872 626 q 531 839 683 839 q 283 733 376 839 q 190 463 190 628 q 283 192 190 299 q 531 86 376 86 z "},"×":{"ha":693,"x_min":89,"x_max":604,"o":"m 553 206 l 346 413 l 140 206 l 89 257 l 296 464 l 89 671 l 140 722 l 346 515 l 553 722 l 604 671 l 399 464 l 604 257 l 553 206 z "},"Ø":{"ha":1063,"x_min":71,"x_max":992,"o":"m 531 -17 q 292 46 397 -17 l 261 0 l 168 0 l 229 90 q 71 463 71 226 q 199 806 71 669 q 531 942 328 942 q 763 883 658 942 l 792 926 l 885 926 l 826 839 q 948 676 904 774 q 992 463 992 578 q 863 119 992 256 q 531 -17 733 -17 m 531 86 q 778 192 683 86 q 872 463 872 299 q 764 747 872 642 l 351 135 q 531 86 428 86 m 190 463 q 292 183 190 289 l 703 794 q 531 839 625 839 q 283 733 376 839 q 190 463 190 628 z "},"Ù":{"ha":974,"x_min":108,"x_max":865,"o":"m 581 1011 l 501 1011 l 267 1211 l 375 1211 l 581 1011 m 486 -17 q 206 84 303 -17 q 108 360 108 185 l 108 926 l 225 926 l 225 363 q 292 160 225 233 q 486 86 360 86 q 681 160 613 86 q 749 363 749 233 l 749 926 l 865 926 l 865 361 q 768 84 865 185 q 486 -17 671 -17 z "},"Ú":{"ha":974,"x_min":108,"x_max":865,"o":"m 708 1211 l 474 1011 l 394 1011 l 600 1211 l 708 1211 m 486 -17 q 206 84 303 -17 q 108 360 108 185 l 108 926 l 225 926 l 225 363 q 292 160 225 233 q 486 86 360 86 q 681 160 613 86 q 749 363 749 233 l 749 926 l 865 926 l 865 361 q 768 84 865 185 q 486 -17 671 -17 z "},"Û":{"ha":974,"x_min":108,"x_max":865,"o":"m 678 1011 l 607 1011 l 492 1158 l 381 1011 l 310 1011 l 442 1211 l 542 1211 l 678 1011 m 486 -17 q 206 84 303 -17 q 108 360 108 185 l 108 926 l 225 926 l 225 363 q 292 160 225 233 q 486 86 360 86 q 681 160 613 86 q 749 363 749 233 l 749 926 l 865 926 l 865 361 q 768 84 865 185 q 486 -17 671 -17 z "},"Ü":{"ha":974,"x_min":108,"x_max":865,"o":"m 677 1119 q 686 1109 677 1119 q 696 1074 696 1100 q 676 1028 696 1047 q 631 1010 657 1010 q 585 1028 604 1010 q 567 1074 567 1047 q 585 1119 567 1100 q 631 1138 604 1138 q 677 1119 658 1138 m 390 1119 q 399 1109 390 1119 q 408 1074 408 1100 q 390 1028 408 1047 q 344 1010 371 1010 q 299 1028 318 1010 q 279 1074 279 1047 q 298 1119 279 1100 q 344 1138 317 1138 q 390 1119 371 1138 m 486 -17 q 206 84 303 -17 q 108 360 108 185 l 108 926 l 225 926 l 225 363 q 292 160 225 233 q 486 86 360 86 q 681 160 613 86 q 749 363 749 233 l 749 926 l 865 926 l 865 361 q 768 84 865 185 q 486 -17 671 -17 z "},"Ý":{"ha":869,"x_min":13,"x_max":857,"o":"m 663 1211 l 428 1011 l 349 1011 l 554 1211 l 663 1211 m 493 0 l 378 0 l 378 392 l 13 926 l 147 926 l 435 496 l 722 926 l 857 926 l 493 392 l 493 0 z "},"Þ":{"ha":815,"x_min":108,"x_max":771,"o":"m 224 0 l 108 0 l 108 926 l 224 926 l 224 761 l 481 761 q 693 681 615 761 q 771 481 771 600 q 692 283 771 363 q 481 203 614 203 l 224 203 l 224 0 m 467 306 q 600 354 549 306 q 651 481 651 403 q 600 608 651 558 q 467 658 549 658 l 224 658 l 224 306 l 467 306 z "},"ß":{"ha":829,"x_min":106,"x_max":803,"o":"m 803 188 q 735 42 803 101 q 544 -17 668 -17 q 396 11 453 -17 q 286 92 339 39 l 339 164 q 424 96 369 122 q 544 69 478 69 q 661 103 621 69 q 701 185 701 136 q 660 255 701 229 q 561 294 619 281 q 444 326 503 308 q 344 386 385 344 q 303 496 303 428 q 335 586 303 546 q 404 647 367 626 q 474 697 442 668 q 506 754 506 725 q 464 822 506 797 q 368 847 422 847 q 255 805 300 847 q 210 693 210 763 l 210 0 l 106 0 l 106 693 q 178 869 106 799 q 369 940 250 940 q 541 892 469 940 q 613 765 613 844 q 591 691 613 724 q 539 638 569 658 q 478 597 508 617 q 426 552 447 578 q 404 496 404 526 q 445 435 404 457 q 544 399 486 413 q 662 368 603 386 q 762 305 721 350 q 803 188 803 260 z "},"à":{"ha":733,"x_min":68,"x_max":628,"o":"m 628 0 l 524 0 l 524 76 q 301 -17 442 -17 q 139 43 210 -17 q 68 206 68 103 q 138 369 68 313 q 301 426 207 426 q 524 336 443 426 l 524 457 q 476 560 524 522 q 354 597 429 597 q 149 504 233 597 l 100 576 q 368 688 207 688 q 556 632 483 688 q 628 461 628 576 l 628 0 m 340 58 q 524 142 464 58 l 524 269 q 340 351 463 351 q 220 310 267 351 q 174 206 174 269 q 220 99 174 140 q 340 58 267 58 m 461 772 l 382 772 l 147 972 l 256 972 l 461 772 z "},"á":{"ha":733,"x_min":68,"x_max":628,"o":"m 628 0 l 524 0 l 524 76 q 301 -17 442 -17 q 139 43 210 -17 q 68 206 68 103 q 138 369 68 313 q 301 426 207 426 q 524 336 443 426 l 524 457 q 476 560 524 522 q 354 597 429 597 q 149 504 233 597 l 100 576 q 368 688 207 688 q 556 632 483 688 q 628 461 628 576 l 628 0 m 340 58 q 524 142 464 58 l 524 269 q 340 351 463 351 q 220 310 267 351 q 174 206 174 269 q 220 99 174 140 q 340 58 267 58 m 593 972 l 358 772 l 279 772 l 485 972 l 593 972 z "},"â":{"ha":733,"x_min":68,"x_max":628,"o":"m 628 0 l 524 0 l 524 76 q 301 -17 442 -17 q 139 43 210 -17 q 68 206 68 103 q 138 369 68 313 q 301 426 207 426 q 524 336 443 426 l 524 457 q 476 560 524 522 q 354 597 429 597 q 149 504 233 597 l 100 576 q 368 688 207 688 q 556 632 483 688 q 628 461 628 576 l 628 0 m 340 58 q 524 142 464 58 l 524 269 q 340 351 463 351 q 220 310 267 351 q 174 206 174 269 q 220 99 174 140 q 340 58 267 58 m 557 772 l 486 772 l 371 919 l 260 772 l 189 772 l 321 972 l 421 972 l 557 772 z "},"ã":{"ha":733,"x_min":68,"x_max":628,"o":"m 628 0 l 524 0 l 524 76 q 301 -17 442 -17 q 139 43 210 -17 q 68 206 68 103 q 138 369 68 313 q 301 426 207 426 q 524 336 443 426 l 524 457 q 476 560 524 522 q 354 597 429 597 q 149 504 233 597 l 100 576 q 368 688 207 688 q 556 632 483 688 q 628 461 628 576 l 628 0 m 340 58 q 524 142 464 58 l 524 269 q 340 351 463 351 q 220 310 267 351 q 174 206 174 269 q 220 99 174 140 q 340 58 267 58 m 451 769 q 392 790 418 769 q 353 833 367 810 q 322 877 340 857 q 281 897 303 897 q 233 867 251 897 q 214 778 214 838 l 151 778 q 187 913 151 861 q 286 964 222 964 q 345 944 319 964 q 384 900 371 924 q 416 856 397 876 q 457 836 435 836 q 505 866 486 836 q 524 956 524 896 l 586 956 q 551 821 586 872 q 451 769 515 769 z "},"ä":{"ha":733,"x_min":68,"x_max":628,"o":"m 628 0 l 524 0 l 524 76 q 301 -17 442 -17 q 139 43 210 -17 q 68 206 68 103 q 138 369 68 313 q 301 426 207 426 q 524 336 443 426 l 524 457 q 476 560 524 522 q 354 597 429 597 q 149 504 233 597 l 100 576 q 368 688 207 688 q 556 632 483 688 q 628 461 628 576 l 628 0 m 340 58 q 524 142 464 58 l 524 269 q 340 351 463 351 q 220 310 267 351 q 174 206 174 269 q 220 99 174 140 q 340 58 267 58 m 556 884 q 566 875 556 884 q 575 839 575 865 q 556 794 575 813 q 510 775 536 775 q 465 794 483 775 q 446 839 446 813 q 465 884 446 865 q 510 903 483 903 q 556 884 538 903 m 269 884 q 278 875 269 884 q 288 839 288 865 q 269 794 288 813 q 224 775 250 775 q 178 794 197 775 q 158 839 158 813 q 177 884 158 865 q 224 903 196 903 q 269 884 250 903 z "},"å":{"ha":733,"x_min":68,"x_max":628,"o":"m 628 0 l 524 0 l 524 76 q 301 -17 442 -17 q 139 43 210 -17 q 68 206 68 103 q 138 369 68 313 q 301 426 207 426 q 524 336 443 426 l 524 457 q 476 560 524 522 q 354 597 429 597 q 149 504 233 597 l 100 576 q 368 688 207 688 q 556 632 483 688 q 628 461 628 576 l 628 0 m 340 58 q 524 142 464 58 l 524 269 q 340 351 463 351 q 220 310 267 351 q 174 206 174 269 q 220 99 174 140 q 340 58 267 58 m 465 800 q 445 780 465 800 q 369 760 425 760 q 273 801 314 760 q 232 897 232 842 q 273 994 232 953 q 369 1035 314 1035 q 465 994 425 1035 q 504 897 504 954 q 465 800 504 840 m 369 815 q 426 840 403 815 q 450 897 450 864 q 426 955 450 931 q 369 979 403 979 q 311 955 335 979 q 288 897 288 931 q 311 840 288 864 q 369 815 335 815 z "},"æ":{"ha":1235,"x_min":68,"x_max":1171,"o":"m 1171 301 l 629 301 q 701 138 636 203 q 869 72 765 72 q 1078 157 996 72 l 1128 88 q 861 -17 1021 -17 q 583 122 683 -17 q 307 -17 485 -17 q 140 43 211 -17 q 68 206 68 103 q 136 368 68 310 q 301 426 204 426 q 524 338 443 426 l 524 457 q 476 560 524 522 q 354 597 429 597 q 149 504 233 597 l 100 576 q 368 688 207 688 q 596 540 563 688 q 853 688 679 688 q 1085 585 999 688 q 1171 328 1171 483 l 1171 301 m 628 379 l 1068 379 q 1010 533 1067 464 q 847 601 953 601 q 690 533 747 601 q 628 379 632 465 m 544 176 q 524 267 524 225 q 340 351 463 351 q 220 310 267 351 q 174 206 174 269 q 220 99 174 140 q 340 58 267 58 q 544 176 479 58 z "},"ç":{"ha":689,"x_min":65,"x_max":646,"o":"m 403 -262 q 263 -221 314 -262 l 289 -168 q 400 -208 339 -208 q 460 -193 436 -208 q 485 -150 485 -178 q 433 -101 485 -101 q 381 -125 400 -101 l 335 -99 l 365 -14 q 148 96 231 -3 q 65 336 65 194 q 158 588 65 488 q 400 688 251 688 q 646 571 556 688 l 576 508 q 406 594 514 594 q 238 522 301 594 q 174 336 174 449 q 238 149 174 222 q 406 76 301 76 q 576 164 511 76 l 646 100 q 426 -15 565 -6 l 404 -74 q 456 -58 424 -58 q 522 -84 496 -58 q 547 -151 547 -110 q 506 -232 547 -201 q 403 -262 465 -262 z "},"è":{"ha":782,"x_min":65,"x_max":718,"o":"m 408 -17 q 161 81 257 -17 q 65 336 65 179 q 160 585 65 483 q 396 688 254 688 q 631 585 544 688 q 718 328 718 483 l 718 301 l 176 301 q 248 136 183 203 q 417 69 313 69 q 625 156 542 69 l 675 88 q 408 -17 568 -17 m 615 379 q 557 533 614 464 q 394 601 500 601 q 237 533 294 601 q 175 379 179 465 l 615 379 m 489 772 l 410 772 l 175 972 l 283 972 l 489 772 z "},"é":{"ha":782,"x_min":65,"x_max":718,"o":"m 408 -17 q 161 81 257 -17 q 65 336 65 179 q 160 585 65 483 q 396 688 254 688 q 631 585 544 688 q 718 328 718 483 l 718 301 l 176 301 q 248 136 183 203 q 417 69 313 69 q 625 156 542 69 l 675 88 q 408 -17 568 -17 m 615 379 q 557 533 614 464 q 394 601 500 601 q 237 533 294 601 q 175 379 179 465 l 615 379 m 619 972 l 385 772 l 306 772 l 511 972 l 619 972 z "},"ê":{"ha":782,"x_min":65,"x_max":718,"o":"m 408 -17 q 161 81 257 -17 q 65 336 65 179 q 160 585 65 483 q 396 688 254 688 q 631 585 544 688 q 718 328 718 483 l 718 301 l 176 301 q 248 136 183 203 q 417 69 313 69 q 625 156 542 69 l 675 88 q 408 -17 568 -17 m 615 379 q 557 533 614 464 q 394 601 500 601 q 237 533 294 601 q 175 379 179 465 l 615 379 m 582 772 l 511 772 l 396 919 l 285 772 l 214 772 l 346 972 l 446 972 l 582 772 z "},"ë":{"ha":782,"x_min":65,"x_max":718,"o":"m 408 -17 q 161 81 257 -17 q 65 336 65 179 q 160 585 65 483 q 396 688 254 688 q 631 585 544 688 q 718 328 718 483 l 718 301 l 176 301 q 248 136 183 203 q 417 69 313 69 q 625 156 542 69 l 675 88 q 408 -17 568 -17 m 615 379 q 557 533 614 464 q 394 601 500 601 q 237 533 294 601 q 175 379 179 465 l 615 379 m 587 884 q 596 875 587 884 q 606 839 606 865 q 586 794 606 813 q 540 775 567 775 q 495 794 514 775 q 476 839 476 813 q 495 884 476 865 q 540 903 514 903 q 587 884 568 903 m 299 884 q 309 875 299 884 q 318 839 318 865 q 299 794 318 813 q 254 775 281 775 q 208 794 228 775 q 189 839 189 813 q 208 884 189 865 q 254 903 226 903 q 299 884 281 903 z "},"ì":{"ha":313,"x_min":-67,"x_max":247,"o":"m 247 772 l 168 772 l -67 972 l 42 972 l 247 772 m 208 0 l 104 0 l 104 671 l 208 671 l 208 0 z "},"í":{"ha":313,"x_min":65,"x_max":379,"o":"m 379 972 l 144 772 l 65 772 l 271 972 l 379 972 m 208 0 l 104 0 l 104 671 l 208 671 l 208 0 z "},"î":{"ha":313,"x_min":-26,"x_max":342,"o":"m 342 772 l 271 772 l 156 919 l 44 772 l -26 772 l 106 972 l 206 972 l 342 772 m 208 0 l 104 0 l 104 671 l 208 671 l 208 0 z "},"ï":{"ha":313,"x_min":-51,"x_max":365,"o":"m 347 884 q 356 875 347 884 q 365 839 365 865 q 346 794 365 813 q 300 775 326 775 q 255 794 274 775 q 236 839 236 813 q 255 884 236 865 q 300 903 274 903 q 347 884 328 903 m 59 884 q 68 875 59 884 q 78 839 78 865 q 59 794 78 813 q 14 775 40 775 q -32 794 -12 775 q -51 839 -51 813 q -33 884 -51 865 q 14 903 -14 903 q 59 884 40 903 m 208 0 l 104 0 l 104 671 l 208 671 l 208 0 z "},"ð":{"ha":794,"x_min":65,"x_max":729,"o":"m 169 690 l 144 749 l 308 821 q 276 842 293 831 q 237 867 258 853 q 204 888 215 881 l 261 974 q 417 868 354 917 l 567 935 l 590 878 l 471 825 q 729 343 729 606 q 639 84 729 185 q 397 -17 549 -17 q 157 81 249 -17 q 65 325 65 178 q 151 569 65 472 q 371 665 238 665 q 590 543 507 665 q 368 779 521 668 l 169 690 m 235 149 q 265 113 235 149 q 397 76 294 76 q 560 149 500 76 q 619 325 619 221 q 560 500 619 428 q 397 572 500 572 q 235 500 294 572 q 175 325 175 428 q 235 149 175 221 z "},"ñ":{"ha":767,"x_min":108,"x_max":665,"o":"m 665 0 l 563 0 l 563 439 q 524 559 563 524 q 411 594 485 594 q 299 564 353 594 q 213 490 244 533 l 213 0 l 108 0 l 108 671 l 213 671 l 213 574 q 317 654 251 621 q 453 688 382 688 q 665 471 665 688 l 665 0 m 467 769 q 408 790 433 769 q 369 833 382 810 q 337 877 356 857 q 296 897 318 897 q 248 867 267 897 q 229 778 229 838 l 167 778 q 202 913 167 861 q 301 964 238 964 q 360 944 335 964 q 399 900 386 924 q 431 856 413 876 q 472 836 450 836 q 520 866 501 836 q 539 956 539 896 l 601 956 q 566 821 601 872 q 467 769 531 769 z "},"ò":{"ha":794,"x_min":65,"x_max":729,"o":"m 638 85 q 593 34 638 85 q 397 -17 547 -17 q 156 85 247 -17 q 65 336 65 186 q 156 587 65 486 q 397 688 247 688 q 638 587 547 688 q 729 336 729 486 q 638 85 729 186 m 235 152 q 265 114 235 152 q 397 76 294 76 q 560 152 500 76 q 619 336 619 228 q 560 519 619 444 q 397 594 500 594 q 235 519 294 594 q 175 336 175 444 q 235 152 175 228 m 489 772 l 410 772 l 175 972 l 283 972 l 489 772 z "},"ó":{"ha":794,"x_min":65,"x_max":729,"o":"m 638 85 q 593 34 638 85 q 397 -17 547 -17 q 156 85 247 -17 q 65 336 65 186 q 156 587 65 486 q 397 688 247 688 q 638 587 547 688 q 729 336 729 486 q 638 85 729 186 m 235 152 q 265 114 235 152 q 397 76 294 76 q 560 152 500 76 q 619 336 619 228 q 560 519 619 444 q 397 594 500 594 q 235 519 294 594 q 175 336 175 444 q 235 152 175 228 m 619 972 l 385 772 l 306 772 l 511 972 l 619 972 z "},"ô":{"ha":794,"x_min":65,"x_max":729,"o":"m 638 85 q 593 34 638 85 q 397 -17 547 -17 q 156 85 247 -17 q 65 336 65 186 q 156 587 65 486 q 397 688 247 688 q 638 587 547 688 q 729 336 729 486 q 638 85 729 186 m 235 152 q 265 114 235 152 q 397 76 294 76 q 560 152 500 76 q 619 336 619 228 q 560 519 619 444 q 397 594 500 594 q 235 519 294 594 q 175 336 175 444 q 235 152 175 228 m 583 772 l 513 772 l 397 919 l 286 772 l 215 772 l 347 972 l 447 972 l 583 772 z "},"õ":{"ha":794,"x_min":65,"x_max":729,"o":"m 638 85 q 593 34 638 85 q 397 -17 547 -17 q 156 85 247 -17 q 65 336 65 186 q 156 587 65 486 q 397 688 247 688 q 638 587 547 688 q 729 336 729 486 q 638 85 729 186 m 235 152 q 265 114 235 152 q 397 76 294 76 q 560 152 500 76 q 619 336 619 228 q 560 519 619 444 q 397 594 500 594 q 235 519 294 594 q 175 336 175 444 q 235 152 175 228 m 481 769 q 422 790 447 769 q 383 833 396 810 q 351 877 369 857 q 310 897 332 897 q 262 867 281 897 q 243 778 243 838 l 181 778 q 216 913 181 861 q 315 964 251 964 q 374 944 349 964 q 413 900 400 924 q 445 856 426 876 q 486 836 464 836 q 534 866 515 836 q 553 956 553 896 l 615 956 q 580 821 615 872 q 481 769 544 769 z "},"ö":{"ha":794,"x_min":65,"x_max":729,"o":"m 638 85 q 593 34 638 85 q 397 -17 547 -17 q 156 85 247 -17 q 65 336 65 186 q 156 587 65 486 q 397 688 247 688 q 638 587 547 688 q 729 336 729 486 q 638 85 729 186 m 235 152 q 265 114 235 152 q 397 76 294 76 q 560 152 500 76 q 619 336 619 228 q 560 519 619 444 q 397 594 500 594 q 235 519 294 594 q 175 336 175 444 q 235 152 175 228 m 587 884 q 596 875 587 884 q 606 839 606 865 q 586 794 606 813 q 540 775 567 775 q 495 794 514 775 q 476 839 476 813 q 495 884 476 865 q 540 903 514 903 q 587 884 568 903 m 299 884 q 309 875 299 884 q 318 839 318 865 q 299 794 318 813 q 254 775 281 775 q 208 794 228 775 q 189 839 189 813 q 208 884 189 865 q 254 903 226 903 q 299 884 281 903 z "},"÷":{"ha":710,"x_min":40,"x_max":669,"o":"m 401 776 q 410 767 401 776 q 419 732 419 758 q 401 686 419 706 q 356 667 382 667 q 310 686 329 667 q 292 732 292 706 q 310 776 292 758 q 356 794 329 794 q 401 776 382 794 m 669 432 l 40 432 l 40 504 l 669 504 l 669 432 m 401 245 q 410 236 401 245 q 419 200 419 226 q 401 155 419 174 q 356 136 382 136 q 310 155 329 136 q 292 200 292 174 q 310 245 292 226 q 356 264 329 264 q 401 245 382 264 z "},"ø":{"ha":794,"x_min":65,"x_max":729,"o":"m 164 0 l 89 0 l 156 85 q 65 336 65 183 q 156 587 65 486 q 397 688 247 688 q 588 631 507 688 l 619 671 l 696 671 l 633 592 q 729 336 729 492 q 638 85 729 186 q 397 -17 547 -17 q 200 46 282 -17 l 164 0 m 397 76 q 560 152 500 76 q 619 336 619 228 q 567 508 619 439 l 261 124 q 397 76 317 76 m 175 336 q 222 168 175 236 l 525 553 q 397 594 472 594 q 235 519 294 594 q 175 336 175 444 z "},"ù":{"ha":765,"x_min":104,"x_max":661,"o":"m 661 0 l 557 0 l 557 94 q 452 15 515 47 q 318 -17 389 -17 q 104 197 104 -17 l 104 671 l 208 671 l 208 229 q 247 111 208 146 q 360 76 286 76 q 472 106 418 76 q 557 178 526 135 l 557 671 l 661 671 l 661 0 m 478 772 l 399 772 l 164 972 l 272 972 l 478 772 z "},"ú":{"ha":765,"x_min":104,"x_max":661,"o":"m 661 0 l 557 0 l 557 94 q 452 15 515 47 q 318 -17 389 -17 q 104 197 104 -17 l 104 671 l 208 671 l 208 229 q 247 111 208 146 q 360 76 286 76 q 472 106 418 76 q 557 178 526 135 l 557 671 l 661 671 l 661 0 m 607 972 l 372 772 l 293 772 l 499 972 l 607 972 z "},"û":{"ha":765,"x_min":104,"x_max":661,"o":"m 661 0 l 557 0 l 557 94 q 452 15 515 47 q 318 -17 389 -17 q 104 197 104 -17 l 104 671 l 208 671 l 208 229 q 247 111 208 146 q 360 76 286 76 q 472 106 418 76 q 557 178 526 135 l 557 671 l 661 671 l 661 0 m 568 772 l 497 772 l 382 919 l 271 772 l 200 772 l 332 972 l 432 972 l 568 772 z "},"ü":{"ha":765,"x_min":104,"x_max":661,"o":"m 661 0 l 557 0 l 557 94 q 452 15 515 47 q 318 -17 389 -17 q 104 197 104 -17 l 104 671 l 208 671 l 208 229 q 247 111 208 146 q 360 76 286 76 q 472 106 418 76 q 557 178 526 135 l 557 671 l 661 671 l 661 0 m 577 884 q 586 875 577 884 q 596 839 596 865 q 576 794 596 813 q 531 775 557 775 q 485 794 504 775 q 467 839 467 813 q 485 884 467 865 q 531 903 504 903 q 577 884 558 903 m 290 884 q 299 875 290 884 q 308 839 308 865 q 290 794 308 813 q 244 775 271 775 q 199 794 218 775 q 179 839 179 813 q 198 884 179 865 q 244 903 217 903 q 290 884 271 903 z "},"ý":{"ha":681,"x_min":4,"x_max":676,"o":"m 68 -262 l 83 -168 q 140 -179 108 -179 q 200 -164 176 -179 q 240 -108 224 -149 l 285 -7 l 4 671 l 118 671 l 340 121 l 564 671 l 676 671 l 340 -136 q 143 -272 285 -269 q 68 -262 100 -272 m 564 972 l 329 772 l 250 772 l 456 972 l 564 972 z "},"þ":{"ha":794,"x_min":104,"x_max":733,"o":"m 435 -17 q 208 101 297 -17 l 208 -256 l 104 -256 l 104 926 l 208 926 l 208 571 q 306 656 246 624 q 435 688 365 688 q 651 592 568 688 q 733 336 733 497 q 651 79 733 175 q 435 -17 568 -17 m 408 76 q 565 149 507 76 q 624 336 624 222 q 565 522 624 450 q 408 594 507 594 q 292 563 349 594 q 208 488 236 532 l 208 185 q 292 108 236 139 q 408 76 349 76 z "},"ÿ":{"ha":681,"x_min":4,"x_max":676,"o":"m 68 -262 l 83 -168 q 140 -179 108 -179 q 200 -164 176 -179 q 240 -108 224 -149 l 285 -7 l 4 671 l 118 671 l 340 121 l 564 671 l 676 671 l 340 -136 q 143 -272 285 -269 q 68 -262 100 -272 m 530 884 q 539 875 530 884 q 549 839 549 865 q 529 794 549 813 q 483 775 510 775 q 438 794 457 775 q 419 839 419 813 q 438 884 419 865 q 483 903 457 903 q 530 884 511 903 m 242 884 q 252 875 242 884 q 261 839 261 865 q 242 794 261 813 q 197 775 224 775 q 151 794 171 775 q 132 839 132 813 q 151 884 132 865 q 197 903 169 903 q 242 884 224 903 z "},"Ā":{"ha":914,"x_min":13,"x_max":901,"o":"m 901 0 l 769 0 l 688 207 l 226 207 l 144 0 l 13 0 l 386 926 l 529 926 l 901 0 m 654 308 l 457 808 l 261 308 l 654 308 m 708 1040 l 204 1040 l 204 1107 l 708 1107 l 708 1040 z "},"ā":{"ha":733,"x_min":68,"x_max":628,"o":"m 628 0 l 524 0 l 524 76 q 301 -17 442 -17 q 139 43 210 -17 q 68 206 68 103 q 138 369 68 313 q 301 426 207 426 q 524 336 443 426 l 524 457 q 476 560 524 522 q 354 597 429 597 q 149 504 233 597 l 100 576 q 368 688 207 688 q 556 632 483 688 q 628 461 628 576 l 628 0 m 340 58 q 524 142 464 58 l 524 269 q 340 351 463 351 q 220 310 267 351 q 174 206 174 269 q 220 99 174 140 q 340 58 267 58 m 617 803 l 113 803 l 113 869 l 617 869 l 617 803 z "},"Ă":{"ha":914,"x_min":13,"x_max":901,"o":"m 901 0 l 769 0 l 688 207 l 226 207 l 144 0 l 13 0 l 386 926 l 529 926 l 901 0 m 654 308 l 457 808 l 261 308 l 654 308 m 700 1125 q 457 1003 610 1003 q 213 1125 306 1003 l 265 1169 q 457 1069 336 1069 q 650 1169 579 1069 l 700 1125 z "},"ă":{"ha":733,"x_min":68,"x_max":628,"o":"m 628 0 l 524 0 l 524 76 q 301 -17 442 -17 q 139 43 210 -17 q 68 206 68 103 q 138 369 68 313 q 301 426 207 426 q 524 336 443 426 l 524 457 q 476 560 524 522 q 354 597 429 597 q 149 504 233 597 l 100 576 q 368 688 207 688 q 556 632 483 688 q 628 461 628 576 l 628 0 m 340 58 q 524 142 464 58 l 524 269 q 340 351 463 351 q 220 310 267 351 q 174 206 174 269 q 220 99 174 140 q 340 58 267 58 m 608 904 q 365 782 518 782 q 121 904 214 782 l 174 949 q 365 849 244 849 q 558 949 488 849 l 608 904 z "},"Ą":{"ha":914,"x_min":13,"x_max":979,"o":"m 928 -146 l 979 -175 q 857 -258 943 -258 q 768 -228 804 -258 q 732 -137 732 -197 q 806 0 732 -58 l 769 0 l 688 207 l 226 207 l 144 0 l 13 0 l 386 926 l 529 926 l 901 0 l 900 0 q 794 -135 794 -53 q 857 -204 794 -204 q 928 -146 908 -204 m 654 308 l 457 808 l 261 308 l 654 308 z "},"ą":{"ha":733,"x_min":68,"x_max":707,"o":"m 656 -146 l 707 -175 q 585 -258 671 -258 q 496 -228 532 -258 q 460 -137 460 -197 q 533 0 460 -58 l 524 0 l 524 76 q 301 -17 442 -17 q 139 43 210 -17 q 68 206 68 103 q 138 369 68 313 q 301 426 207 426 q 524 336 443 426 l 524 457 q 476 560 524 522 q 354 597 429 597 q 149 504 233 597 l 100 576 q 368 688 207 688 q 556 632 483 688 q 628 461 628 576 l 628 0 q 522 -135 522 -53 q 585 -204 522 -204 q 656 -146 636 -204 m 340 58 q 524 142 464 58 l 524 269 q 340 351 463 351 q 220 310 267 351 q 174 206 174 269 q 220 99 174 140 q 340 58 267 58 z "},"Ć":{"ha":939,"x_min":71,"x_max":900,"o":"m 547 -17 q 208 117 344 -17 q 71 463 71 251 q 208 808 71 674 q 547 942 344 942 q 899 758 771 942 l 803 704 q 694 802 763 765 q 547 839 625 839 q 292 733 393 839 q 190 463 190 628 q 292 192 190 299 q 547 86 394 86 q 694 124 625 86 q 803 221 763 161 l 900 168 q 547 -17 765 -17 m 769 1211 l 535 1011 l 456 1011 l 661 1211 l 769 1211 z "},"ć":{"ha":689,"x_min":65,"x_max":646,"o":"m 400 -17 q 158 84 251 -17 q 65 336 65 185 q 158 588 65 488 q 400 688 251 688 q 646 571 556 688 l 576 508 q 406 594 514 594 q 238 522 301 594 q 174 336 174 449 q 238 149 174 222 q 406 76 301 76 q 576 164 511 76 l 646 100 q 400 -17 556 -17 m 629 972 l 394 772 l 315 772 l 521 972 l 629 972 z "},"Ĉ":{"ha":939,"x_min":71,"x_max":900,"o":"m 547 -17 q 208 117 344 -17 q 71 463 71 251 q 208 808 71 674 q 547 942 344 942 q 899 758 771 942 l 803 704 q 694 802 763 765 q 547 839 625 839 q 292 733 393 839 q 190 463 190 628 q 292 192 190 299 q 547 86 394 86 q 694 124 625 86 q 803 221 763 161 l 900 168 q 547 -17 765 -17 m 732 1011 l 661 1011 l 546 1158 l 435 1011 l 364 1011 l 496 1211 l 596 1211 l 732 1011 z "},"ĉ":{"ha":689,"x_min":65,"x_max":646,"o":"m 400 -17 q 158 84 251 -17 q 65 336 65 185 q 158 588 65 488 q 400 688 251 688 q 646 571 556 688 l 576 508 q 406 594 514 594 q 238 522 301 594 q 174 336 174 449 q 238 149 174 222 q 406 76 301 76 q 576 164 511 76 l 646 100 q 400 -17 556 -17 m 590 772 l 519 772 l 404 919 l 293 772 l 222 772 l 354 972 l 454 972 l 590 772 z "},"Ċ":{"ha":939,"x_min":71,"x_max":900,"o":"m 547 -17 q 208 117 344 -17 q 71 463 71 251 q 208 808 71 674 q 547 942 344 942 q 899 758 771 942 l 803 704 q 694 802 763 765 q 547 839 625 839 q 292 733 393 839 q 190 463 190 628 q 292 192 190 299 q 547 86 394 86 q 694 124 625 86 q 803 221 763 161 l 900 168 q 547 -17 765 -17 m 550 1010 q 504 1029 524 1010 q 485 1075 485 1049 q 504 1121 485 1101 q 550 1140 524 1140 q 597 1122 578 1140 q 615 1075 615 1103 q 597 1028 615 1047 q 550 1010 578 1010 z "},"ċ":{"ha":689,"x_min":65,"x_max":646,"o":"m 400 -17 q 158 84 251 -17 q 65 336 65 185 q 158 588 65 488 q 400 688 251 688 q 646 571 556 688 l 576 508 q 406 594 514 594 q 238 522 301 594 q 174 336 174 449 q 238 149 174 222 q 406 76 301 76 q 576 164 511 76 l 646 100 q 400 -17 556 -17 m 403 796 q 357 815 376 796 q 338 861 338 835 q 357 907 338 888 q 403 926 376 926 q 449 908 431 926 q 468 861 468 889 q 449 815 468 833 q 403 796 431 796 z "},"Č":{"ha":939,"x_min":71,"x_max":900,"o":"m 547 -17 q 208 117 344 -17 q 71 463 71 251 q 208 808 71 674 q 547 942 344 942 q 899 758 771 942 l 803 704 q 694 802 763 765 q 547 839 625 839 q 292 733 393 839 q 190 463 190 628 q 292 192 190 299 q 547 86 394 86 q 694 124 625 86 q 803 221 763 161 l 900 168 q 547 -17 765 -17 m 600 1011 l 500 1011 l 364 1211 l 435 1211 l 550 1064 l 661 1211 l 732 1211 l 600 1011 z "},"č":{"ha":689,"x_min":65,"x_max":646,"o":"m 400 -17 q 158 84 251 -17 q 65 336 65 185 q 158 588 65 488 q 400 688 251 688 q 646 571 556 688 l 576 508 q 406 594 514 594 q 238 522 301 594 q 174 336 174 449 q 238 149 174 222 q 406 76 301 76 q 576 164 511 76 l 646 100 q 400 -17 556 -17 m 458 772 l 358 772 l 222 972 l 293 972 l 408 825 l 519 972 l 590 972 l 458 772 z "},"Ď":{"ha":972,"x_min":108,"x_max":900,"o":"m 425 0 l 108 0 l 108 926 l 425 926 q 769 794 638 926 q 900 463 900 663 q 769 131 900 261 q 425 0 639 0 m 425 103 q 685 206 589 103 q 781 463 781 308 q 686 721 781 618 q 425 824 592 824 l 224 824 l 224 103 l 425 103 m 540 1011 l 440 1011 l 304 1211 l 375 1211 l 490 1064 l 601 1211 l 672 1211 l 540 1011 z "},"ď":{"ha":894,"x_min":65,"x_max":900,"o":"m 694 0 l 590 0 l 590 100 q 364 -17 504 -17 q 148 78 231 -17 q 65 335 65 174 q 149 591 65 494 q 364 688 232 688 q 590 569 503 688 l 590 926 l 694 926 l 694 0 m 390 76 q 506 108 450 76 q 590 183 563 139 l 590 486 q 506 563 563 532 q 390 594 450 594 q 232 522 290 594 q 174 335 174 449 q 232 149 174 221 q 390 76 290 76 m 900 851 q 872 747 900 797 q 801 665 844 697 l 757 701 q 810 756 788 722 q 836 821 833 790 l 831 819 q 821 819 824 819 q 779 837 796 819 q 763 881 763 854 q 781 926 763 907 q 826 944 800 944 q 878 919 857 944 q 900 851 900 894 z "},"Đ":{"ha":1011,"x_min":14,"x_max":939,"o":"m 464 0 l 147 0 l 147 415 l 14 415 l 14 500 l 147 500 l 147 926 l 464 926 q 808 794 676 926 q 939 463 939 663 q 808 131 939 261 q 464 0 678 0 m 497 415 l 263 415 l 263 103 l 464 103 q 724 206 628 103 q 819 463 819 308 q 725 721 819 618 q 464 824 631 824 l 263 824 l 263 500 l 497 500 l 497 415 z "},"đ":{"ha":804,"x_min":65,"x_max":789,"o":"m 694 0 l 590 0 l 590 100 q 364 -17 504 -17 q 148 78 231 -17 q 65 335 65 174 q 149 591 65 494 q 364 688 232 688 q 590 569 503 688 l 590 743 l 372 743 l 372 810 l 590 810 l 590 926 l 694 926 l 694 810 l 789 810 l 789 743 l 694 743 l 694 0 m 390 76 q 506 108 450 76 q 590 183 563 139 l 590 486 q 506 563 563 532 q 390 594 450 594 q 232 522 290 594 q 174 335 174 449 q 232 149 174 221 q 390 76 290 76 z "},"Ē":{"ha":790,"x_min":108,"x_max":715,"o":"m 715 0 l 108 0 l 108 926 l 715 926 l 715 824 l 224 824 l 224 525 l 706 525 l 706 422 l 224 422 l 224 103 l 715 103 l 715 0 m 660 1040 l 156 1040 l 156 1107 l 660 1107 l 660 1040 z "},"ē":{"ha":782,"x_min":65,"x_max":718,"o":"m 408 -17 q 161 81 257 -17 q 65 336 65 179 q 160 585 65 483 q 396 688 254 688 q 631 585 544 688 q 718 328 718 483 l 718 301 l 176 301 q 248 136 183 203 q 417 69 313 69 q 625 156 542 69 l 675 88 q 408 -17 568 -17 m 615 379 q 557 533 614 464 q 394 601 500 601 q 237 533 294 601 q 175 379 179 465 l 615 379 m 643 803 l 139 803 l 139 869 l 643 869 l 643 803 z "},"Ĕ":{"ha":790,"x_min":108,"x_max":715,"o":"m 715 0 l 108 0 l 108 926 l 715 926 l 715 824 l 224 824 l 224 525 l 706 525 l 706 422 l 224 422 l 224 103 l 715 103 l 715 0 m 651 1125 q 408 1003 561 1003 q 164 1125 257 1003 l 217 1169 q 408 1069 288 1069 q 601 1169 531 1069 l 651 1125 z "},"ĕ":{"ha":782,"x_min":65,"x_max":718,"o":"m 408 -17 q 161 81 257 -17 q 65 336 65 179 q 160 585 65 483 q 396 688 254 688 q 631 585 544 688 q 718 328 718 483 l 718 301 l 176 301 q 248 136 183 203 q 417 69 313 69 q 625 156 542 69 l 675 88 q 408 -17 568 -17 m 615 379 q 557 533 614 464 q 394 601 500 601 q 237 533 294 601 q 175 379 179 465 l 615 379 m 643 904 q 400 782 553 782 q 156 904 249 782 l 208 949 q 400 849 279 849 q 593 949 522 849 l 643 904 z "},"Ė":{"ha":790,"x_min":108,"x_max":715,"o":"m 715 0 l 108 0 l 108 926 l 715 926 l 715 824 l 224 824 l 224 525 l 706 525 l 706 422 l 224 422 l 224 103 l 715 103 l 715 0 m 464 1028 q 454 1019 464 1028 q 418 1010 444 1010 q 372 1029 392 1010 q 353 1075 353 1049 q 372 1121 353 1101 q 418 1140 392 1140 q 464 1122 444 1140 q 483 1075 483 1103 q 464 1028 483 1047 z "},"ė":{"ha":782,"x_min":65,"x_max":718,"o":"m 408 -17 q 161 81 257 -17 q 65 336 65 179 q 160 585 65 483 q 396 688 254 688 q 631 585 544 688 q 718 328 718 483 l 718 301 l 176 301 q 248 136 183 203 q 417 69 313 69 q 625 156 542 69 l 675 88 q 408 -17 568 -17 m 615 379 q 557 533 614 464 q 394 601 500 601 q 237 533 294 601 q 175 379 179 465 l 615 379 m 397 796 q 351 815 371 796 q 332 861 332 835 q 351 907 332 888 q 397 926 371 926 q 444 908 425 926 q 463 861 463 889 q 444 815 463 833 q 397 796 425 796 z "},"Ę":{"ha":790,"x_min":108,"x_max":794,"o":"m 743 -146 l 794 -175 q 672 -258 758 -258 q 583 -228 619 -258 q 547 -137 547 -197 q 621 0 547 -58 l 108 0 l 108 926 l 715 926 l 715 824 l 224 824 l 224 525 l 706 525 l 706 422 l 224 422 l 224 103 l 715 103 l 715 0 q 610 -135 610 -53 q 672 -204 610 -204 q 743 -146 724 -204 z "},"ę":{"ha":782,"x_min":65,"x_max":718,"o":"m 408 -17 q 161 81 257 -17 q 65 336 65 179 q 160 585 65 483 q 396 688 254 688 q 631 585 544 688 q 718 328 718 483 l 718 301 l 176 301 q 248 136 183 203 q 417 69 313 69 q 625 156 542 69 l 675 88 q 526 0 613 25 q 421 -135 421 -53 q 483 -204 421 -204 q 554 -146 535 -204 l 606 -175 q 483 -258 569 -258 q 394 -228 431 -258 q 358 -137 358 -197 q 413 -17 358 -71 l 408 -17 m 615 379 q 557 533 614 464 q 394 601 500 601 q 237 533 294 601 q 175 379 179 465 l 615 379 z "},"Ě":{"ha":790,"x_min":108,"x_max":715,"o":"m 715 0 l 108 0 l 108 926 l 715 926 l 715 824 l 224 824 l 224 525 l 706 525 l 706 422 l 224 422 l 224 103 l 715 103 l 715 0 m 465 1011 l 365 1011 l 229 1211 l 300 1211 l 415 1064 l 526 1211 l 597 1211 l 465 1011 z "},"ě":{"ha":782,"x_min":65,"x_max":718,"o":"m 408 -17 q 161 81 257 -17 q 65 336 65 179 q 160 585 65 483 q 396 688 254 688 q 631 585 544 688 q 718 328 718 483 l 718 301 l 176 301 q 248 136 183 203 q 417 69 313 69 q 625 156 542 69 l 675 88 q 408 -17 568 -17 m 615 379 q 557 533 614 464 q 394 601 500 601 q 237 533 294 601 q 175 379 179 465 l 615 379 m 449 772 l 349 772 l 213 972 l 283 972 l 399 825 l 510 972 l 581 972 l 449 772 z "},"Ĝ":{"ha":990,"x_min":71,"x_max":911,"o":"m 547 -18 q 208 116 346 -18 q 71 463 71 250 q 208 808 71 675 q 547 942 344 942 q 907 769 768 942 l 815 711 q 699 804 771 769 q 547 839 628 839 q 292 733 393 839 q 190 463 190 628 q 292 192 190 299 q 547 86 394 86 q 690 116 624 86 q 797 186 757 146 l 797 374 l 478 374 l 478 476 l 911 476 l 911 143 q 547 -18 768 -18 m 738 1011 l 667 1011 l 551 1158 l 440 1011 l 369 1011 l 501 1211 l 601 1211 l 738 1011 z "},"ĝ":{"ha":799,"x_min":65,"x_max":694,"o":"m 374 -272 q 224 -250 286 -272 q 103 -171 161 -228 l 156 -96 q 374 -186 232 -186 q 528 -138 465 -186 q 590 10 590 -90 l 590 111 q 492 24 551 57 q 364 -8 432 -8 q 148 85 231 -8 q 65 339 65 179 q 148 593 65 499 q 364 688 231 688 q 590 569 503 688 l 590 671 l 694 671 l 694 10 q 603 -205 694 -137 q 374 -272 513 -272 m 390 85 q 506 116 450 85 q 590 193 561 147 l 590 488 q 506 563 561 532 q 390 594 450 594 q 232 524 290 594 q 174 339 174 453 q 232 156 174 226 q 390 85 290 85 m 588 763 l 517 763 l 401 910 l 290 763 l 219 763 l 351 963 l 451 963 l 588 763 z "},"Ğ":{"ha":990,"x_min":71,"x_max":911,"o":"m 547 -18 q 208 116 346 -18 q 71 463 71 250 q 208 808 71 675 q 547 942 344 942 q 907 769 768 942 l 815 711 q 699 804 771 769 q 547 839 628 839 q 292 733 393 839 q 190 463 190 628 q 292 192 190 299 q 547 86 394 86 q 690 116 624 86 q 797 186 757 146 l 797 374 l 478 374 l 478 476 l 911 476 l 911 143 q 547 -18 768 -18 m 794 1125 q 551 1003 704 1003 q 307 1125 400 1003 l 360 1169 q 551 1069 431 1069 q 744 1169 674 1069 l 794 1125 z "},"ğ":{"ha":799,"x_min":65,"x_max":694,"o":"m 374 -272 q 224 -250 286 -272 q 103 -171 161 -228 l 156 -96 q 374 -186 232 -186 q 528 -138 465 -186 q 590 10 590 -90 l 590 111 q 492 24 551 57 q 364 -8 432 -8 q 148 85 231 -8 q 65 339 65 179 q 148 593 65 499 q 364 688 231 688 q 590 569 503 688 l 590 671 l 694 671 l 694 10 q 603 -205 694 -137 q 374 -272 513 -272 m 390 85 q 506 116 450 85 q 590 193 561 147 l 590 488 q 506 563 561 532 q 390 594 450 594 q 232 524 290 594 q 174 339 174 453 q 232 156 174 226 q 390 85 290 85 m 640 904 q 397 782 550 782 q 153 904 246 782 l 206 949 q 397 849 276 849 q 590 949 519 849 l 640 904 z "},"Ġ":{"ha":990,"x_min":71,"x_max":911,"o":"m 547 -18 q 208 116 346 -18 q 71 463 71 250 q 208 808 71 675 q 547 942 344 942 q 907 769 768 942 l 815 711 q 699 804 771 769 q 547 839 628 839 q 292 733 393 839 q 190 463 190 628 q 292 192 190 299 q 547 86 394 86 q 690 116 624 86 q 797 186 757 146 l 797 374 l 478 374 l 478 476 l 911 476 l 911 143 q 547 -18 768 -18 m 550 1010 q 504 1029 524 1010 q 485 1075 485 1049 q 504 1121 485 1101 q 550 1140 524 1140 q 597 1122 578 1140 q 615 1075 615 1103 q 597 1028 615 1047 q 550 1010 578 1010 z "},"ġ":{"ha":799,"x_min":65,"x_max":694,"o":"m 374 -272 q 224 -250 286 -272 q 103 -171 161 -228 l 156 -96 q 374 -186 232 -186 q 528 -138 465 -186 q 590 10 590 -90 l 590 111 q 492 24 551 57 q 364 -8 432 -8 q 148 85 231 -8 q 65 339 65 179 q 148 593 65 499 q 364 688 231 688 q 590 569 503 688 l 590 671 l 694 671 l 694 10 q 603 -205 694 -137 q 374 -272 513 -272 m 390 85 q 506 116 450 85 q 590 193 561 147 l 590 488 q 506 563 561 532 q 390 594 450 594 q 232 524 290 594 q 174 339 174 453 q 232 156 174 226 q 390 85 290 85 m 447 815 q 438 805 447 815 q 401 796 428 796 q 356 815 375 796 q 336 861 336 835 q 356 907 336 888 q 401 926 375 926 q 447 908 428 926 q 467 861 467 889 q 447 815 467 833 z "},"Ģ":{"ha":990,"x_min":71,"x_max":911,"o":"m 547 -18 q 208 116 346 -18 q 71 463 71 250 q 208 808 71 675 q 547 942 344 942 q 907 769 768 942 l 815 711 q 699 804 771 769 q 547 839 628 839 q 292 733 393 839 q 190 463 190 628 q 292 192 190 299 q 547 86 394 86 q 690 116 624 86 q 797 186 757 146 l 797 374 l 478 374 l 478 476 l 911 476 l 911 143 q 547 -18 768 -18 m 624 -192 q 596 -296 624 -246 q 525 -378 568 -346 l 481 -342 q 534 -287 511 -321 q 560 -222 557 -253 l 553 -222 q 544 -224 547 -224 q 503 -206 519 -224 q 486 -162 486 -189 q 505 -117 486 -136 q 550 -99 524 -99 q 602 -124 581 -99 q 624 -192 624 -149 z "},"ģ":{"ha":799,"x_min":65,"x_max":694,"o":"m 324 861 q 351 974 324 921 q 419 1057 378 1028 l 465 1019 q 411 967 435 1000 q 386 904 388 933 q 393 906 389 906 q 436 887 417 906 q 456 842 456 868 q 437 797 456 817 q 390 778 418 778 q 344 799 364 778 q 324 861 324 821 m 374 -272 q 224 -250 286 -272 q 103 -171 161 -228 l 156 -96 q 374 -186 232 -186 q 528 -138 465 -186 q 590 10 590 -90 l 590 111 q 492 24 551 57 q 364 -8 432 -8 q 148 85 231 -8 q 65 339 65 179 q 148 593 65 499 q 364 688 231 688 q 590 569 503 688 l 590 671 l 694 671 l 694 10 q 603 -205 694 -137 q 374 -272 513 -272 m 390 85 q 506 116 450 85 q 590 193 561 147 l 590 488 q 506 563 561 532 q 390 594 450 594 q 232 524 290 594 q 174 339 174 453 q 232 156 174 226 q 390 85 290 85 z "},"Ĥ":{"ha":989,"x_min":108,"x_max":881,"o":"m 881 0 l 765 0 l 765 425 l 224 425 l 224 0 l 108 0 l 108 926 l 224 926 l 224 528 l 765 528 l 765 926 l 881 926 l 881 0 m 675 1011 l 604 1011 l 489 1158 l 378 1011 l 307 1011 l 439 1211 l 539 1211 l 675 1011 z "},"ĥ":{"ha":767,"x_min":-25,"x_max":663,"o":"m 663 0 l 558 0 l 558 442 q 519 560 558 526 q 407 594 481 594 q 295 564 350 594 q 210 490 240 533 l 210 0 l 106 0 l 106 926 l 210 926 l 210 574 q 313 654 247 621 q 449 688 378 688 q 663 474 663 688 l 663 0 m 343 1011 l 272 1011 l 157 1158 l 46 1011 l -25 1011 l 107 1211 l 207 1211 l 343 1011 z "},"Ħ":{"ha":1015,"x_min":14,"x_max":1001,"o":"m 894 0 l 779 0 l 779 425 l 238 425 l 238 0 l 122 0 l 122 696 l 14 696 l 14 763 l 122 763 l 122 926 l 238 926 l 238 763 l 779 763 l 779 926 l 894 926 l 894 763 l 1001 763 l 1001 696 l 894 696 l 894 0 m 238 528 l 779 528 l 779 696 l 238 696 l 238 528 z "},"ħ":{"ha":771,"x_min":14,"x_max":667,"o":"m 429 743 l 214 743 l 214 574 q 317 654 251 621 q 453 688 382 688 q 667 474 667 688 l 667 0 l 563 0 l 563 442 q 524 560 563 526 q 411 594 485 594 q 299 564 354 594 q 214 490 244 533 l 214 0 l 110 0 l 110 743 l 14 743 l 14 810 l 110 810 l 110 926 l 214 926 l 214 810 l 429 810 l 429 743 z "},"Ĩ":{"ha":332,"x_min":-51,"x_max":383,"o":"m 224 0 l 108 0 l 108 926 l 224 926 l 224 0 m 249 1008 q 190 1028 215 1008 q 151 1072 164 1049 q 119 1116 138 1096 q 78 1136 100 1136 q 30 1106 49 1136 q 11 1017 11 1076 l -51 1017 q -16 1151 -51 1100 q 83 1203 19 1203 q 142 1183 117 1203 q 181 1139 168 1163 q 213 1095 194 1115 q 254 1075 232 1075 q 302 1105 283 1075 q 321 1194 321 1135 l 383 1194 q 348 1060 383 1111 q 249 1008 313 1008 z "},"ĩ":{"ha":313,"x_min":-61,"x_max":374,"o":"m 208 0 l 104 0 l 104 671 l 208 671 l 208 0 m 239 751 q 180 772 206 751 q 141 815 154 792 q 109 859 128 839 q 68 879 90 879 q 20 849 39 879 q 1 760 1 819 l -61 760 q -26 894 -61 843 q 74 946 10 946 q 133 926 107 946 q 172 882 158 906 q 203 838 185 858 q 244 818 222 818 q 292 848 274 818 q 311 938 311 878 l 374 938 q 338 803 374 854 q 239 751 303 751 z "},"Ī":{"ha":332,"x_min":-86,"x_max":418,"o":"m 224 0 l 108 0 l 108 926 l 224 926 l 224 0 m 418 1040 l -86 1040 l -86 1107 l 418 1107 l 418 1040 z "},"ī":{"ha":313,"x_min":-94,"x_max":410,"o":"m 208 0 l 104 0 l 104 671 l 208 671 l 208 0 m 410 803 l -94 803 l -94 869 l 410 869 l 410 803 z "},"Ĭ":{"ha":332,"x_min":-75,"x_max":413,"o":"m 224 0 l 108 0 l 108 926 l 224 926 l 224 0 m 413 1125 q 169 1003 322 1003 q -75 1125 18 1003 l -22 1169 q 169 1069 49 1069 q 363 1169 292 1069 l 413 1125 z "},"ĭ":{"ha":313,"x_min":-86,"x_max":401,"o":"m 208 0 l 104 0 l 104 671 l 208 671 l 208 0 m 401 904 q 158 782 311 782 q -86 904 7 782 l -33 949 q 158 849 38 849 q 351 949 281 849 l 401 904 z "},"Į":{"ha":332,"x_min":56,"x_max":303,"o":"m 251 -146 l 303 -175 q 181 -258 267 -258 q 92 -228 128 -258 q 56 -137 56 -197 q 129 0 56 -58 l 108 0 l 108 926 l 224 926 l 224 0 q 118 -135 118 -53 q 181 -204 118 -204 q 251 -146 232 -204 z "},"į":{"ha":313,"x_min":40,"x_max":288,"o":"m 236 -146 l 288 -175 q 165 -258 251 -258 q 76 -228 113 -258 q 40 -137 40 -197 q 114 0 40 -58 l 104 0 l 104 671 l 208 671 l 208 0 q 103 -135 103 -53 q 165 -204 103 -204 q 236 -146 217 -204 m 206 787 q 196 777 206 787 q 157 767 186 767 q 107 787 128 767 q 86 836 86 807 q 107 886 86 865 q 157 907 128 907 q 206 886 186 907 q 226 836 226 865 q 206 787 226 807 z "},"İ":{"ha":332,"x_min":101,"x_max":232,"o":"m 224 0 l 108 0 l 108 926 l 224 926 l 224 0 m 167 1010 q 121 1029 140 1010 q 101 1075 101 1049 q 121 1121 101 1101 q 167 1140 140 1140 q 213 1122 194 1140 q 232 1075 232 1103 q 213 1028 232 1047 q 167 1010 194 1010 z "},"ı":{"ha":313,"x_min":104,"x_max":208,"o":"m 208 0 l 104 0 l 104 671 l 208 671 l 208 0 z "},"Ĳ":{"ha":992,"x_min":108,"x_max":883,"o":"m 224 0 l 108 0 l 108 926 l 224 926 l 224 0 m 589 -17 q 347 90 439 -17 l 408 178 q 582 86 482 86 q 717 140 667 86 q 768 281 768 193 l 768 926 l 883 926 l 883 279 q 801 59 883 135 q 589 -17 719 -17 z "},"ĳ":{"ha":626,"x_min":86,"x_max":539,"o":"m 206 787 q 196 777 206 787 q 157 767 186 767 q 107 787 128 767 q 86 836 86 807 q 107 886 86 865 q 157 907 128 907 q 206 886 186 907 q 226 836 226 865 q 206 787 226 807 m 208 0 l 104 0 l 104 671 l 208 671 l 208 0 m 519 787 q 509 777 519 787 q 469 767 499 767 q 419 787 440 767 q 399 836 399 807 q 419 886 399 865 q 469 907 440 907 q 519 886 499 907 q 539 836 539 865 q 519 787 539 807 m 322 -272 q 176 -222 239 -272 l 213 -144 q 308 -186 254 -186 q 388 -156 358 -186 q 417 -65 417 -126 l 417 671 l 521 671 l 521 -65 q 469 -219 521 -165 q 322 -272 418 -272 z "},"Ĵ":{"ha":660,"x_min":15,"x_max":678,"o":"m 257 -17 q 15 90 107 -17 l 76 178 q 250 86 150 86 q 385 140 335 86 q 436 281 436 193 l 436 926 l 551 926 l 551 279 q 469 59 551 135 q 257 -17 388 -17 m 678 1011 l 607 1011 l 492 1158 l 381 1011 l 310 1011 l 442 1211 l 542 1211 l 678 1011 z "},"ĵ":{"ha":313,"x_min":-136,"x_max":343,"o":"m 10 -272 q -136 -222 -74 -272 l -100 -137 q -4 -179 -58 -179 q 74 -150 44 -179 q 104 -65 104 -121 l 104 671 l 208 671 l 208 -65 q 157 -219 208 -165 q 10 -272 106 -272 m 343 772 l 272 772 l 157 919 l 46 772 l -25 772 l 107 972 l 207 972 l 343 772 z "},"Ķ":{"ha":842,"x_min":108,"x_max":813,"o":"m 813 0 l 668 0 l 317 417 l 224 311 l 224 0 l 108 0 l 108 926 l 224 926 l 224 449 l 633 926 l 778 926 l 392 488 l 813 0 m 500 -192 q 472 -296 500 -246 q 401 -378 444 -346 l 357 -342 q 410 -287 388 -321 q 436 -222 433 -253 l 431 -222 q 421 -224 424 -224 q 379 -206 396 -224 q 363 -162 363 -189 q 381 -117 363 -136 q 426 -99 400 -99 q 478 -124 457 -99 q 500 -192 500 -149 z "},"ķ":{"ha":714,"x_min":104,"x_max":694,"o":"m 694 0 l 561 0 l 321 301 l 208 192 l 208 0 l 104 0 l 104 926 l 208 926 l 208 314 l 561 671 l 693 671 l 396 367 l 694 0 m 436 -192 q 408 -296 436 -246 q 338 -378 381 -346 l 293 -342 q 347 -287 324 -321 q 372 -222 369 -253 l 367 -222 q 357 -224 360 -224 q 315 -206 332 -224 q 299 -162 299 -189 q 317 -117 299 -136 q 363 -99 336 -99 q 415 -124 393 -99 q 436 -192 436 -149 z "},"ĸ":{"ha":714,"x_min":104,"x_max":694,"o":"m 694 0 l 561 0 l 321 301 l 208 192 l 208 0 l 104 0 l 104 671 l 208 671 l 208 314 l 561 671 l 693 671 l 396 367 l 694 0 z "},"Ĺ":{"ha":685,"x_min":93,"x_max":639,"o":"m 639 0 l 93 0 l 93 926 l 208 926 l 208 103 l 639 103 l 639 0 m 588 1211 l 353 1011 l 274 1011 l 479 1211 l 588 1211 z "},"ĺ":{"ha":313,"x_min":65,"x_max":379,"o":"m 208 0 l 104 0 l 104 926 l 208 926 l 208 0 m 379 1211 l 144 1011 l 65 1011 l 271 1211 l 379 1211 z "},"Ļ":{"ha":685,"x_min":93,"x_max":639,"o":"m 639 0 l 93 0 l 93 926 l 208 926 l 208 103 l 639 103 l 639 0 m 419 -192 q 392 -296 419 -246 q 321 -378 364 -346 l 276 -342 q 330 -287 307 -321 q 356 -222 353 -253 l 350 -222 q 340 -224 343 -224 q 299 -206 315 -224 q 282 -162 282 -189 q 301 -117 282 -136 q 346 -99 319 -99 q 398 -124 376 -99 q 419 -192 419 -149 z "},"ļ":{"ha":313,"x_min":93,"x_max":236,"o":"m 208 0 l 104 0 l 104 926 l 208 926 l 208 0 m 236 -192 q 208 -296 236 -246 q 138 -378 181 -346 l 93 -342 q 147 -287 124 -321 q 172 -222 169 -253 l 167 -222 q 157 -224 160 -224 q 115 -206 132 -224 q 99 -162 99 -189 q 117 -117 99 -136 q 163 -99 136 -99 q 215 -124 193 -99 q 236 -192 236 -149 z "},"Ľ":{"ha":685,"x_min":93,"x_max":639,"o":"m 639 0 l 93 0 l 93 926 l 208 926 l 208 103 l 639 103 l 639 0 m 476 851 q 449 747 476 797 q 378 665 421 697 l 333 701 q 387 756 364 722 q 413 821 410 790 l 406 819 q 397 819 400 819 q 356 837 372 819 q 339 881 339 854 q 358 926 339 907 q 403 944 376 944 q 455 919 433 944 q 476 851 476 894 z "},"ľ":{"ha":404,"x_min":104,"x_max":432,"o":"m 208 0 l 104 0 l 104 926 l 208 926 l 208 0 m 432 851 q 404 747 432 797 q 333 665 376 697 l 289 701 q 342 756 319 722 q 368 821 365 790 l 361 819 q 353 819 356 819 q 311 837 328 819 q 294 881 294 854 q 313 926 294 907 q 358 944 332 944 q 410 919 389 944 q 432 851 432 894 z "},"Ŀ":{"ha":711,"x_min":93,"x_max":639,"o":"m 639 0 l 93 0 l 93 926 l 208 926 l 208 103 l 639 103 l 639 0 m 563 528 q 575 517 563 528 q 586 475 586 506 q 564 422 586 444 q 510 399 542 399 q 456 422 478 399 q 433 475 433 444 q 456 528 433 506 q 510 550 479 550 q 563 528 540 550 z "},"ŀ":{"ha":426,"x_min":104,"x_max":446,"o":"m 208 0 l 104 0 l 104 926 l 208 926 l 208 0 m 446 340 q 423 286 446 308 q 369 264 400 264 q 316 286 339 264 q 293 340 293 308 q 316 393 293 371 q 369 415 339 415 q 423 393 400 415 q 446 340 446 371 z "},"Ł":{"ha":728,"x_min":14,"x_max":682,"o":"m 14 307 l 14 407 l 136 478 l 136 926 l 251 926 l 251 544 l 385 621 l 385 521 l 251 444 l 251 103 l 682 103 l 682 0 l 136 0 l 136 378 l 14 307 z "},"ł":{"ha":399,"x_min":14,"x_max":383,"o":"m 14 317 l 14 400 l 147 476 l 147 926 l 251 926 l 251 536 l 383 611 l 383 528 l 251 453 l 251 0 l 147 0 l 147 393 l 14 317 z "},"Ń":{"ha":983,"x_min":108,"x_max":875,"o":"m 875 0 l 764 0 l 224 739 l 224 0 l 108 0 l 108 926 l 226 926 l 760 203 l 760 926 l 875 926 l 875 0 m 714 1211 l 479 1011 l 400 1011 l 606 1211 l 714 1211 z "},"ń":{"ha":767,"x_min":108,"x_max":665,"o":"m 665 0 l 563 0 l 563 439 q 524 559 563 524 q 411 594 485 594 q 299 564 353 594 q 213 490 244 533 l 213 0 l 108 0 l 108 671 l 213 671 l 213 574 q 317 654 251 621 q 453 688 382 688 q 665 471 665 688 l 665 0 m 606 972 l 371 772 l 292 772 l 497 972 l 606 972 z "},"Ņ":{"ha":983,"x_min":108,"x_max":875,"o":"m 875 0 l 764 0 l 224 739 l 224 0 l 108 0 l 108 926 l 226 926 l 760 203 l 760 926 l 875 926 l 875 0 m 571 -192 q 543 -296 571 -246 q 472 -378 515 -346 l 428 -342 q 481 -287 458 -321 q 507 -222 504 -253 l 500 -222 q 492 -224 494 -224 q 450 -206 467 -224 q 433 -162 433 -189 q 452 -117 433 -136 q 497 -99 471 -99 q 549 -124 528 -99 q 571 -192 571 -149 z "},"ņ":{"ha":767,"x_min":108,"x_max":665,"o":"m 665 0 l 563 0 l 563 439 q 524 559 563 524 q 411 594 485 594 q 299 564 353 594 q 213 490 244 533 l 213 0 l 108 0 l 108 671 l 213 671 l 213 574 q 317 654 251 621 q 453 688 382 688 q 665 471 665 688 l 665 0 m 463 -192 q 435 -296 463 -246 q 364 -378 407 -346 l 319 -342 q 373 -287 350 -321 q 399 -222 396 -253 l 392 -222 q 383 -224 386 -224 q 342 -206 358 -224 q 325 -162 325 -189 q 344 -117 325 -136 q 389 -99 363 -99 q 441 -124 419 -99 q 463 -192 463 -149 z "},"Ň":{"ha":983,"x_min":108,"x_max":875,"o":"m 875 0 l 764 0 l 224 739 l 224 0 l 108 0 l 108 926 l 226 926 l 760 203 l 760 926 l 875 926 l 875 0 m 543 1011 l 443 1011 l 307 1211 l 378 1211 l 493 1064 l 604 1211 l 675 1211 l 543 1011 z "},"ň":{"ha":767,"x_min":108,"x_max":665,"o":"m 665 0 l 563 0 l 563 439 q 524 559 563 524 q 411 594 485 594 q 299 564 353 594 q 213 490 244 533 l 213 0 l 108 0 l 108 671 l 213 671 l 213 574 q 317 654 251 621 q 453 688 382 688 q 665 471 665 688 l 665 0 m 435 772 l 335 772 l 199 972 l 269 972 l 385 825 l 496 972 l 567 972 l 435 772 z "},"ŉ":{"ha":767,"x_min":81,"x_max":665,"o":"m 665 0 l 563 0 l 563 439 q 524 559 563 524 q 411 594 485 594 q 299 564 353 594 q 213 490 244 533 l 213 0 l 108 0 l 108 671 l 213 671 l 213 574 q 317 654 251 621 q 453 688 382 688 q 665 471 665 688 l 665 0 m 224 939 q 196 835 224 885 q 125 753 168 785 l 81 789 q 134 844 111 810 q 160 908 157 878 l 153 908 q 144 907 147 907 q 103 924 119 907 q 86 968 86 942 q 105 1013 86 994 q 150 1032 124 1032 q 202 1007 181 1032 q 224 939 224 982 z "},"Ŋ":{"ha":983,"x_min":108,"x_max":875,"o":"m 581 -272 q 339 -165 431 -272 l 400 -78 q 574 -169 474 -169 q 704 -122 654 -169 q 758 6 754 -74 l 224 739 l 224 0 l 108 0 l 108 926 l 226 926 l 760 203 l 760 926 l 875 926 l 875 21 q 793 -198 875 -124 q 581 -272 711 -272 z "},"ŋ":{"ha":767,"x_min":104,"x_max":661,"o":"m 463 -272 q 317 -222 381 -272 l 353 -137 q 449 -179 394 -179 q 528 -150 497 -179 q 558 -65 558 -121 l 558 439 q 519 559 558 524 q 407 594 481 594 q 294 564 349 594 q 208 490 240 533 l 208 0 l 104 0 l 104 671 l 208 671 l 208 574 q 313 654 247 621 q 449 688 378 688 q 661 471 661 688 l 661 -65 q 610 -219 661 -165 q 463 -272 558 -272 z "},"Ō":{"ha":1063,"x_min":71,"x_max":992,"o":"m 863 119 q 798 51 863 119 q 531 -17 733 -17 q 199 119 328 -17 q 71 463 71 256 q 199 806 71 669 q 531 942 328 942 q 863 806 733 942 q 992 463 992 669 q 863 119 992 256 m 531 86 q 778 192 683 86 q 872 463 872 299 q 778 733 872 626 q 531 839 683 839 q 283 733 376 839 q 190 463 190 628 q 283 192 190 299 q 531 86 376 86 m 782 1040 l 278 1040 l 278 1107 l 782 1107 l 782 1040 z "},"ō":{"ha":794,"x_min":65,"x_max":729,"o":"m 638 85 q 593 34 638 85 q 397 -17 547 -17 q 156 85 247 -17 q 65 336 65 186 q 156 587 65 486 q 397 688 247 688 q 638 587 547 688 q 729 336 729 486 q 638 85 729 186 m 235 152 q 265 114 235 152 q 397 76 294 76 q 560 152 500 76 q 619 336 619 228 q 560 519 619 444 q 397 594 500 594 q 235 519 294 594 q 175 336 175 444 q 235 152 175 228 m 649 803 l 144 803 l 144 869 l 649 869 l 649 803 z "},"Ŏ":{"ha":1063,"x_min":71,"x_max":992,"o":"m 863 119 q 798 51 863 119 q 531 -17 733 -17 q 199 119 328 -17 q 71 463 71 256 q 199 806 71 669 q 531 942 328 942 q 863 806 733 942 q 992 463 992 669 q 863 119 992 256 m 531 86 q 778 192 683 86 q 872 463 872 299 q 778 733 872 626 q 531 839 683 839 q 283 733 376 839 q 190 463 190 628 q 283 192 190 299 q 531 86 376 86 m 774 1125 q 531 1003 683 1003 q 286 1125 379 1003 l 339 1169 q 531 1069 410 1069 q 724 1169 653 1069 l 774 1125 z "},"ŏ":{"ha":794,"x_min":65,"x_max":729,"o":"m 638 85 q 593 34 638 85 q 397 -17 547 -17 q 156 85 247 -17 q 65 336 65 186 q 156 587 65 486 q 397 688 247 688 q 638 587 547 688 q 729 336 729 486 q 638 85 729 186 m 235 152 q 265 114 235 152 q 397 76 294 76 q 560 152 500 76 q 619 336 619 228 q 560 519 619 444 q 397 594 500 594 q 235 519 294 594 q 175 336 175 444 q 235 152 175 228 m 642 904 q 399 782 551 782 q 154 904 247 782 l 207 949 q 399 849 278 849 q 592 949 521 849 l 642 904 z "},"Ő":{"ha":1063,"x_min":71,"x_max":992,"o":"m 863 119 q 798 51 863 119 q 531 -17 733 -17 q 199 119 328 -17 q 71 463 71 256 q 199 806 71 669 q 531 942 328 942 q 863 806 733 942 q 992 463 992 669 q 863 119 992 256 m 531 86 q 778 192 683 86 q 872 463 872 299 q 778 733 872 626 q 531 839 683 839 q 283 733 376 839 q 190 463 190 628 q 283 192 190 299 q 531 86 376 86 m 604 1211 l 444 1011 l 378 1011 l 508 1211 l 604 1211 m 801 1211 l 642 1011 l 575 1011 l 706 1211 l 801 1211 z "},"ő":{"ha":794,"x_min":65,"x_max":729,"o":"m 638 85 q 593 34 638 85 q 397 -17 547 -17 q 156 85 247 -17 q 65 336 65 186 q 156 587 65 486 q 397 688 247 688 q 638 587 547 688 q 729 336 729 486 q 638 85 729 186 m 235 152 q 265 114 235 152 q 397 76 294 76 q 560 152 500 76 q 619 336 619 228 q 560 519 619 444 q 397 594 500 594 q 235 519 294 594 q 175 336 175 444 q 235 152 175 228 m 471 972 l 311 772 l 244 772 l 375 972 l 471 972 m 668 972 l 508 772 l 442 772 l 572 972 l 668 972 z "},"Œ":{"ha":1535,"x_min":71,"x_max":1460,"o":"m 1460 0 l 853 0 l 853 168 q 713 31 803 79 q 521 -17 622 -17 q 196 119 321 -17 q 71 463 71 256 q 196 805 71 669 q 521 940 321 940 q 713 893 622 940 q 853 758 803 846 l 853 926 l 1460 926 l 1460 824 l 968 824 l 968 525 l 1450 525 l 1450 422 l 968 422 l 968 103 l 1460 103 l 1460 0 m 853 311 l 853 615 q 728 781 813 724 q 535 838 644 838 q 284 733 378 838 q 190 463 190 628 q 284 192 190 299 q 535 86 378 86 q 728 144 643 86 q 853 311 813 201 z "},"œ":{"ha":1336,"x_min":65,"x_max":1272,"o":"m 1272 301 l 731 301 q 802 136 738 203 q 971 69 867 69 q 1179 156 1096 69 l 1229 88 q 963 -17 1122 -17 q 778 41 847 -17 q 674 175 708 99 q 397 -17 588 -17 q 156 85 247 -17 q 65 336 65 186 q 156 587 65 486 q 397 688 247 688 q 506 668 456 688 q 588 617 556 649 q 641 557 621 586 q 675 496 661 528 q 774 628 706 568 q 950 688 843 688 q 1185 585 1099 688 q 1272 328 1272 483 l 1272 301 m 729 379 l 1171 379 q 1111 533 1168 464 q 950 601 1054 601 q 792 533 850 601 q 729 379 733 465 m 619 336 q 559 520 619 446 q 397 594 499 594 q 235 520 296 594 q 175 336 175 446 q 235 150 175 225 q 397 75 296 75 q 559 150 499 75 q 619 336 619 225 z "},"Ŕ":{"ha":846,"x_min":108,"x_max":781,"o":"m 781 0 l 644 0 l 410 368 l 224 368 l 224 0 l 108 0 l 108 926 l 481 926 q 691 850 610 926 q 772 647 772 774 q 702 457 772 528 q 531 378 632 386 l 781 0 m 467 469 q 601 519 549 469 q 653 647 653 569 q 601 775 653 726 q 467 824 549 824 l 224 824 l 224 469 l 467 469 m 646 1211 l 411 1011 l 332 1011 l 538 1211 l 646 1211 z "},"ŕ":{"ha":458,"x_min":104,"x_max":489,"o":"m 208 0 l 104 0 l 104 671 l 208 671 l 208 564 q 432 686 304 686 l 432 579 q 392 582 407 582 q 288 549 343 582 q 208 475 232 517 l 208 0 m 489 972 l 254 772 l 175 772 l 381 972 l 489 972 z "},"Ŗ":{"ha":846,"x_min":108,"x_max":781,"o":"m 781 0 l 644 0 l 410 368 l 224 368 l 224 0 l 108 0 l 108 926 l 481 926 q 691 850 610 926 q 772 647 772 774 q 702 457 772 528 q 531 378 632 386 l 781 0 m 467 469 q 601 519 549 469 q 653 647 653 569 q 601 775 653 726 q 467 824 549 824 l 224 824 l 224 469 l 467 469 m 503 -192 q 475 -296 503 -246 q 404 -378 447 -346 l 360 -342 q 413 -287 390 -321 q 439 -222 436 -253 l 433 -222 q 424 -224 426 -224 q 382 -206 399 -224 q 365 -162 365 -189 q 384 -117 365 -136 q 429 -99 403 -99 q 481 -124 460 -99 q 503 -192 503 -149 z "},"ŗ":{"ha":458,"x_min":104,"x_max":432,"o":"m 208 0 l 104 0 l 104 671 l 208 671 l 208 564 q 432 686 304 686 l 432 579 q 392 582 407 582 q 288 549 343 582 q 208 475 232 517 l 208 0 m 308 -192 q 281 -296 308 -246 q 210 -378 253 -346 l 165 -342 q 219 -287 196 -321 q 244 -222 242 -253 l 239 -222 q 229 -224 232 -224 q 188 -206 204 -224 q 171 -162 171 -189 q 190 -117 171 -136 q 235 -99 208 -99 q 287 -124 265 -99 q 308 -192 308 -149 z "},"Ř":{"ha":846,"x_min":108,"x_max":781,"o":"m 781 0 l 644 0 l 410 368 l 224 368 l 224 0 l 108 0 l 108 926 l 481 926 q 691 850 610 926 q 772 647 772 774 q 702 457 772 528 q 531 378 632 386 l 781 0 m 467 469 q 601 519 549 469 q 653 647 653 569 q 601 775 653 726 q 467 824 549 824 l 224 824 l 224 469 l 467 469 m 476 1011 l 376 1011 l 240 1211 l 311 1211 l 426 1064 l 538 1211 l 608 1211 l 476 1011 z "},"ř":{"ha":458,"x_min":82,"x_max":450,"o":"m 208 0 l 104 0 l 104 671 l 208 671 l 208 564 q 432 686 304 686 l 432 579 q 392 582 407 582 q 288 549 343 582 q 208 475 232 517 l 208 0 m 318 772 l 218 772 l 82 972 l 153 972 l 268 825 l 379 972 l 450 972 l 318 772 z "},"Ś":{"ha":814,"x_min":53,"x_max":750,"o":"m 408 -17 q 53 131 183 -17 l 122 219 q 413 86 238 86 q 578 135 525 86 q 631 247 631 183 q 590 340 631 303 q 488 393 549 376 q 356 431 428 410 q 224 476 285 453 q 123 553 164 500 q 82 683 82 606 q 172 869 82 797 q 401 942 263 942 q 729 811 606 942 l 660 726 q 392 838 561 838 q 255 797 308 838 q 201 690 201 756 q 242 610 201 642 q 344 563 283 578 q 476 524 404 547 q 608 476 547 501 q 709 393 668 450 q 750 256 750 336 q 666 63 750 143 q 408 -17 582 -17 m 628 1211 l 393 1011 l 314 1011 l 519 1211 l 628 1211 z "},"ś":{"ha":646,"x_min":47,"x_max":581,"o":"m 318 -17 q 47 89 149 -17 l 100 164 q 195 96 135 124 q 321 68 256 68 q 438 100 396 68 q 481 183 481 132 q 438 253 481 228 q 333 292 394 279 q 212 323 272 306 q 108 383 151 340 q 65 494 65 425 q 132 632 65 576 q 314 688 199 688 q 563 590 468 688 l 514 518 q 314 603 443 603 q 206 573 246 603 q 165 497 165 543 q 196 442 165 464 q 273 410 226 419 q 373 385 319 400 q 473 351 426 369 q 550 290 519 332 q 581 186 581 247 q 512 40 581 97 q 318 -17 443 -17 m 546 972 l 311 772 l 232 772 l 438 972 l 546 972 z "},"Ŝ":{"ha":814,"x_min":53,"x_max":750,"o":"m 581 1011 l 510 1011 l 394 1158 l 283 1011 l 213 1011 l 344 1211 l 444 1211 l 581 1011 m 408 -17 q 53 131 183 -17 l 122 219 q 413 86 238 86 q 578 135 525 86 q 631 247 631 183 q 590 340 631 303 q 488 393 549 376 q 356 431 428 410 q 224 476 285 453 q 123 553 164 500 q 82 683 82 606 q 172 869 82 797 q 401 942 263 942 q 729 811 606 942 l 660 726 q 392 838 561 838 q 255 797 308 838 q 201 690 201 756 q 242 610 201 642 q 344 563 283 578 q 476 524 404 547 q 608 476 547 501 q 709 393 668 450 q 750 256 750 336 q 666 63 750 143 q 408 -17 582 -17 z "},"ŝ":{"ha":646,"x_min":47,"x_max":581,"o":"m 318 -17 q 47 89 149 -17 l 100 164 q 195 96 135 124 q 321 68 256 68 q 438 100 396 68 q 481 183 481 132 q 438 253 481 228 q 333 292 394 279 q 212 323 272 306 q 108 383 151 340 q 65 494 65 425 q 132 632 65 576 q 314 688 199 688 q 563 590 468 688 l 514 518 q 314 603 443 603 q 206 573 246 603 q 165 497 165 543 q 196 442 165 464 q 273 410 226 419 q 373 385 319 400 q 473 351 426 369 q 550 290 519 332 q 581 186 581 247 q 512 40 581 97 q 318 -17 443 -17 m 501 772 l 431 772 l 315 919 l 204 772 l 133 772 l 265 972 l 365 972 l 501 772 z "},"Ş":{"ha":814,"x_min":53,"x_max":750,"o":"m 400 -265 q 260 -224 311 -265 l 286 -171 q 397 -211 336 -211 q 458 -196 433 -211 q 482 -153 482 -181 q 431 -104 482 -104 q 378 -128 397 -104 l 332 -101 l 364 -15 q 53 131 169 0 l 122 219 q 413 86 238 86 q 578 135 525 86 q 631 247 631 183 q 590 340 631 303 q 488 393 549 376 q 356 431 428 410 q 224 476 285 453 q 123 553 164 500 q 82 683 82 606 q 172 869 82 797 q 401 942 263 942 q 729 811 606 942 l 660 726 q 392 838 561 838 q 255 797 308 838 q 201 690 201 756 q 242 610 201 642 q 344 563 283 578 q 476 524 404 547 q 608 476 547 501 q 709 393 668 450 q 750 256 750 336 q 670 67 750 146 q 425 -17 590 -12 l 401 -76 q 453 -61 421 -61 q 519 -87 493 -61 q 544 -154 544 -112 q 503 -235 544 -204 q 400 -265 463 -265 z "},"ş":{"ha":646,"x_min":47,"x_max":581,"o":"m 317 -265 q 176 -224 229 -265 l 203 -171 q 314 -211 253 -211 q 374 -196 350 -211 q 399 -153 399 -181 q 347 -104 399 -104 q 294 -128 314 -104 l 249 -101 l 281 -15 q 47 89 136 -4 l 100 164 q 195 96 135 124 q 321 68 256 68 q 438 100 396 68 q 481 183 481 132 q 438 253 481 228 q 333 292 394 279 q 212 323 272 306 q 108 383 151 340 q 65 494 65 425 q 132 632 65 576 q 314 688 199 688 q 563 590 468 688 l 514 518 q 314 603 443 603 q 206 573 246 603 q 165 497 165 543 q 196 442 165 464 q 273 410 226 419 q 373 385 319 400 q 473 351 426 369 q 550 290 519 332 q 581 186 581 247 q 518 47 581 103 q 342 -15 456 -10 l 318 -76 q 369 -61 338 -61 q 435 -87 410 -61 q 461 -154 461 -112 q 420 -235 461 -204 q 317 -265 379 -265 z "},"Š":{"ha":814,"x_min":53,"x_max":750,"o":"m 449 1011 l 349 1011 l 213 1211 l 283 1211 l 399 1064 l 510 1211 l 581 1211 l 449 1011 m 408 -17 q 53 131 183 -17 l 122 219 q 413 86 238 86 q 578 135 525 86 q 631 247 631 183 q 590 340 631 303 q 488 393 549 376 q 356 431 428 410 q 224 476 285 453 q 123 553 164 500 q 82 683 82 606 q 172 869 82 797 q 401 942 263 942 q 729 811 606 942 l 660 726 q 392 838 561 838 q 255 797 308 838 q 201 690 201 756 q 242 610 201 642 q 344 563 283 578 q 476 524 404 547 q 608 476 547 501 q 709 393 668 450 q 750 256 750 336 q 666 63 750 143 q 408 -17 582 -17 z "},"š":{"ha":646,"x_min":47,"x_max":581,"o":"m 318 -17 q 47 89 149 -17 l 100 164 q 195 96 135 124 q 321 68 256 68 q 438 100 396 68 q 481 183 481 132 q 438 253 481 228 q 333 292 394 279 q 212 323 272 306 q 108 383 151 340 q 65 494 65 425 q 132 632 65 576 q 314 688 199 688 q 563 590 468 688 l 514 518 q 314 603 443 603 q 206 573 246 603 q 165 497 165 543 q 196 442 165 464 q 273 410 226 419 q 373 385 319 400 q 473 351 426 369 q 550 290 519 332 q 581 186 581 247 q 512 40 581 97 q 318 -17 443 -17 m 369 772 l 269 772 l 133 972 l 204 972 l 319 825 l 431 972 l 501 972 l 369 772 z "},"Ţ":{"ha":792,"x_min":44,"x_max":747,"o":"m 453 0 l 338 0 l 338 824 l 44 824 l 44 926 l 747 926 l 747 824 l 453 824 l 453 0 m 475 -192 q 447 -296 475 -246 q 376 -378 419 -346 l 332 -342 q 385 -287 363 -321 q 411 -222 408 -253 l 406 -222 q 396 -224 399 -224 q 354 -206 371 -224 q 338 -162 338 -189 q 356 -117 338 -136 q 401 -99 375 -99 q 453 -124 432 -99 q 475 -192 475 -149 z "},"Ț":{"ha":792,"x_min":44,"x_max":747,"o":"m 453 0 l 338 0 l 338 824 l 44 824 l 44 926 l 747 926 l 747 824 l 453 824 l 453 0 m 475 -192 q 447 -296 475 -246 q 376 -378 419 -346 l 332 -342 q 385 -287 363 -321 q 411 -222 408 -253 l 406 -222 q 396 -224 399 -224 q 354 -206 371 -224 q 338 -162 338 -189 q 356 -117 338 -136 q 401 -99 375 -99 q 453 -124 432 -99 q 475 -192 475 -149 z "},"ţ":{"ha":408,"x_min":14,"x_max":399,"o":"m 275 -17 q 125 140 125 -17 l 125 579 l 14 579 l 14 671 l 125 671 l 125 854 l 231 854 l 231 671 l 367 671 l 367 579 l 231 579 l 231 163 q 248 100 231 124 q 297 76 265 76 q 368 106 342 76 l 399 26 q 275 -17 353 -17 m 283 -192 q 256 -296 283 -246 q 185 -378 228 -346 l 140 -342 q 194 -287 171 -321 q 219 -222 217 -253 l 214 -222 q 204 -224 207 -224 q 163 -206 179 -224 q 146 -162 146 -189 q 165 -117 146 -136 q 210 -99 183 -99 q 262 -124 240 -99 q 283 -192 283 -149 z "},"ț":{"ha":408,"x_min":14,"x_max":399,"o":"m 275 -17 q 125 140 125 -17 l 125 579 l 14 579 l 14 671 l 125 671 l 125 854 l 231 854 l 231 671 l 367 671 l 367 579 l 231 579 l 231 163 q 248 100 231 124 q 297 76 265 76 q 368 106 342 76 l 399 26 q 275 -17 353 -17 m 283 -192 q 256 -296 283 -246 q 185 -378 228 -346 l 140 -342 q 194 -287 171 -321 q 219 -222 217 -253 l 214 -222 q 204 -224 207 -224 q 163 -206 179 -224 q 146 -162 146 -189 q 165 -117 146 -136 q 210 -99 183 -99 q 262 -124 240 -99 q 283 -192 283 -149 z "},"Ť":{"ha":792,"x_min":44,"x_max":747,"o":"m 453 0 l 338 0 l 338 824 l 44 824 l 44 926 l 747 926 l 747 824 l 453 824 l 453 0 m 447 1011 l 347 1011 l 211 1211 l 282 1211 l 397 1064 l 508 1211 l 579 1211 l 447 1011 z "},"ť":{"ha":435,"x_min":14,"x_max":451,"o":"m 275 -17 q 125 140 125 -17 l 125 579 l 14 579 l 14 671 l 125 671 l 125 854 l 231 854 l 231 671 l 367 671 l 367 579 l 231 579 l 231 163 q 248 100 231 124 q 297 76 265 76 q 368 106 342 76 l 399 26 q 275 -17 353 -17 m 451 939 q 424 835 451 885 q 353 753 396 785 l 308 789 q 362 844 339 810 q 388 908 385 878 l 381 908 q 372 907 375 907 q 331 924 347 907 q 314 968 314 942 q 333 1013 314 994 q 378 1032 351 1032 q 430 1007 408 1032 q 451 939 451 982 z "},"Ŧ":{"ha":792,"x_min":44,"x_max":747,"o":"m 453 0 l 338 0 l 338 408 l 129 408 l 129 475 l 338 475 l 338 824 l 44 824 l 44 926 l 747 926 l 747 824 l 453 824 l 453 475 l 664 475 l 664 408 l 453 408 l 453 0 z "},"ŧ":{"ha":408,"x_min":14,"x_max":399,"o":"m 326 315 l 231 315 l 231 163 q 248 100 231 124 q 297 76 265 76 q 368 106 342 76 l 399 26 q 275 -17 353 -17 q 125 140 125 -17 l 125 315 l 14 315 l 14 382 l 125 382 l 125 579 l 14 579 l 14 671 l 125 671 l 125 854 l 231 854 l 231 671 l 367 671 l 367 579 l 231 579 l 231 382 l 326 382 l 326 315 z "},"Ũ":{"ha":974,"x_min":108,"x_max":865,"o":"m 486 -17 q 206 84 303 -17 q 108 360 108 185 l 108 926 l 225 926 l 225 363 q 292 160 225 233 q 486 86 360 86 q 681 160 613 86 q 749 363 749 233 l 749 926 l 865 926 l 865 361 q 768 84 865 185 q 486 -17 671 -17 m 572 1008 q 513 1028 539 1008 q 474 1072 488 1049 q 442 1116 461 1096 q 401 1136 424 1136 q 353 1106 372 1136 q 335 1017 335 1076 l 272 1017 q 308 1151 272 1100 q 407 1203 343 1203 q 466 1183 440 1203 q 505 1139 492 1163 q 537 1095 518 1115 q 578 1075 556 1075 q 626 1105 607 1075 q 644 1194 644 1135 l 707 1194 q 672 1060 707 1111 q 572 1008 636 1008 z "},"ũ":{"ha":765,"x_min":104,"x_max":661,"o":"m 661 0 l 557 0 l 557 94 q 452 15 515 47 q 318 -17 389 -17 q 104 197 104 -17 l 104 671 l 208 671 l 208 229 q 247 111 208 146 q 360 76 286 76 q 472 106 418 76 q 557 178 526 135 l 557 671 l 661 671 l 661 0 m 465 769 q 406 790 432 769 q 367 833 381 810 q 335 877 354 857 q 294 897 317 897 q 247 867 265 897 q 228 778 228 838 l 165 778 q 201 913 165 861 q 300 964 236 964 q 359 944 333 964 q 398 900 385 924 q 430 856 411 876 q 471 836 449 836 q 519 866 500 836 q 538 956 538 896 l 600 956 q 565 821 600 872 q 465 769 529 769 z "},"Ū":{"ha":974,"x_min":108,"x_max":865,"o":"m 486 -17 q 206 84 303 -17 q 108 360 108 185 l 108 926 l 225 926 l 225 363 q 292 160 225 233 q 486 86 360 86 q 681 160 613 86 q 749 363 749 233 l 749 926 l 865 926 l 865 361 q 768 84 865 185 q 486 -17 671 -17 m 739 1040 l 235 1040 l 235 1107 l 739 1107 l 739 1040 z "},"ū":{"ha":765,"x_min":104,"x_max":661,"o":"m 661 0 l 557 0 l 557 94 q 452 15 515 47 q 318 -17 389 -17 q 104 197 104 -17 l 104 671 l 208 671 l 208 229 q 247 111 208 146 q 360 76 286 76 q 472 106 418 76 q 557 178 526 135 l 557 671 l 661 671 l 661 0 m 635 803 l 131 803 l 131 869 l 635 869 l 635 803 z "},"Ŭ":{"ha":974,"x_min":108,"x_max":865,"o":"m 486 -17 q 206 84 303 -17 q 108 360 108 185 l 108 926 l 225 926 l 225 363 q 292 160 225 233 q 486 86 360 86 q 681 160 613 86 q 749 363 749 233 l 749 926 l 865 926 l 865 361 q 768 84 865 185 q 486 -17 671 -17 m 735 1125 q 492 1003 644 1003 q 247 1125 340 1003 l 300 1169 q 492 1069 371 1069 q 685 1169 614 1069 l 735 1125 z "},"ŭ":{"ha":765,"x_min":104,"x_max":661,"o":"m 661 0 l 557 0 l 557 94 q 452 15 515 47 q 318 -17 389 -17 q 104 197 104 -17 l 104 671 l 208 671 l 208 229 q 247 111 208 146 q 360 76 286 76 q 472 106 418 76 q 557 178 526 135 l 557 671 l 661 671 l 661 0 m 629 904 q 386 782 539 782 q 142 904 235 782 l 194 949 q 386 849 265 849 q 579 949 508 849 l 629 904 z "},"Ů":{"ha":974,"x_min":108,"x_max":865,"o":"m 486 -17 q 206 84 303 -17 q 108 360 108 185 l 108 926 l 225 926 l 225 363 q 292 160 225 233 q 486 86 360 86 q 681 160 613 86 q 749 363 749 233 l 749 926 l 865 926 l 865 361 q 768 84 865 185 q 486 -17 671 -17 m 584 1001 q 564 981 584 1001 q 489 961 544 961 q 392 1001 433 961 q 351 1099 351 1042 q 392 1196 351 1156 q 489 1236 433 1236 q 584 1196 544 1236 q 624 1099 624 1156 q 584 1001 624 1042 m 489 1017 q 546 1041 522 1017 q 569 1099 569 1065 q 546 1156 569 1132 q 489 1181 522 1181 q 431 1156 454 1181 q 407 1099 407 1132 q 431 1041 407 1065 q 489 1017 454 1017 z "},"ů":{"ha":765,"x_min":104,"x_max":661,"o":"m 661 0 l 557 0 l 557 94 q 452 15 515 47 q 318 -17 389 -17 q 104 197 104 -17 l 104 671 l 208 671 l 208 229 q 247 111 208 146 q 360 76 286 76 q 472 106 418 76 q 557 178 526 135 l 557 671 l 661 671 l 661 0 m 478 807 q 459 787 478 807 q 383 767 439 767 q 287 807 328 767 q 246 904 246 847 q 287 1001 246 961 q 383 1042 328 1042 q 478 1001 439 1042 q 518 904 518 961 q 478 807 518 847 m 383 822 q 440 847 417 822 q 464 904 464 871 q 440 962 464 938 q 383 986 417 986 q 325 962 349 986 q 301 904 301 938 q 325 847 301 871 q 383 822 349 822 z "},"Ű":{"ha":974,"x_min":108,"x_max":865,"o":"m 486 -17 q 206 84 303 -17 q 108 360 108 185 l 108 926 l 225 926 l 225 363 q 292 160 225 233 q 486 86 360 86 q 681 160 613 86 q 749 363 749 233 l 749 926 l 865 926 l 865 361 q 768 84 865 185 q 486 -17 671 -17 m 561 1211 l 401 1011 l 335 1011 l 465 1211 l 561 1211 m 758 1211 l 599 1011 l 532 1011 l 663 1211 l 758 1211 z "},"ű":{"ha":765,"x_min":104,"x_max":661,"o":"m 661 0 l 557 0 l 557 94 q 452 15 515 47 q 318 -17 389 -17 q 104 197 104 -17 l 104 671 l 208 671 l 208 229 q 247 111 208 146 q 360 76 286 76 q 472 106 418 76 q 557 178 526 135 l 557 671 l 661 671 l 661 0 m 457 972 l 297 772 l 231 772 l 361 972 l 457 972 m 654 972 l 494 772 l 428 772 l 558 972 l 654 972 z "},"Ų":{"ha":974,"x_min":108,"x_max":865,"o":"m 647 -146 l 699 -175 q 576 -258 663 -258 q 488 -228 524 -258 q 451 -137 451 -197 q 506 -17 451 -71 l 486 -17 q 206 84 303 -17 q 108 360 108 185 l 108 926 l 225 926 l 225 363 q 292 160 225 233 q 486 86 360 86 q 681 160 613 86 q 749 363 749 233 l 749 926 l 865 926 l 865 361 q 803 126 865 219 q 619 0 740 33 q 514 -135 514 -53 q 576 -204 514 -204 q 647 -146 628 -204 z "},"ų":{"ha":765,"x_min":104,"x_max":740,"o":"m 689 -146 l 740 -175 q 618 -258 704 -258 q 529 -228 565 -258 q 493 -137 493 -197 q 567 0 493 -58 l 557 0 l 557 94 q 452 15 515 47 q 318 -17 389 -17 q 104 197 104 -17 l 104 671 l 208 671 l 208 229 q 247 111 208 146 q 360 76 286 76 q 472 106 418 76 q 557 178 526 135 l 557 671 l 661 671 l 661 0 q 556 -135 556 -53 q 618 -204 556 -204 q 689 -146 669 -204 z "},"Ŵ":{"ha":1226,"x_min":19,"x_max":1207,"o":"m 942 0 l 817 0 l 613 747 l 408 0 l 283 0 l 19 926 l 147 926 l 353 154 l 565 926 l 661 926 l 874 154 l 1078 926 l 1207 926 l 942 0 m 797 1011 l 726 1011 l 611 1158 l 500 1011 l 429 1011 l 561 1211 l 661 1211 l 797 1011 z "},"ŵ":{"ha":1019,"x_min":17,"x_max":1004,"o":"m 790 0 l 685 0 l 510 539 l 335 0 l 231 0 l 17 671 l 125 671 l 289 136 l 465 671 l 556 671 l 731 136 l 894 671 l 1004 671 l 790 0 m 694 772 l 624 772 l 508 919 l 397 772 l 326 772 l 458 972 l 558 972 l 694 772 z "},"Ŷ":{"ha":869,"x_min":13,"x_max":857,"o":"m 621 1011 l 550 1011 l 435 1158 l 324 1011 l 253 1011 l 385 1211 l 485 1211 l 621 1011 m 493 0 l 378 0 l 378 392 l 13 926 l 147 926 l 435 496 l 722 926 l 857 926 l 493 392 l 493 0 z "},"ŷ":{"ha":681,"x_min":4,"x_max":676,"o":"m 68 -262 l 83 -168 q 140 -179 108 -179 q 200 -164 176 -179 q 240 -108 224 -149 l 285 -7 l 4 671 l 118 671 l 340 121 l 564 671 l 676 671 l 340 -136 q 143 -272 285 -269 q 68 -262 100 -272 m 525 772 l 454 772 l 339 919 l 228 772 l 157 772 l 289 972 l 389 972 l 525 772 z "},"Ÿ":{"ha":869,"x_min":13,"x_max":857,"o":"m 628 1119 q 638 1109 628 1119 q 647 1074 647 1100 q 628 1028 647 1047 q 582 1010 608 1010 q 537 1028 556 1010 q 518 1074 518 1047 q 537 1119 518 1100 q 582 1138 556 1138 q 628 1119 610 1138 m 341 1119 q 350 1109 341 1119 q 360 1074 360 1100 q 341 1028 360 1047 q 296 1010 322 1010 q 250 1028 269 1010 q 231 1074 231 1047 q 249 1119 231 1100 q 296 1138 268 1138 q 341 1119 322 1138 m 493 0 l 378 0 l 378 392 l 13 926 l 147 926 l 435 496 l 722 926 l 857 926 l 493 392 l 493 0 z "},"Ź":{"ha":813,"x_min":67,"x_max":746,"o":"m 746 0 l 67 0 l 67 96 l 588 824 l 67 824 l 67 926 l 736 926 l 736 831 l 214 103 l 746 103 l 746 0 m 628 1211 l 393 1011 l 314 1011 l 519 1211 l 628 1211 z "},"ź":{"ha":656,"x_min":72,"x_max":583,"o":"m 583 0 l 72 0 l 72 82 l 442 579 l 72 579 l 72 671 l 578 671 l 578 592 l 206 92 l 583 92 l 583 0 m 549 972 l 314 772 l 235 772 l 440 972 l 549 972 z "},"Ż":{"ha":813,"x_min":67,"x_max":746,"o":"m 746 0 l 67 0 l 67 96 l 588 824 l 67 824 l 67 926 l 736 926 l 736 831 l 214 103 l 746 103 l 746 0 m 403 1010 q 357 1029 376 1010 q 338 1075 338 1049 q 357 1121 338 1101 q 403 1140 376 1140 q 449 1122 431 1140 q 468 1075 468 1103 q 449 1028 468 1047 q 403 1010 431 1010 z "},"ż":{"ha":656,"x_min":72,"x_max":583,"o":"m 583 0 l 72 0 l 72 82 l 442 579 l 72 579 l 72 671 l 578 671 l 578 592 l 206 92 l 583 92 l 583 0 m 372 815 q 363 805 372 815 q 326 796 353 796 q 281 815 300 796 q 261 861 261 835 q 281 907 261 888 q 326 926 300 926 q 372 908 353 926 q 392 861 392 889 q 372 815 392 833 z "},"Ž":{"ha":813,"x_min":67,"x_max":746,"o":"m 458 1011 l 358 1011 l 222 1211 l 293 1211 l 408 1064 l 519 1211 l 590 1211 l 458 1011 m 746 0 l 67 0 l 67 96 l 588 824 l 67 824 l 67 926 l 736 926 l 736 831 l 214 103 l 746 103 l 746 0 z "},"ž":{"ha":656,"x_min":72,"x_max":583,"o":"m 583 0 l 72 0 l 72 82 l 442 579 l 72 579 l 72 671 l 578 671 l 578 592 l 206 92 l 583 92 l 583 0 m 371 772 l 271 772 l 135 972 l 206 972 l 321 825 l 432 972 l 503 972 l 371 772 z "},"ſ":{"ha":394,"x_min":22,"x_max":469,"o":"m 238 0 l 133 0 l 133 579 l 22 579 l 22 671 l 133 671 l 133 722 q 186 883 133 825 q 328 940 239 940 q 469 889 414 940 l 426 822 q 344 854 390 854 q 238 722 238 854 l 238 0 z "},"ƒ":{"ha":600,"x_min":35,"x_max":618,"o":"m 151 -224 l 35 -224 l 163 353 l 68 353 l 68 447 l 182 447 l 246 731 q 332 884 267 828 q 488 940 397 940 q 618 890 572 940 l 567 806 q 499 838 543 838 q 410 803 447 838 q 358 710 372 769 l 300 447 l 493 447 l 493 353 l 281 353 l 151 -224 z "},"Ǽ":{"ha":1317,"x_min":10,"x_max":1240,"o":"m 1240 0 l 633 0 l 633 207 l 269 207 l 142 0 l 10 0 l 588 926 l 1240 926 l 1240 824 l 749 824 l 749 525 l 1231 525 l 1231 422 l 749 422 l 749 103 l 1240 103 l 1240 0 m 633 308 l 633 808 l 325 308 l 633 308 m 910 1211 l 675 1011 l 596 1011 l 801 1211 l 910 1211 z "},"ǽ":{"ha":1235,"x_min":68,"x_max":1171,"o":"m 1171 301 l 629 301 q 701 138 636 203 q 869 72 765 72 q 1078 157 996 72 l 1128 88 q 861 -17 1021 -17 q 583 122 683 -17 q 307 -17 485 -17 q 140 43 211 -17 q 68 206 68 103 q 136 368 68 310 q 301 426 204 426 q 524 338 443 426 l 524 457 q 476 560 524 522 q 354 597 429 597 q 149 504 233 597 l 100 576 q 368 688 207 688 q 596 540 563 688 q 853 688 679 688 q 1085 585 999 688 q 1171 328 1171 483 l 1171 301 m 628 379 l 1068 379 q 1010 533 1067 464 q 847 601 953 601 q 690 533 747 601 q 628 379 632 465 m 544 176 q 524 267 524 225 q 340 351 463 351 q 220 310 267 351 q 174 206 174 269 q 220 99 174 140 q 340 58 267 58 q 544 176 479 58 m 817 972 l 582 772 l 503 772 l 708 972 l 817 972 z "},"Ǿ":{"ha":1063,"x_min":71,"x_max":992,"o":"m 756 1211 l 521 1011 l 442 1011 l 647 1211 l 756 1211 m 531 -17 q 292 46 397 -17 l 261 0 l 168 0 l 229 90 q 71 463 71 226 q 199 806 71 669 q 531 942 328 942 q 763 883 658 942 l 792 926 l 885 926 l 826 839 q 948 676 904 774 q 992 463 992 578 q 863 119 992 256 q 531 -17 733 -17 m 531 86 q 778 192 683 86 q 872 463 872 299 q 764 747 872 642 l 351 135 q 531 86 428 86 m 190 463 q 292 183 190 289 l 703 794 q 531 839 625 839 q 283 733 376 839 q 190 463 190 628 z "},"ǿ":{"ha":794,"x_min":65,"x_max":729,"o":"m 619 972 l 385 772 l 306 772 l 511 972 l 619 972 m 164 0 l 89 0 l 156 85 q 65 336 65 183 q 156 587 65 486 q 397 688 247 688 q 588 631 507 688 l 619 671 l 696 671 l 633 592 q 729 336 729 492 q 638 85 729 186 q 397 -17 547 -17 q 200 46 282 -17 l 164 0 m 397 76 q 560 152 500 76 q 619 336 619 228 q 567 508 619 439 l 261 124 q 397 76 317 76 m 175 336 q 222 168 175 236 l 525 553 q 397 594 472 594 q 235 519 294 594 q 175 336 175 444 z "},"Ș":{"ha":824,"x_min":60,"x_max":757,"o":"m 415 -17 q 60 131 190 -17 l 129 219 q 419 86 244 86 q 585 135 532 86 q 638 247 638 183 q 597 340 638 303 q 495 393 556 376 q 363 431 435 410 q 231 476 292 453 q 130 553 171 500 q 89 683 89 606 q 179 869 89 797 q 408 942 269 942 q 736 811 613 942 l 667 726 q 399 838 568 838 q 262 797 315 838 q 208 690 208 756 q 249 610 208 642 q 351 563 290 578 q 483 524 411 547 q 615 476 554 501 q 716 393 675 450 q 757 256 757 336 q 673 63 757 143 q 415 -17 589 -17 m 486 -192 q 458 -296 486 -246 q 388 -378 431 -346 l 343 -342 q 397 -287 374 -321 q 422 -222 419 -253 l 417 -222 q 407 -224 410 -224 q 365 -206 382 -224 q 349 -162 349 -189 q 367 -117 349 -136 q 413 -99 386 -99 q 465 -124 443 -99 q 486 -192 486 -149 z "},"ș":{"ha":650,"x_min":47,"x_max":581,"o":"m 318 -17 q 47 89 149 -17 l 100 164 q 195 96 135 124 q 321 68 256 68 q 438 100 396 68 q 481 183 481 132 q 438 253 481 228 q 333 292 394 279 q 212 323 272 306 q 108 383 151 340 q 65 494 65 425 q 132 632 65 576 q 314 688 199 688 q 563 590 468 688 l 514 518 q 314 603 443 603 q 206 573 246 603 q 165 497 165 543 q 196 442 165 464 q 273 410 226 419 q 373 385 319 400 q 473 351 426 369 q 550 290 519 332 q 581 186 581 247 q 512 40 581 97 q 318 -17 443 -17 m 404 -192 q 376 -296 404 -246 q 306 -378 349 -346 l 261 -342 q 315 -287 292 -321 q 340 -222 338 -253 l 333 -222 q 325 -224 328 -224 q 283 -206 300 -224 q 267 -162 267 -189 q 285 -117 267 -136 q 331 -99 304 -99 q 383 -124 361 -99 q 404 -192 404 -149 z "},"ʰ":{"ha":553,"x_min":83,"x_max":469,"o":"m 469 453 l 389 453 l 389 733 q 364 811 389 789 q 290 833 339 833 q 164 769 214 833 l 164 453 l 83 453 l 83 1056 l 164 1056 l 164 828 q 324 900 228 900 q 469 753 469 900 l 469 453 z "},"":{"ha":553,"x_min":83,"x_max":469,"o":"m 469 453 l 389 453 l 389 733 q 364 811 389 789 q 290 833 339 833 q 164 769 214 833 l 164 453 l 83 453 l 83 1056 l 164 1056 l 164 828 q 324 900 228 900 q 469 753 469 900 l 469 453 z "},"ˆ":{"ha":368,"x_min":0,"x_max":368,"o":"m 368 772 l 297 772 l 182 919 l 71 772 l 0 772 l 132 972 l 232 972 l 368 772 z "},"ˇ":{"ha":368,"x_min":0,"x_max":368,"o":"m 236 772 l 136 772 l 0 972 l 71 972 l 186 825 l 297 972 l 368 972 l 236 772 z "},"˘":{"ha":488,"x_min":0,"x_max":488,"o":"m 488 904 q 244 782 397 782 q 0 904 93 782 l 53 949 q 244 849 124 849 q 438 949 367 849 l 488 904 z "},"˙":{"ha":156,"x_min":13,"x_max":143,"o":"m 78 796 q 32 815 51 796 q 13 861 13 835 q 32 907 13 888 q 78 926 51 926 q 124 908 106 926 q 143 861 143 889 q 124 815 143 833 q 78 796 106 796 z "},"˚":{"ha":272,"x_min":0,"x_max":272,"o":"m 138 769 q 40 810 81 769 q 0 907 0 850 q 40 1004 0 964 q 138 1044 81 1044 q 233 1004 193 1044 q 272 907 272 964 q 233 810 272 850 q 138 769 193 769 m 138 825 q 194 849 171 825 q 218 907 218 874 q 194 965 218 940 q 138 989 171 989 q 79 965 103 989 q 56 907 56 940 q 79 849 56 874 q 138 825 103 825 z "},"˛":{"ha":247,"x_min":0,"x_max":247,"o":"m 196 -146 l 247 -175 q 125 -258 211 -258 q 36 -228 72 -258 q 0 -137 0 -197 q 33 -42 0 -86 q 122 32 67 3 l 168 0 q 63 -135 63 -53 q 125 -204 63 -204 q 196 -146 176 -204 z "},"˜":{"ha":435,"x_min":0,"x_max":435,"o":"m 300 769 q 241 790 267 769 q 202 833 215 810 q 170 877 189 857 q 129 897 151 897 q 81 867 100 897 q 63 778 63 838 l 0 778 q 35 913 0 861 q 135 964 71 964 q 194 944 168 964 q 233 900 219 924 q 265 856 246 876 q 306 836 283 836 q 353 866 335 836 q 372 956 372 896 l 435 956 q 399 821 435 872 q 300 769 364 769 z "},"˝":{"ha":424,"x_min":0,"x_max":424,"o":"m 226 972 l 67 772 l 0 772 l 131 972 l 226 972 m 424 972 l 264 772 l 197 772 l 328 972 l 424 972 z "},"Δ":{"ha":914,"x_min":13,"x_max":901,"o":"m 901 0 l 13 0 l 386 926 l 529 926 l 901 0 m 736 103 l 457 808 l 178 103 l 736 103 z "},"∆":{"ha":914,"x_min":13,"x_max":901,"o":"m 901 0 l 13 0 l 386 926 l 529 926 l 901 0 m 736 103 l 457 808 l 178 103 l 736 103 z "},"Ω":{"ha":1063,"x_min":71,"x_max":992,"o":"m 96 0 l 96 103 l 283 103 q 71 483 71 242 q 199 813 71 685 q 531 942 326 942 q 864 813 736 942 q 992 483 992 685 q 933 260 992 356 q 779 103 874 164 l 967 103 l 967 0 l 633 0 l 633 103 q 802 224 732 128 q 872 464 872 321 q 781 731 872 624 q 531 838 690 838 q 281 731 372 838 q 190 464 190 624 q 260 224 190 321 q 429 103 331 128 l 429 0 l 96 0 z "},"Ω":{"ha":1063,"x_min":71,"x_max":992,"o":"m 96 0 l 96 103 l 283 103 q 71 483 71 242 q 199 813 71 685 q 531 942 326 942 q 864 813 736 942 q 992 483 992 685 q 933 260 992 356 q 779 103 874 164 l 967 103 l 967 0 l 633 0 l 633 103 q 802 224 732 128 q 872 464 872 321 q 781 731 872 624 q 531 838 690 838 q 281 731 372 838 q 190 464 190 624 q 260 224 190 321 q 429 103 331 128 l 429 0 l 96 0 z "},"π":{"ha":779,"x_min":44,"x_max":735,"o":"m 628 0 l 522 0 l 522 601 l 257 601 l 257 0 l 151 0 l 151 601 l 44 601 l 44 694 l 735 694 l 735 601 l 628 601 l 628 0 z "},"–":{"ha":824,"x_min":42,"x_max":782,"o":"m 782 290 l 42 290 l 42 382 l 782 382 l 782 290 z "},"—":{"ha":1157,"x_min":42,"x_max":1115,"o":"m 1115 290 l 42 290 l 42 382 l 1115 382 l 1115 290 z "},"‘":{"ha":319,"x_min":67,"x_max":231,"o":"m 67 732 q 98 849 67 793 q 178 940 129 906 l 231 899 q 171 840 197 876 q 140 769 144 803 q 149 771 142 769 q 160 772 156 772 q 207 752 188 772 q 226 701 226 732 q 205 648 226 669 q 153 626 183 626 q 92 655 117 626 q 67 732 67 683 z "},"’":{"ha":319,"x_min":79,"x_max":244,"o":"m 244 835 q 213 717 244 774 q 132 625 182 661 l 79 668 q 139 727 113 690 q 169 797 165 764 q 150 794 164 794 q 103 815 122 794 q 83 865 83 835 q 105 918 83 896 q 157 940 126 940 q 219 912 194 940 q 244 835 244 883 z "},"‚":{"ha":319,"x_min":79,"x_max":244,"o":"m 244 33 q 213 -84 244 -28 q 132 -176 182 -140 l 79 -133 q 140 -74 114 -111 q 169 -4 165 -37 q 150 -7 164 -7 q 103 13 122 -7 q 83 64 83 33 q 105 117 83 94 q 157 139 126 139 q 219 110 194 139 q 244 33 244 82 z "},"“":{"ha":542,"x_min":75,"x_max":461,"o":"m 75 732 q 106 849 75 793 q 188 940 138 906 l 239 899 q 180 840 206 876 q 150 769 154 803 l 157 771 q 168 772 164 772 q 217 752 197 772 q 236 701 236 732 q 214 648 236 669 q 161 626 192 626 q 100 655 125 626 q 75 732 75 683 m 297 732 q 328 849 297 793 q 410 940 360 906 l 461 899 q 402 840 428 876 q 372 769 376 803 q 381 771 374 769 q 390 772 388 772 q 439 752 419 772 q 458 701 458 732 q 436 648 458 669 q 383 626 414 626 q 322 655 347 626 q 297 732 297 683 z "},"”":{"ha":542,"x_min":79,"x_max":467,"o":"m 467 835 q 435 717 467 774 q 354 625 404 661 l 303 668 q 362 727 336 690 q 392 797 388 764 q 374 794 389 794 q 325 815 344 794 q 306 865 306 835 q 328 918 306 896 q 381 940 350 940 q 442 912 417 940 q 467 835 467 883 m 244 835 q 213 717 244 774 q 132 625 182 661 l 79 668 q 139 727 113 690 q 169 797 165 764 q 150 794 164 794 q 103 815 122 794 q 83 865 83 835 q 105 918 83 896 q 157 940 126 940 q 219 912 194 940 q 244 835 244 883 z "},"„":{"ha":542,"x_min":79,"x_max":467,"o":"m 244 33 q 213 -84 244 -28 q 132 -176 182 -140 l 79 -133 q 140 -74 114 -111 q 169 -4 165 -37 q 150 -7 164 -7 q 103 13 122 -7 q 83 64 83 33 q 105 117 83 94 q 157 139 126 139 q 219 110 194 139 q 244 33 244 82 m 467 33 q 435 -84 467 -28 q 354 -176 404 -140 l 303 -133 q 362 -74 336 -111 q 392 -4 388 -37 q 374 -7 389 -7 q 325 13 344 -7 q 306 64 306 33 q 328 117 306 94 q 381 139 350 139 q 442 110 417 139 q 467 33 467 82 z "},"†":{"ha":365,"x_min":32,"x_max":333,"o":"m 333 738 l 210 743 l 215 454 l 149 454 l 156 743 l 32 738 l 32 797 l 156 793 l 149 940 l 215 940 l 210 793 l 333 797 l 333 738 z "},"‡":{"ha":365,"x_min":32,"x_max":333,"o":"m 333 797 l 333 738 l 210 743 l 210 447 l 333 453 l 333 393 l 210 397 l 215 250 l 149 250 l 154 397 l 32 393 l 32 453 l 154 447 l 154 743 l 32 738 l 32 797 l 154 793 l 149 940 l 215 940 l 210 793 l 333 797 z "},"•":{"ha":497,"x_min":100,"x_max":400,"o":"m 356 442 q 378 419 356 442 q 400 336 400 397 q 356 231 400 275 q 250 188 311 188 q 144 231 189 188 q 100 336 100 275 q 144 442 100 397 q 250 486 189 486 q 356 442 311 486 z "},"…":{"ha":960,"x_min":83,"x_max":875,"o":"m 236 63 q 213 9 236 32 q 160 -14 190 -14 q 106 9 129 -14 q 83 63 83 32 q 106 117 83 94 q 160 139 128 139 q 214 117 192 139 q 236 63 236 94 m 556 63 q 533 9 556 32 q 479 -14 510 -14 q 426 9 449 -14 q 403 63 403 32 q 425 117 403 94 q 479 139 447 139 q 533 117 511 139 q 556 63 556 94 m 875 63 q 853 9 875 32 q 800 -14 831 -14 q 747 9 769 -14 q 724 63 724 32 q 747 117 724 94 q 800 139 769 139 q 853 117 831 139 q 875 63 875 94 z "},"‰":{"ha":1506,"x_min":43,"x_max":1463,"o":"m 490 710 q 428 548 490 613 q 267 483 365 483 q 106 548 168 483 q 43 710 43 613 q 106 875 43 810 q 267 940 168 940 q 428 875 365 940 q 490 710 490 810 m 847 926 l 254 0 l 178 0 l 769 926 l 847 926 m 910 375 q 941 342 910 375 q 972 211 972 310 q 910 48 972 113 q 750 -17 849 -17 q 589 49 651 -17 q 526 211 526 114 q 589 375 526 310 q 750 440 651 440 q 910 375 847 440 m 407 710 q 368 828 407 782 q 267 875 329 875 q 166 828 206 875 q 126 710 126 782 q 166 595 126 642 q 267 549 206 549 q 367 595 328 549 q 407 710 407 642 m 890 211 q 851 328 890 282 q 750 375 813 375 q 648 328 688 375 q 608 211 608 282 q 648 95 608 142 q 750 49 688 49 q 851 95 811 49 q 890 211 890 142 m 1463 211 q 1400 49 1463 114 q 1239 -17 1338 -17 q 1078 49 1140 -17 q 1015 211 1015 114 q 1078 375 1015 310 q 1239 440 1140 440 q 1400 375 1338 440 q 1463 211 1463 310 m 1379 211 q 1340 328 1379 282 q 1239 375 1301 375 q 1138 328 1176 375 q 1099 211 1099 282 q 1138 95 1099 142 q 1239 49 1178 49 q 1340 95 1300 49 q 1379 211 1379 142 z "},"‹":{"ha":410,"x_min":42,"x_max":368,"o":"m 368 88 l 264 88 l 42 338 l 264 583 l 368 583 l 146 338 l 368 88 z "},"›":{"ha":410,"x_min":42,"x_max":368,"o":"m 368 338 l 146 88 l 42 88 l 264 338 l 42 583 l 146 583 l 368 338 z "},"⁄":{"ha":193,"x_min":-237,"x_max":431,"o":"m 431 926 l -162 0 l -237 0 l 354 926 l 431 926 z "},"∕":{"ha":193,"x_min":-237,"x_max":431,"o":"m 431 926 l -162 0 l -237 0 l 354 926 l 431 926 z "},"⁰":{"ha":539,"x_min":46,"x_max":494,"o":"m 438 1063 q 466 1020 438 1063 q 494 863 494 978 q 438 661 494 747 q 269 575 381 575 q 102 660 158 575 q 46 863 46 746 q 102 1064 46 979 q 269 1149 158 1149 q 438 1063 381 1149 m 374 706 q 391 737 374 706 q 408 863 408 768 q 374 1019 408 957 q 269 1081 340 1081 q 164 1019 197 1081 q 131 863 131 957 q 165 706 131 768 q 269 643 199 643 q 374 706 340 643 z "},"⁴":{"ha":539,"x_min":54,"x_max":489,"o":"m 489 724 l 410 724 l 410 585 l 326 585 l 326 724 l 54 724 l 54 786 l 294 1140 l 410 1140 l 410 792 l 489 792 l 489 724 m 326 792 l 326 1067 l 138 792 l 326 792 z "},"⁵":{"ha":539,"x_min":61,"x_max":478,"o":"m 424 890 q 451 866 424 890 q 478 760 478 843 q 418 626 478 676 q 267 575 358 575 q 61 665 129 575 l 110 719 q 267 643 168 643 q 360 676 324 643 q 396 757 396 708 q 361 840 396 808 q 269 872 326 872 q 138 818 193 872 l 78 840 l 78 1140 l 440 1140 l 440 1072 l 163 1072 l 163 886 q 294 936 213 936 q 424 890 371 936 z "},"⁶":{"ha":539,"x_min":53,"x_max":488,"o":"m 488 758 q 431 628 488 682 q 282 575 374 575 q 110 656 167 575 q 53 863 53 738 q 115 1067 53 986 q 294 1149 178 1149 q 457 1085 393 1149 l 417 1026 q 294 1081 367 1081 q 178 1022 218 1081 q 136 878 138 963 q 138 854 136 863 q 203 913 160 888 q 296 939 247 939 q 433 892 378 939 q 488 758 488 844 m 403 756 q 367 842 403 813 q 275 872 331 872 q 199 851 236 872 q 139 796 163 831 q 178 688 143 733 q 279 643 213 643 q 369 678 336 643 q 403 756 403 713 z "},"⁷":{"ha":503,"x_min":46,"x_max":449,"o":"m 449 1083 l 218 585 l 125 585 l 356 1072 l 46 1072 l 46 1140 l 449 1140 l 449 1083 z "},"⁸":{"ha":539,"x_min":57,"x_max":482,"o":"m 482 726 q 421 615 482 654 q 269 575 360 575 q 118 615 179 575 q 57 726 57 654 q 97 818 57 779 q 197 871 138 857 q 103 919 140 885 q 67 1003 67 953 q 127 1112 67 1075 q 269 1149 188 1149 q 412 1112 351 1149 q 472 1003 472 1075 q 435 919 472 953 q 342 871 399 885 q 442 818 401 857 q 482 726 482 779 m 389 993 q 356 1059 389 1036 q 269 1082 322 1082 q 183 1058 217 1082 q 149 993 149 1035 q 269 899 149 929 q 389 993 389 926 m 399 733 q 354 808 399 782 q 269 840 310 835 q 184 808 229 835 q 139 733 139 782 q 177 666 139 692 q 269 640 215 640 q 361 666 324 640 q 399 733 399 692 z "},"⁹":{"ha":539,"x_min":53,"x_max":488,"o":"m 53 965 q 110 1096 53 1043 q 258 1149 167 1149 q 431 1067 374 1149 q 488 861 488 986 q 424 656 488 738 q 244 575 361 575 q 83 639 144 575 l 124 697 q 244 643 171 643 q 361 702 321 643 q 403 847 401 761 l 403 869 q 336 810 379 836 q 244 785 293 785 q 108 832 163 785 q 53 965 53 879 m 136 968 q 172 881 136 911 q 264 851 208 851 q 401 929 349 851 q 362 1036 396 992 q 263 1081 328 1081 q 170 1046 204 1081 q 136 968 136 1011 z "},"⁽":{"ha":224,"x_min":36,"x_max":210,"o":"m 210 517 l 161 494 q 36 863 36 649 q 161 1231 36 1075 l 210 1208 q 122 863 122 1038 q 210 517 122 688 z "},"⁾":{"ha":224,"x_min":32,"x_max":206,"o":"m 206 863 q 79 494 206 651 l 32 517 q 119 863 119 688 q 32 1208 119 1038 l 79 1231 q 172 1060 139 1157 q 206 863 206 963 z "},"ⁿ":{"ha":553,"x_min":83,"x_max":469,"o":"m 469 453 l 389 453 l 389 732 q 292 833 389 833 q 219 815 254 833 q 164 769 185 796 l 164 453 l 83 453 l 83 889 l 164 889 l 164 828 q 324 900 231 900 q 437 862 404 900 q 469 751 469 824 l 469 453 z "},"₀":{"ha":539,"x_min":46,"x_max":494,"o":"m 438 276 q 466 233 438 276 q 494 75 494 190 q 438 -126 494 -40 q 269 -212 381 -212 q 102 -127 158 -212 q 46 75 46 -42 q 102 276 46 192 q 269 361 158 361 q 438 276 381 361 m 374 -82 q 391 -51 374 -82 q 408 75 408 -19 q 374 231 408 169 q 269 293 340 293 q 164 231 197 293 q 131 75 131 169 q 165 -82 131 -19 q 269 -144 199 -144 q 374 -82 340 -144 z "},"₁":{"ha":326,"x_min":19,"x_max":243,"o":"m 243 -203 l 160 -203 l 160 244 l 68 149 l 19 200 l 169 353 l 243 353 l 243 -203 z "},"₂":{"ha":539,"x_min":68,"x_max":474,"o":"m 474 -203 l 69 -203 l 69 -140 q 315 56 243 -15 q 388 192 388 128 q 353 267 388 242 q 269 293 318 293 q 179 272 221 293 q 114 221 138 251 l 68 274 q 272 361 138 361 q 413 319 356 361 q 471 197 471 278 q 401 44 471 121 q 192 -135 332 -33 l 474 -135 l 474 -203 z "},"₃":{"ha":539,"x_min":58,"x_max":476,"o":"m 476 -51 q 420 -168 476 -124 q 267 -212 364 -212 q 58 -122 124 -212 l 104 -69 q 265 -144 164 -144 q 359 -118 325 -144 q 393 -47 393 -92 q 249 49 393 49 q 193 47 201 49 l 193 117 q 249 115 203 115 q 385 204 385 115 q 349 269 385 246 q 260 293 314 293 q 108 226 171 293 l 65 275 q 268 361 142 361 q 412 321 357 361 q 467 213 467 281 q 429 124 467 157 q 343 85 392 92 q 434 44 392 79 q 476 -51 476 8 z "},"₄":{"ha":539,"x_min":54,"x_max":489,"o":"m 489 -64 l 410 -64 l 410 -203 l 326 -203 l 326 -64 l 54 -64 l 54 -1 l 294 353 l 410 353 l 410 4 l 489 4 l 489 -64 m 326 4 l 326 279 l 138 4 l 326 4 z "},"₅":{"ha":539,"x_min":61,"x_max":478,"o":"m 424 102 q 451 79 424 102 q 478 -28 478 56 q 418 -162 478 -111 q 267 -212 358 -212 q 61 -122 129 -212 l 110 -68 q 267 -144 168 -144 q 360 -112 324 -144 q 396 -31 396 -79 q 361 53 396 21 q 269 85 326 85 q 138 31 193 85 l 78 53 l 78 353 l 440 353 l 440 285 l 163 285 l 163 99 q 294 149 213 149 q 424 102 371 149 z "},"₆":{"ha":539,"x_min":53,"x_max":488,"o":"m 488 -29 q 431 -159 488 -106 q 282 -212 374 -212 q 110 -131 167 -212 q 53 75 53 -50 q 115 280 53 199 q 294 361 178 361 q 457 297 393 361 l 417 239 q 294 293 367 293 q 178 234 218 293 q 136 90 138 175 q 138 67 136 75 q 203 126 160 100 q 296 151 247 151 q 433 104 378 151 q 488 -29 488 57 m 403 -32 q 367 55 403 25 q 275 85 331 85 q 199 64 236 85 q 139 8 163 43 q 178 -99 143 -54 q 279 -144 213 -144 q 369 -110 336 -144 q 403 -32 403 -75 z "},"₇":{"ha":503,"x_min":46,"x_max":449,"o":"m 449 296 l 218 -203 l 125 -203 l 356 285 l 46 285 l 46 353 l 449 353 l 449 296 z "},"₈":{"ha":539,"x_min":57,"x_max":482,"o":"m 482 -61 q 421 -173 482 -133 q 269 -212 360 -212 q 118 -173 179 -212 q 57 -61 57 -133 q 97 31 57 -8 q 197 83 138 69 q 103 131 140 97 q 67 215 67 165 q 127 324 67 288 q 269 361 188 361 q 412 324 351 361 q 472 215 472 288 q 435 131 472 165 q 342 83 399 97 q 442 31 401 69 q 482 -61 482 -8 m 389 206 q 356 272 389 249 q 269 294 322 294 q 183 271 217 294 q 149 206 149 247 q 269 111 149 142 q 389 206 389 139 m 399 -54 q 354 21 399 -6 q 269 53 310 47 q 184 21 229 47 q 139 -54 139 -6 q 177 -122 139 -96 q 269 -147 215 -147 q 361 -122 324 -147 q 399 -54 399 -96 z "},"₉":{"ha":539,"x_min":53,"x_max":488,"o":"m 53 178 q 110 308 53 256 q 258 361 167 361 q 431 280 374 361 q 488 74 488 199 q 424 -131 488 -50 q 244 -212 361 -212 q 83 -149 144 -212 l 124 -90 q 244 -144 171 -144 q 361 -85 321 -144 q 403 60 401 -26 l 403 82 q 336 23 379 49 q 244 -3 293 -3 q 108 44 163 -3 q 53 178 53 92 m 136 181 q 172 94 136 124 q 264 64 208 64 q 401 142 349 64 q 362 249 396 204 q 263 293 328 293 q 170 258 204 293 q 136 181 136 224 z "},"₍":{"ha":224,"x_min":36,"x_max":210,"o":"m 210 -271 l 161 -293 q 36 75 36 -139 q 161 443 36 288 l 210 421 q 122 75 122 250 q 210 -271 122 -100 z "},"₎":{"ha":224,"x_min":32,"x_max":206,"o":"m 206 75 q 79 -293 206 -136 l 32 -271 q 119 75 119 -100 q 32 421 119 250 l 79 443 q 172 272 139 369 q 206 75 206 175 z "},"₡":{"ha":946,"x_min":76,"x_max":906,"o":"m 553 -17 q 522 -15 532 -17 l 482 -139 l 411 -139 l 454 -7 q 346 25 393 4 l 292 -139 l 222 -139 l 288 57 q 133 225 189 119 q 76 463 76 331 q 213 808 76 674 q 553 942 350 942 q 568 941 558 942 q 583 940 578 940 l 625 1067 l 694 1067 l 649 932 q 756 893 704 921 l 814 1067 l 883 1067 l 813 856 q 904 758 860 819 l 808 704 q 775 744 792 728 l 557 86 q 701 124 633 88 q 808 221 768 161 l 906 168 q 553 -17 771 -17 m 196 463 q 325 167 196 276 l 549 839 q 296 731 396 836 q 196 463 196 626 m 381 128 q 488 92 426 103 l 721 789 q 615 832 669 821 l 381 128 z "},"₣":{"ha":779,"x_min":14,"x_max":729,"o":"m 238 0 l 122 0 l 122 190 l 14 190 l 14 257 l 122 257 l 122 926 l 729 926 l 729 824 l 238 824 l 238 525 l 719 525 l 719 422 l 238 422 l 238 257 l 518 257 l 518 190 l 238 190 l 238 0 z "},"₤":{"ha":719,"x_min":28,"x_max":706,"o":"m 28 456 l 28 519 l 115 519 q 67 667 67 588 q 158 860 67 781 q 378 940 250 940 q 546 899 472 940 q 658 785 619 858 l 565 729 q 499 810 547 776 q 389 843 450 843 q 249 794 307 843 q 192 665 192 746 q 246 519 192 589 l 511 519 l 511 456 l 297 456 q 346 358 336 400 l 511 358 l 511 294 l 350 294 q 246 129 343 199 q 318 142 283 142 q 425 113 364 142 q 524 85 486 85 q 603 102 567 85 q 656 140 640 119 l 706 47 q 518 -18 638 -18 q 386 14 453 -18 q 269 46 319 46 q 106 -10 211 46 l 65 78 q 201 172 154 117 q 249 289 249 226 l 249 294 l 28 294 l 28 358 l 235 358 q 167 456 222 389 l 28 456 z "},"₦":{"ha":1013,"x_min":14,"x_max":997,"o":"m 889 0 l 778 0 l 532 336 l 238 336 l 238 0 l 122 0 l 122 336 l 14 336 l 14 403 l 122 403 l 122 533 l 14 533 l 14 600 l 122 600 l 122 926 l 240 926 l 481 600 l 774 600 l 774 926 l 889 926 l 889 600 l 997 600 l 997 533 l 889 533 l 889 403 l 997 403 l 997 336 l 889 336 l 889 0 m 238 533 l 238 403 l 483 403 l 388 533 l 238 533 m 529 533 l 626 403 l 774 403 l 774 533 l 529 533 m 238 739 l 238 600 l 339 600 l 238 739 m 675 336 l 774 203 l 774 336 l 675 336 z "},"₧":{"ha":889,"x_min":14,"x_max":882,"o":"m 882 613 l 782 613 q 693 437 769 506 q 494 368 617 368 l 238 368 l 238 0 l 122 0 l 122 613 l 14 613 l 14 685 l 122 685 l 122 926 l 494 926 q 693 858 617 926 q 782 685 769 789 l 882 685 l 882 613 m 481 471 q 602 509 553 471 q 663 613 651 547 l 238 613 l 238 471 l 481 471 m 238 824 l 238 685 l 661 685 q 601 785 650 747 q 481 824 551 824 l 238 824 z "},"₨":{"ha":1415,"x_min":108,"x_max":1350,"o":"m 781 0 l 644 0 l 410 368 l 224 368 l 224 0 l 108 0 l 108 926 l 481 926 q 691 850 610 926 q 772 647 772 774 q 702 457 772 528 q 531 378 632 386 l 781 0 m 467 469 q 601 519 549 469 q 653 647 653 569 q 601 775 653 726 q 467 824 549 824 l 224 824 l 224 469 l 467 469 m 1088 -17 q 817 89 918 -17 l 869 164 q 965 96 904 124 q 1090 68 1025 68 q 1208 100 1165 68 q 1250 183 1250 132 q 1207 253 1250 228 q 1103 292 1164 279 q 981 323 1042 306 q 878 383 921 340 q 835 494 835 425 q 901 632 835 576 q 1083 688 968 688 q 1332 590 1238 688 l 1283 518 q 1083 603 1213 603 q 975 573 1015 603 q 935 497 935 543 q 965 442 935 464 q 1042 410 996 419 q 1142 385 1089 400 q 1242 351 1196 369 q 1319 290 1289 332 q 1350 186 1350 247 q 1281 40 1350 97 q 1088 -17 1213 -17 z "},"₩":{"ha":1226,"x_min":19,"x_max":1207,"o":"m 942 0 l 817 0 l 724 336 l 500 336 l 408 0 l 283 0 l 188 336 l 28 336 l 28 403 l 168 403 l 131 533 l 28 533 l 28 600 l 113 600 l 19 926 l 147 926 l 233 600 l 475 600 l 565 926 l 661 926 l 750 600 l 990 600 l 1078 926 l 1207 926 l 1113 600 l 1197 600 l 1197 533 l 1094 533 l 1057 403 l 1197 403 l 1197 336 l 1038 336 l 942 0 m 251 533 l 286 403 l 421 403 l 457 533 l 251 533 m 768 533 l 804 403 l 939 403 l 974 533 l 768 533 m 554 533 l 518 403 l 706 403 l 671 533 l 554 533 m 304 336 l 353 154 l 403 336 l 304 336 m 824 336 l 874 154 l 921 336 l 824 336 m 613 747 l 572 600 l 653 600 l 613 747 z "},"₪":{"ha":1140,"x_min":104,"x_max":1036,"o":"m 449 764 q 761 469 761 764 l 761 225 l 660 225 l 660 463 q 449 672 660 672 l 206 672 l 206 0 l 104 0 l 104 764 l 449 764 m 724 0 l 379 0 l 379 538 l 481 538 l 481 92 l 724 92 q 935 301 935 92 l 935 764 l 1036 764 l 1036 294 q 724 0 1036 0 z "},"€":{"ha":965,"x_min":43,"x_max":931,"o":"m 578 -17 q 284 77 410 -17 q 118 329 158 171 l 43 329 l 43 401 l 104 401 q 101 463 101 440 q 104 526 101 485 l 43 526 l 43 600 l 119 600 q 286 849 161 756 q 578 942 411 942 q 929 758 801 942 l 833 704 q 724 802 793 765 q 578 839 656 839 q 369 774 460 839 q 242 600 279 710 l 661 600 l 661 526 l 225 526 q 221 463 221 494 q 225 401 221 431 l 661 401 l 661 329 l 242 329 q 369 152 278 218 q 578 86 460 86 q 724 124 656 86 q 833 221 793 161 l 931 168 q 578 -17 796 -17 z "},"ℓ":{"ha":660,"x_min":106,"x_max":614,"o":"m 106 701 l 106 140 q 254 -17 106 -17 q 378 26 335 -17 l 347 97 q 276 68 315 68 q 210 156 210 68 l 210 390 l 446 549 q 570 653 526 603 q 614 765 614 703 q 544 890 614 840 q 369 940 474 940 q 179 872 253 940 q 106 701 106 803 m 407 626 l 210 494 l 210 700 q 255 818 210 774 q 368 863 300 863 q 470 834 426 863 q 514 761 514 806 q 489 694 514 724 q 407 626 464 665 z "},"№":{"ha":1546,"x_min":108,"x_max":1490,"o":"m 875 0 l 764 0 l 224 739 l 224 0 l 108 0 l 108 926 l 226 926 l 760 203 l 760 926 l 875 926 l 875 0 m 1264 486 q 1101 553 1164 486 q 1039 715 1039 619 q 1101 878 1039 813 q 1264 944 1163 944 q 1428 878 1367 944 q 1490 715 1490 813 q 1428 552 1490 618 q 1264 486 1367 486 m 1264 553 q 1369 599 1331 553 q 1408 715 1408 646 q 1369 831 1408 785 q 1264 876 1331 876 q 1160 831 1199 876 q 1122 715 1122 785 q 1160 599 1122 644 q 1264 553 1199 553 z "},"℗":{"ha":1081,"x_min":61,"x_max":1019,"o":"m 879 802 q 949 732 879 802 q 1019 464 1019 661 q 879 126 1019 267 q 540 -15 739 -15 q 201 126 342 -15 q 61 464 61 267 q 201 802 61 661 q 540 943 342 943 q 879 802 739 943 m 848 156 q 912 220 848 156 q 976 464 976 285 q 848 772 976 643 q 540 900 719 900 q 233 772 361 900 q 104 464 104 643 q 233 156 104 285 q 540 28 361 28 q 848 156 719 28 m 764 582 q 713 467 764 510 q 589 424 663 424 l 433 424 l 433 182 l 382 182 l 382 744 l 589 744 q 713 700 663 744 q 764 582 764 656 m 711 582 q 677 665 711 635 q 589 696 643 696 l 433 696 l 433 471 l 589 471 q 677 501 643 471 q 711 582 711 532 z "},"℠":{"ha":661,"x_min":21,"x_max":610,"o":"m 610 621 l 571 621 l 571 874 l 467 621 l 456 621 l 351 874 l 351 621 l 313 621 l 313 926 l 372 926 l 461 704 l 550 926 l 610 926 l 610 621 m 261 703 q 230 635 261 660 q 140 610 199 610 q 21 660 64 610 l 46 689 q 139 644 85 644 q 215 699 215 644 q 185 740 215 725 q 121 761 156 756 q 56 788 86 767 q 26 847 26 810 q 58 910 26 886 q 138 935 89 935 q 251 890 214 935 l 226 864 q 139 901 196 901 q 91 888 110 901 q 72 851 72 874 q 101 814 72 828 q 167 794 131 800 q 232 765 203 788 q 261 703 261 743 z "},"™":{"ha":631,"x_min":24,"x_max":582,"o":"m 582 621 l 543 621 l 543 874 l 439 621 l 428 621 l 324 874 l 324 621 l 285 621 l 285 926 l 344 926 l 433 704 l 522 926 l 582 926 l 582 621 m 235 890 l 149 890 l 149 621 l 110 621 l 110 890 l 24 890 l 24 926 l 235 926 l 235 890 z "},"℮":{"ha":1169,"x_min":43,"x_max":1126,"o":"m 1126 450 l 249 450 q 242 443 242 450 l 242 179 q 254 147 242 160 q 588 4 390 4 q 935 164 797 4 l 1014 164 q 826 26 939 76 q 585 -25 714 -25 q 202 118 361 -25 q 43 463 43 261 q 202 807 43 664 q 585 950 361 950 q 967 807 808 950 q 1126 463 1126 664 l 1126 450 m 928 485 l 928 750 q 914 783 928 769 q 588 921 779 921 q 256 779 393 921 q 242 746 242 765 l 242 485 q 249 476 242 476 l 922 476 q 928 485 928 476 z "},"⅓":{"ha":1121,"x_min":19,"x_max":1058,"o":"m 819 926 l 226 0 l 151 0 l 743 926 l 819 926 m 1058 151 q 1002 35 1058 79 q 849 -10 946 -10 q 640 81 706 -10 l 686 133 q 847 58 746 58 q 941 85 907 58 q 975 156 975 111 q 831 251 975 251 q 775 250 783 251 l 775 319 q 831 318 785 318 q 967 407 967 318 q 931 472 967 449 q 842 496 896 496 q 690 429 753 496 l 647 478 q 850 564 724 564 q 994 524 939 564 q 1049 415 1049 483 q 1011 327 1049 360 q 925 288 974 294 q 1016 247 974 282 q 1058 151 1058 211 m 243 371 l 160 371 l 160 818 l 68 722 l 19 774 l 169 926 l 243 926 l 243 371 z "},"⅔":{"ha":1271,"x_min":68,"x_max":1208,"o":"m 969 926 l 376 0 l 301 0 l 893 926 l 969 926 m 1208 151 q 1152 35 1208 79 q 999 -10 1096 -10 q 790 81 856 -10 l 836 133 q 997 58 896 58 q 1091 85 1057 58 q 1125 156 1125 111 q 981 251 1125 251 q 925 250 933 251 l 925 319 q 981 318 935 318 q 1117 407 1117 318 q 1081 472 1117 449 q 992 496 1046 496 q 840 429 903 496 l 797 478 q 1000 564 874 564 q 1144 524 1089 564 q 1199 415 1199 483 q 1161 327 1199 360 q 1075 288 1124 294 q 1166 247 1124 282 q 1208 151 1208 211 m 474 371 l 69 371 l 69 433 q 315 630 243 558 q 388 765 388 701 q 353 841 388 815 q 269 867 318 867 q 179 846 221 867 q 114 794 138 825 l 68 847 q 272 935 138 935 q 413 893 356 935 q 471 771 471 851 q 401 617 471 694 q 192 439 332 540 l 474 439 l 474 371 z "},"⅛":{"ha":1121,"x_min":19,"x_max":1064,"o":"m 819 926 l 226 0 l 151 0 l 743 926 l 819 926 m 1064 142 q 1003 30 1064 69 q 851 -10 942 -10 q 700 30 761 -10 q 639 142 639 69 q 679 233 639 194 q 779 286 719 272 q 685 334 722 300 q 649 418 649 368 q 709 527 649 490 q 851 564 769 564 q 994 527 933 564 q 1054 418 1054 490 q 1017 334 1054 368 q 924 286 981 300 q 1024 233 983 272 q 1064 142 1064 194 m 971 408 q 938 474 971 451 q 851 497 904 497 q 765 474 799 497 q 731 408 731 450 q 851 314 731 344 q 971 408 971 342 m 981 149 q 936 224 981 197 q 851 256 892 250 q 766 224 811 250 q 721 149 721 197 q 759 81 721 107 q 851 56 797 56 q 943 81 906 56 q 981 149 981 107 m 243 371 l 160 371 l 160 818 l 68 722 l 19 774 l 169 926 l 243 926 l 243 371 z "},"⅜":{"ha":1271,"x_min":58,"x_max":1214,"o":"m 969 926 l 376 0 l 301 0 l 893 926 l 969 926 m 1214 142 q 1153 30 1214 69 q 1001 -10 1092 -10 q 850 30 911 -10 q 789 142 789 69 q 829 233 789 194 q 929 286 869 272 q 835 334 872 300 q 799 418 799 368 q 859 527 799 490 q 1001 564 919 564 q 1144 527 1083 564 q 1204 418 1204 490 q 1167 334 1204 368 q 1074 286 1131 300 q 1174 233 1133 272 q 1214 142 1214 194 m 1121 408 q 1088 474 1121 451 q 1001 497 1054 497 q 915 474 949 497 q 881 408 881 450 q 1001 314 881 344 q 1121 408 1121 342 m 1131 149 q 1086 224 1131 197 q 1001 256 1042 250 q 916 224 961 250 q 871 149 871 197 q 909 81 871 107 q 1001 56 947 56 q 1093 81 1056 56 q 1131 149 1131 107 m 476 522 q 420 406 476 450 q 267 361 364 361 q 58 451 124 361 l 104 504 q 265 429 164 429 q 359 456 325 429 q 393 526 393 482 q 249 622 393 622 q 193 621 201 622 l 193 690 q 249 689 203 689 q 385 778 385 689 q 349 843 385 819 q 260 867 314 867 q 108 800 171 867 l 65 849 q 268 935 142 935 q 412 894 357 935 q 467 786 467 854 q 429 698 467 731 q 343 658 392 665 q 434 617 392 653 q 476 522 476 582 z "},"⅝":{"ha":1267,"x_min":61,"x_max":1210,"o":"m 965 926 l 372 0 l 297 0 l 889 926 l 965 926 m 1210 142 q 1149 30 1210 69 q 997 -10 1088 -10 q 846 30 907 -10 q 785 142 785 69 q 825 233 785 194 q 925 286 865 272 q 831 334 868 300 q 794 418 794 368 q 855 527 794 490 q 997 564 915 564 q 1140 527 1079 564 q 1200 418 1200 490 q 1163 334 1200 368 q 1069 286 1126 300 q 1169 233 1129 272 q 1210 142 1210 194 m 1117 408 q 1083 474 1117 451 q 997 497 1050 497 q 910 474 944 497 q 876 408 876 450 q 997 314 876 344 q 1117 408 1117 342 m 1126 149 q 1082 224 1126 197 q 997 256 1038 250 q 912 224 957 250 q 867 149 867 197 q 905 81 867 107 q 997 56 943 56 q 1089 81 1051 56 q 1126 149 1126 107 m 424 676 q 451 652 424 676 q 478 546 478 629 q 418 412 478 463 q 267 361 358 361 q 61 451 129 361 l 110 506 q 267 429 168 429 q 360 462 324 429 q 396 543 396 494 q 361 626 396 594 q 269 658 326 658 q 138 604 193 658 l 78 626 l 78 926 l 440 926 l 440 858 l 163 858 l 163 672 q 294 722 213 722 q 424 676 371 722 z "},"⅞":{"ha":1153,"x_min":46,"x_max":1096,"o":"m 851 926 l 258 0 l 183 0 l 775 926 l 851 926 m 1096 142 q 1035 30 1096 69 q 883 -10 974 -10 q 732 30 793 -10 q 671 142 671 69 q 711 233 671 194 q 811 286 751 272 q 717 334 754 300 q 681 418 681 368 q 741 527 681 490 q 883 564 801 564 q 1026 527 965 564 q 1086 418 1086 490 q 1049 334 1086 368 q 956 286 1013 300 q 1056 233 1015 272 q 1096 142 1096 194 m 1003 408 q 969 474 1003 451 q 883 497 936 497 q 797 474 831 497 q 763 408 763 450 q 883 314 763 344 q 1003 408 1003 342 m 1013 149 q 968 224 1013 197 q 883 256 924 250 q 798 224 843 250 q 753 149 753 197 q 791 81 753 107 q 883 56 829 56 q 975 81 938 56 q 1013 149 1013 107 m 449 869 l 218 371 l 125 371 l 356 858 l 46 858 l 46 926 l 449 926 l 449 869 z "},"←":{"ha":808,"x_min":0,"x_max":747,"o":"m 747 293 l 374 293 l 390 113 l 0 397 l 390 681 l 374 501 l 747 501 l 747 293 z "},"↑":{"ha":808,"x_min":119,"x_max":688,"o":"m 300 24 l 300 397 l 119 381 l 404 771 l 688 381 l 508 397 l 508 24 l 300 24 z "},"→":{"ha":808,"x_min":65,"x_max":811,"o":"m 811 397 l 421 113 l 438 293 l 65 293 l 65 501 l 438 501 l 421 681 l 811 397 z "},"↓":{"ha":808,"x_min":121,"x_max":689,"o":"m 508 771 l 508 397 l 689 414 l 404 24 l 121 414 l 300 397 l 300 771 l 508 771 z "},"∂":{"ha":794,"x_min":65,"x_max":729,"o":"m 397 -17 q 156 81 247 -17 q 65 325 65 179 q 151 567 65 469 q 371 665 238 665 q 586 551 508 665 q 455 733 544 646 q 240 881 365 819 l 318 946 q 609 697 489 856 q 729 346 729 539 q 639 85 729 186 q 397 -17 549 -17 m 235 148 q 265 112 235 148 q 397 76 294 76 q 560 148 500 76 q 619 325 619 219 q 560 501 619 429 q 397 572 500 572 q 235 501 294 572 q 175 325 175 429 q 235 148 175 219 z "},"∏":{"ha":983,"x_min":44,"x_max":939,"o":"m 786 -125 l 671 -125 l 671 824 l 311 824 l 311 -125 l 196 -125 l 196 824 l 44 824 l 44 926 l 939 926 l 939 824 l 786 824 l 786 -125 z "},"∑":{"ha":800,"x_min":75,"x_max":725,"o":"m 536 415 l 219 824 l 725 824 l 725 926 l 76 926 l 76 825 l 396 414 l 75 -22 l 75 -125 l 725 -125 l 725 -22 l 214 -22 l 536 415 z "},"−":{"ha":693,"x_min":40,"x_max":653,"o":"m 653 428 l 40 428 l 40 500 l 653 500 l 653 428 z "},"√":{"ha":1007,"x_min":92,"x_max":963,"o":"m 593 0 l 513 0 l 332 454 l 117 369 l 92 439 l 378 549 l 554 108 l 881 926 l 963 926 l 593 0 z "},"∞":{"ha":911,"x_min":40,"x_max":871,"o":"m 256 236 q 96 305 151 236 q 40 465 40 374 q 95 627 40 558 q 256 696 150 696 q 373 653 321 696 q 456 543 425 610 q 538 653 486 610 q 657 696 590 696 q 817 628 763 696 q 871 465 871 560 q 816 305 871 374 q 657 236 761 236 q 538 279 590 236 q 456 389 486 322 q 373 279 425 322 q 256 236 321 236 m 650 310 q 755 353 717 310 q 793 465 793 397 q 755 578 793 535 q 650 622 717 622 q 490 465 550 622 q 650 310 550 310 m 263 310 q 422 465 363 310 q 357 577 397 532 q 263 622 317 622 q 157 578 196 622 q 118 465 118 535 q 157 353 118 397 q 263 310 196 310 z "},"∫":{"ha":483,"x_min":24,"x_max":460,"o":"m 108 -139 l 24 -139 l 24 -62 l 108 -62 q 174 -31 146 -62 q 201 49 201 1 l 201 879 q 253 1015 201 963 q 375 1067 306 1067 l 460 1067 l 460 990 l 375 990 q 309 959 336 990 q 282 881 282 928 l 282 47 q 230 -87 282 -35 q 108 -139 178 -139 z "},"≈":{"ha":693,"x_min":40,"x_max":653,"o":"m 40 293 l 40 375 q 193 329 106 329 q 339 369 258 329 q 499 410 419 410 q 653 372 582 410 l 653 290 q 499 338 585 338 q 353 297 433 338 q 193 256 272 256 q 40 293 108 256 m 40 556 l 40 638 q 193 592 106 592 q 339 632 258 592 q 499 672 419 672 q 653 635 582 672 l 653 553 q 499 599 588 599 q 353 558 433 599 q 193 518 272 518 q 40 556 108 518 z "},"≠":{"ha":693,"x_min":40,"x_max":653,"o":"m 171 129 l 96 129 l 200 293 l 40 293 l 40 367 l 246 367 l 369 561 l 40 561 l 40 635 l 417 635 l 521 797 l 597 797 l 493 635 l 653 635 l 653 561 l 446 561 l 322 367 l 653 367 l 653 293 l 275 293 l 171 129 z "},"≤":{"ha":693,"x_min":40,"x_max":653,"o":"m 653 138 l 40 440 l 40 514 l 653 818 l 653 731 l 129 476 l 653 225 l 653 138 m 653 0 l 40 0 l 40 74 l 653 74 l 653 0 z "},"≥":{"ha":693,"x_min":39,"x_max":653,"o":"m 653 440 l 40 138 l 40 225 l 563 476 l 40 731 l 40 818 l 653 514 l 653 440 m 651 0 l 39 0 l 39 74 l 651 74 l 651 0 z "},"⊲":{"ha":815,"x_min":75,"x_max":818,"o":"m 818 397 l 75 -32 l 75 826 l 818 397 z "},"⊳":{"ha":815,"x_min":0,"x_max":743,"o":"m 743 826 l 743 -32 l 0 397 l 743 826 z "},"⌘":{"ha":926,"x_min":58,"x_max":868,"o":"m 314 214 l 314 317 l 211 317 q 140 287 168 317 q 111 214 111 257 q 140 140 111 171 q 213 110 169 110 q 285 140 256 110 q 314 214 314 171 m 314 610 l 314 714 q 285 787 314 757 q 214 817 257 817 q 141 787 171 817 q 111 714 111 757 q 141 640 111 671 q 214 610 171 610 l 314 610 m 368 368 l 558 368 l 558 558 l 368 558 l 368 368 m 786 140 q 801 156 786 140 q 815 214 815 171 q 787 287 815 257 q 715 317 758 317 l 613 317 l 613 214 q 642 140 613 171 q 714 110 671 110 q 786 140 757 110 m 786 640 q 801 656 786 640 q 815 714 815 671 q 786 787 815 757 q 714 817 757 817 q 642 787 671 817 q 613 714 613 757 l 613 610 l 715 610 q 786 640 757 610 m 823 323 q 845 300 823 323 q 868 214 868 278 q 823 104 868 150 q 714 58 778 58 q 604 104 650 58 q 558 214 558 150 l 558 317 l 368 317 l 368 214 q 322 104 368 150 q 213 58 276 58 q 103 104 149 58 q 58 214 58 150 q 103 323 58 278 q 213 368 149 368 l 314 368 l 314 558 l 214 558 q 104 604 150 558 q 58 714 58 650 q 104 823 58 778 q 214 868 150 868 q 323 823 278 868 q 368 714 368 778 l 368 610 l 558 610 l 558 714 q 604 823 558 778 q 714 868 650 868 q 823 823 778 868 q 868 714 868 778 q 823 604 868 650 q 714 558 778 558 l 613 558 l 613 368 l 714 368 q 823 323 778 368 z "},"":{"ha":926,"x_min":58,"x_max":868,"o":"m 314 214 l 314 317 l 211 317 q 140 287 168 317 q 111 214 111 257 q 140 140 111 171 q 213 110 169 110 q 285 140 256 110 q 314 214 314 171 m 314 610 l 314 714 q 285 787 314 757 q 214 817 257 817 q 141 787 171 817 q 111 714 111 757 q 141 640 111 671 q 214 610 171 610 l 314 610 m 368 368 l 558 368 l 558 558 l 368 558 l 368 368 m 786 140 q 801 156 786 140 q 815 214 815 171 q 787 287 815 257 q 715 317 758 317 l 613 317 l 613 214 q 642 140 613 171 q 714 110 671 110 q 786 140 757 110 m 786 640 q 801 656 786 640 q 815 714 815 671 q 786 787 815 757 q 714 817 757 817 q 642 787 671 817 q 613 714 613 757 l 613 610 l 715 610 q 786 640 757 610 m 823 323 q 845 300 823 323 q 868 214 868 278 q 823 104 868 150 q 714 58 778 58 q 604 104 650 58 q 558 214 558 150 l 558 317 l 368 317 l 368 214 q 322 104 368 150 q 213 58 276 58 q 103 104 149 58 q 58 214 58 150 q 103 323 58 278 q 213 368 149 368 l 314 368 l 314 558 l 214 558 q 104 604 150 558 q 58 714 58 650 q 104 823 58 778 q 214 868 150 868 q 323 823 278 868 q 368 714 368 778 l 368 610 l 558 610 l 558 714 q 604 823 558 778 q 714 868 650 868 q 823 823 778 868 q 868 714 868 778 q 823 604 868 650 q 714 558 778 558 l 613 558 l 613 368 l 714 368 q 823 323 778 368 z "},"■":{"ha":918,"x_min":65,"x_max":858,"o":"m 858 0 l 65 0 l 65 794 l 858 794 l 858 0 z "},"▲":{"ha":856,"x_min":-3,"x_max":857,"o":"m 857 40 l -3 42 l 426 785 l 857 40 z "},"▼":{"ha":856,"x_min":-3,"x_max":857,"o":"m 857 708 l 426 -35 l -3 708 l 857 708 z "},"◊":{"ha":521,"x_min":26,"x_max":494,"o":"m 275 0 l 246 0 l 26 464 l 246 926 l 275 926 l 494 464 l 275 0 m 261 57 l 444 464 l 260 869 l 76 464 l 261 57 z "},"●":{"ha":965,"x_min":69,"x_max":894,"o":"m 774 688 q 834 627 774 688 q 894 396 894 567 q 774 104 894 225 q 482 -17 653 -17 q 190 104 311 -17 q 69 396 69 225 q 190 688 69 567 q 482 808 311 808 q 774 688 653 808 z "},"★":{"ha":1054,"x_min":0,"x_max":1054,"o":"m 1054 585 l 728 347 l 853 -35 l 526 201 l 201 -35 l 325 347 l 0 585 l 403 585 l 526 968 l 651 585 l 1054 585 z "},"☐":{"ha":918,"x_min":63,"x_max":856,"o":"m 856 0 l 63 0 l 63 794 l 856 794 l 856 0 m 776 74 l 776 722 l 142 722 l 142 74 l 776 74 z "},"☑":{"ha":918,"x_min":63,"x_max":940,"o":"m 940 969 l 844 794 l 856 794 l 856 0 l 63 0 l 63 794 l 760 794 l 876 1011 l 940 969 m 776 74 l 776 667 l 483 126 l 203 468 l 261 522 l 472 261 l 721 722 l 142 722 l 142 74 l 776 74 z "},"♦":{"ha":696,"x_min":0,"x_max":696,"o":"m 696 396 l 347 49 l 0 396 l 347 744 l 696 396 z "},"✓":{"ha":738,"x_min":0,"x_max":738,"o":"m 738 969 l 281 126 l 0 468 l 58 522 l 269 261 l 674 1011 l 738 969 z "},"":{"ha":1100,"x_min":22,"x_max":1014,"o":"m 238 0 l 133 0 l 133 579 l 22 579 l 22 671 l 133 671 l 133 722 q 186 883 133 825 q 328 940 239 940 q 469 889 414 940 l 426 822 q 344 854 390 854 q 238 722 238 854 l 238 671 l 374 671 l 374 579 l 238 579 l 238 0 m 632 0 l 528 0 l 528 579 l 417 579 l 417 671 l 528 671 l 528 722 q 581 883 528 825 q 722 940 635 940 q 825 918 785 940 l 799 839 q 739 854 772 854 q 632 722 632 854 l 632 671 l 768 671 l 768 579 l 632 579 l 632 0 m 994 787 q 984 777 994 787 q 944 767 974 767 q 894 787 915 767 q 874 836 874 807 q 894 886 874 865 q 944 907 915 907 q 994 886 974 907 q 1014 836 1014 865 q 994 787 1014 807 m 797 -272 q 651 -222 714 -272 l 688 -144 q 783 -186 729 -186 q 863 -156 833 -186 q 892 -65 892 -126 l 892 671 l 996 671 l 996 -65 q 944 -219 996 -165 q 797 -272 893 -272 z "},"":{"ha":707,"x_min":22,"x_max":621,"o":"m 238 0 l 133 0 l 133 579 l 22 579 l 22 671 l 133 671 l 133 722 q 187 883 133 825 q 328 940 240 940 q 431 918 390 940 l 404 839 q 344 854 378 854 q 238 722 238 854 l 238 671 l 374 671 l 374 579 l 238 579 l 238 0 m 601 787 q 591 777 601 787 q 551 767 581 767 q 501 787 522 767 q 481 836 481 807 q 501 886 481 865 q 551 907 522 907 q 601 886 581 907 q 621 836 621 865 q 601 787 621 807 m 404 -272 q 258 -222 321 -272 l 294 -144 q 390 -186 336 -186 q 469 -156 440 -186 q 499 -65 499 -126 l 499 671 l 603 671 l 603 -65 q 551 -219 603 -165 q 404 -272 500 -272 z "},"":{"ha":1219,"x_min":36,"x_max":1183,"o":"m 349 726 q 374 699 349 726 q 400 590 400 672 q 349 455 400 508 q 217 401 299 401 q 87 456 138 401 q 36 590 36 510 q 87 726 36 671 q 217 781 138 781 q 349 726 297 781 m 786 174 q 735 39 786 93 q 604 -15 683 -15 q 474 39 525 -15 q 422 174 422 93 q 474 310 422 256 q 604 364 525 364 q 735 310 683 364 q 786 174 786 256 m 714 764 l 181 0 l 108 0 l 639 764 l 714 764 m 297 499 q 313 517 297 499 q 328 590 328 535 q 297 683 328 646 q 217 719 265 719 q 138 682 169 719 q 107 590 107 644 q 138 499 107 536 q 217 463 169 463 q 297 499 267 463 m 715 174 q 685 266 715 229 q 604 303 654 303 q 524 266 554 303 q 493 174 493 229 q 524 83 493 119 q 604 46 556 46 q 684 83 653 46 q 715 174 715 119 m 1183 174 q 1133 39 1183 93 q 1001 -15 1082 -15 q 872 40 922 -15 q 821 174 821 96 q 872 310 821 256 q 1001 364 922 364 q 1133 310 1082 364 q 1183 174 1183 256 m 1113 174 q 1082 266 1113 229 q 1001 303 1051 303 q 922 266 953 303 q 892 174 892 229 q 922 83 892 119 q 1001 46 953 46 q 1081 83 1050 46 q 1113 174 1113 119 z "},"":{"ha":850,"x_min":71,"x_max":779,"o":"m 425 -17 q 218 60 303 -17 l 181 0 l 90 0 l 165 119 q 71 463 71 251 q 91 633 71 551 q 152 785 111 715 q 263 898 193 856 q 425 940 333 940 q 629 865 543 940 l 668 926 l 758 926 l 683 806 q 779 463 779 672 q 759 292 779 374 q 698 139 739 210 q 586 26 657 68 q 425 -17 515 -17 m 425 86 q 564 144 508 86 q 640 282 619 201 q 661 463 661 363 q 618 700 661 604 l 276 153 q 425 86 335 86 m 189 463 q 231 225 189 322 l 572 772 q 425 838 514 838 q 286 781 342 838 q 210 643 231 724 q 189 463 189 563 z "},"":{"ha":831,"x_min":61,"x_max":769,"o":"m 415 -17 q 253 26 324 -17 q 142 139 183 68 q 81 292 101 210 q 61 463 61 374 q 81 633 61 551 q 142 785 101 715 q 253 898 183 856 q 415 940 324 940 q 576 898 506 940 q 688 785 647 856 q 749 633 729 715 q 769 463 769 551 q 749 292 769 374 q 688 139 729 210 q 576 26 647 68 q 415 -17 506 -17 m 276 144 q 304 115 276 144 q 415 86 332 86 q 554 144 499 86 q 631 282 610 201 q 651 463 651 363 q 631 643 651 563 q 554 781 610 724 q 415 838 499 838 q 276 781 332 838 q 200 643 221 724 q 179 463 179 563 q 200 282 179 363 q 276 144 221 201 z "},"":{"ha":831,"x_min":94,"x_max":732,"o":"m 732 0 l 96 0 l 96 93 q 496 436 381 315 q 611 668 611 557 q 553 794 611 751 q 417 838 496 838 q 165 721 257 838 l 94 794 q 233 902 147 864 q 417 940 318 940 q 635 869 543 940 q 728 668 728 799 q 617 410 728 539 q 278 103 506 282 l 732 103 l 732 0 z "},"":{"ha":831,"x_min":85,"x_max":743,"o":"m 414 -17 q 217 26 303 -17 q 85 136 131 69 l 153 208 q 263 119 194 153 q 411 86 331 86 q 569 133 511 86 q 628 260 628 181 q 566 383 628 343 q 397 424 504 424 q 301 422 315 424 l 301 528 q 397 526 317 526 q 552 565 492 526 q 613 679 613 603 q 553 795 613 753 q 406 838 494 838 q 161 725 265 838 l 97 797 q 415 940 214 940 q 640 874 553 940 q 728 694 728 808 q 667 547 728 603 q 529 479 606 492 q 674 411 606 471 q 743 250 743 351 q 653 58 743 132 q 414 -17 564 -17 z "},"":{"ha":831,"x_min":71,"x_max":757,"o":"m 626 0 l 511 0 l 511 235 l 71 235 l 71 331 l 468 926 l 626 926 l 626 336 l 757 336 l 757 235 l 626 235 l 626 0 m 511 336 l 511 819 l 186 336 l 511 336 z "},"":{"ha":831,"x_min":97,"x_max":754,"o":"m 424 -17 q 97 132 210 -17 l 168 210 q 424 86 264 86 q 578 143 518 86 q 638 285 638 200 q 578 430 638 375 q 425 485 519 485 q 211 399 301 485 l 126 428 l 126 926 l 693 926 l 693 824 l 242 824 l 242 501 q 458 585 328 585 q 668 506 582 585 q 754 289 754 426 q 660 67 754 151 q 424 -17 567 -17 z "},"":{"ha":831,"x_min":81,"x_max":763,"o":"m 439 -17 q 274 22 344 -17 q 162 129 203 61 q 101 281 121 197 q 81 463 81 364 q 177 803 81 665 q 458 940 274 940 q 714 829 619 940 l 656 743 q 458 838 575 838 q 311 783 372 838 q 224 649 250 729 q 197 474 197 569 l 197 438 q 305 538 232 493 q 460 582 378 582 q 677 505 592 582 q 763 286 763 428 q 674 72 763 161 q 439 -17 585 -17 m 433 86 q 590 147 533 86 q 646 282 646 208 q 586 431 646 379 q 433 482 526 482 q 303 444 365 482 q 201 344 240 406 q 267 164 210 242 q 433 86 324 86 z "},"":{"ha":831,"x_min":100,"x_max":732,"o":"m 353 0 l 225 0 l 599 824 l 100 824 l 100 926 l 732 926 l 732 847 l 353 0 z "},"":{"ha":831,"x_min":83,"x_max":747,"o":"m 652 52 q 605 18 652 52 q 415 -17 557 -17 q 178 51 274 -17 q 83 235 83 119 q 147 386 83 322 q 304 478 210 450 q 157 559 215 503 q 99 700 99 615 q 193 878 99 817 q 415 940 288 940 q 638 878 543 940 q 733 700 733 817 q 674 559 733 615 q 526 478 615 503 q 684 386 621 450 q 747 235 747 322 q 652 52 747 121 m 415 525 q 472 539 443 529 q 536 566 500 549 q 594 615 572 583 q 617 685 617 646 q 559 796 617 754 q 415 838 501 838 q 272 797 329 838 q 215 685 215 756 q 238 615 215 646 q 296 566 260 583 q 360 539 332 549 q 415 525 388 529 m 415 86 q 567 131 504 86 q 631 247 631 175 q 587 345 631 303 q 498 405 543 388 q 415 426 453 422 q 333 405 378 422 q 244 345 288 388 q 200 247 200 303 q 263 131 200 175 q 415 86 325 86 z "},"":{"ha":831,"x_min":69,"x_max":753,"o":"m 375 -15 q 118 96 217 -15 l 176 182 q 375 88 257 88 q 525 143 464 88 q 611 278 586 199 q 636 451 636 357 q 635 488 636 475 q 528 388 600 432 q 374 343 456 343 q 156 420 242 343 q 69 639 69 497 q 158 853 69 764 q 394 942 247 942 q 558 903 488 942 q 671 796 629 864 q 733 644 713 728 q 753 463 753 561 q 714 227 753 332 q 588 53 675 122 q 375 -15 500 -15 m 400 443 q 531 481 468 443 q 632 582 594 519 q 613 671 628 628 q 572 753 599 714 q 501 815 546 792 q 399 839 456 839 q 243 778 300 839 q 186 643 186 718 q 246 494 186 546 q 400 443 306 443 z "},"":{"ha":822,"x_min":36,"x_max":786,"o":"m 349 726 q 374 699 349 726 q 400 590 400 672 q 349 455 400 508 q 217 401 299 401 q 87 456 138 401 q 36 590 36 510 q 87 726 36 671 q 217 781 138 781 q 349 726 297 781 m 786 174 q 735 39 786 93 q 604 -15 683 -15 q 474 39 525 -15 q 422 174 422 93 q 474 310 422 256 q 604 364 525 364 q 735 310 683 364 q 786 174 786 256 m 714 764 l 181 0 l 108 0 l 639 764 l 714 764 m 297 499 q 313 517 297 499 q 328 590 328 535 q 297 683 328 646 q 217 719 265 719 q 138 682 169 719 q 107 590 107 644 q 138 499 107 536 q 217 463 169 463 q 297 499 267 463 m 715 174 q 685 266 715 229 q 604 303 654 303 q 524 266 554 303 q 493 174 493 229 q 524 82 493 118 q 604 46 554 46 q 684 83 653 46 q 715 174 715 119 z "},"":{"ha":831,"x_min":61,"x_max":769,"o":"m 769 382 q 734 190 769 278 q 616 43 699 103 q 415 -17 533 -17 q 215 43 297 -17 q 97 190 132 103 q 61 382 61 278 q 82 529 61 460 q 144 656 103 599 q 256 747 186 713 q 415 781 326 781 q 574 747 504 781 q 686 656 644 713 q 749 529 728 599 q 769 382 769 460 m 592 172 q 622 215 592 172 q 651 382 651 258 q 592 592 651 506 q 415 678 533 678 q 239 592 299 678 q 179 382 179 506 q 239 172 179 258 q 415 86 299 86 q 592 172 532 86 z "},"":{"ha":831,"x_min":217,"x_max":550,"o":"m 550 0 l 435 0 l 435 613 l 286 454 l 217 525 l 449 764 l 550 764 l 550 0 z "},"":{"ha":831,"x_min":89,"x_max":724,"o":"m 708 0 l 110 0 l 110 93 q 483 303 360 196 q 607 515 607 411 q 552 632 607 586 q 418 678 497 678 q 160 561 250 678 l 89 635 q 231 742 142 704 q 421 781 321 781 q 638 712 553 781 q 724 531 724 643 q 611 294 724 408 q 322 103 499 179 l 708 103 l 708 0 z "},"":{"ha":831,"x_min":85,"x_max":743,"o":"m 414 -186 q 217 -143 303 -186 q 85 -33 131 -100 l 153 39 q 263 -50 194 -17 q 411 -83 331 -83 q 569 -36 511 -83 q 628 90 628 11 q 566 214 628 174 q 397 254 504 254 q 301 253 315 254 l 301 358 q 397 357 317 357 q 552 395 492 357 q 613 510 613 433 q 553 626 613 583 q 406 668 494 668 q 161 556 265 668 l 97 628 q 415 771 214 771 q 640 705 553 771 q 728 525 728 639 q 667 378 728 433 q 529 310 606 322 q 674 242 606 301 q 743 81 743 182 q 653 -112 743 -37 q 414 -186 564 -186 z "},"":{"ha":831,"x_min":71,"x_max":757,"o":"m 757 76 l 626 76 l 626 -162 l 511 -162 l 511 76 l 71 76 l 71 172 l 468 764 l 626 764 l 626 178 l 757 178 l 757 76 m 511 178 l 511 657 l 186 178 l 511 178 z "},"":{"ha":831,"x_min":97,"x_max":754,"o":"m 424 -179 q 97 -31 210 -179 l 168 47 q 424 -76 264 -76 q 578 -19 518 -76 q 638 122 638 38 q 578 267 638 213 q 425 322 519 322 q 211 236 301 322 l 126 265 l 126 764 l 693 764 l 693 661 l 242 661 l 242 339 q 458 422 328 422 q 668 343 582 422 q 754 126 754 264 q 660 -95 754 -11 q 424 -179 567 -179 z "},"":{"ha":831,"x_min":81,"x_max":763,"o":"m 439 -17 q 274 22 344 -17 q 162 129 203 61 q 101 281 121 197 q 81 463 81 364 q 177 803 81 665 q 458 940 274 940 q 714 829 619 940 l 656 743 q 458 838 575 838 q 311 783 372 838 q 224 649 250 729 q 197 474 197 569 l 197 438 q 305 538 232 493 q 460 582 378 582 q 677 505 592 582 q 763 286 763 428 q 674 72 763 161 q 439 -17 585 -17 m 433 86 q 590 147 533 86 q 646 282 646 208 q 586 431 646 379 q 433 482 526 482 q 303 444 365 482 q 201 344 240 406 q 267 164 210 242 q 433 86 324 86 z "},"":{"ha":831,"x_min":100,"x_max":732,"o":"m 353 -162 l 225 -162 l 599 661 l 100 661 l 100 764 l 732 764 l 732 685 l 353 -162 z "},"":{"ha":831,"x_min":83,"x_max":747,"o":"m 652 52 q 605 18 652 52 q 415 -17 557 -17 q 178 51 274 -17 q 83 235 83 119 q 147 386 83 322 q 304 478 210 450 q 157 559 215 503 q 99 700 99 615 q 193 878 99 817 q 415 940 288 940 q 638 878 543 940 q 733 700 733 817 q 674 559 733 615 q 526 478 615 503 q 684 386 621 450 q 747 235 747 322 q 652 52 747 121 m 415 525 q 472 539 443 529 q 536 566 500 549 q 594 615 572 583 q 617 685 617 646 q 559 796 617 754 q 415 838 501 838 q 272 797 329 838 q 215 685 215 756 q 238 615 215 646 q 296 566 260 583 q 360 539 332 549 q 415 525 388 529 m 415 86 q 567 131 504 86 q 631 247 631 175 q 587 345 631 303 q 498 405 543 388 q 415 426 453 422 q 333 405 378 422 q 244 345 288 388 q 200 247 200 303 q 263 131 200 175 q 415 86 325 86 z "},"":{"ha":831,"x_min":69,"x_max":753,"o":"m 375 -176 q 118 -65 217 -176 l 176 21 q 375 -74 257 -74 q 525 -18 464 -74 q 611 117 586 38 q 636 290 636 196 q 635 326 636 314 q 528 226 600 271 q 374 182 456 182 q 156 259 242 182 q 69 478 69 336 q 158 692 69 603 q 394 781 247 781 q 558 742 488 781 q 671 635 629 703 q 733 483 713 567 q 753 301 753 400 q 714 66 753 171 q 588 -108 675 -39 q 375 -176 500 -176 m 400 282 q 531 320 468 282 q 632 421 594 358 q 613 510 628 467 q 572 592 599 553 q 501 654 546 631 q 399 678 456 678 q 243 617 300 678 q 186 482 186 557 q 246 333 186 385 q 400 282 306 282 z "},"":{"ha":808,"x_min":65,"x_max":778,"o":"m 340 -74 l 364 -3 q 285 24 328 4 l 251 -74 l 192 -74 l 235 53 q 110 191 156 106 q 65 383 65 276 q 182 669 65 558 q 474 781 299 781 l 479 781 l 497 832 l 557 832 l 538 775 q 618 753 575 769 l 646 832 l 706 832 l 669 726 q 776 624 729 689 l 689 575 q 636 629 668 606 l 451 79 l 474 79 q 598 109 540 79 q 689 189 656 139 l 778 140 q 474 -17 663 -17 q 419 -14 456 -17 l 400 -74 l 340 -74 m 176 383 q 269 157 176 243 l 447 683 q 253 590 329 674 q 176 383 176 507 m 317 121 q 394 89 354 99 l 588 660 q 506 682 546 678 l 317 121 z "},"":{"ha":847,"x_min":43,"x_max":817,"o":"m 569 432 l 218 432 q 215 383 215 399 q 218 331 215 347 l 569 331 l 569 264 l 238 264 q 343 129 269 179 q 513 79 417 79 q 637 109 579 79 q 728 189 694 139 l 817 140 q 513 -17 701 -17 q 263 60 369 -17 q 119 264 156 136 l 43 264 l 43 331 l 107 331 q 104 383 104 347 q 107 432 104 399 l 43 432 l 43 499 l 119 499 q 263 703 156 626 q 513 781 369 781 q 815 624 706 781 l 728 575 q 635 655 693 625 q 513 685 578 685 q 342 634 417 685 q 236 499 268 583 l 569 499 l 569 432 z "},"":{"ha":510,"x_min":32,"x_max":524,"o":"m 147 -165 l 32 -165 l 135 299 l 65 299 l 65 378 l 151 378 l 193 565 q 404 779 240 779 q 524 735 478 779 l 478 651 q 419 676 458 676 q 308 551 338 676 l 269 378 l 417 378 l 417 299 l 251 299 l 147 -165 z "},"":{"ha":689,"x_min":31,"x_max":660,"o":"m 660 547 l 640 482 l 518 482 l 453 286 l 576 286 l 556 221 l 431 221 l 357 0 l 278 0 l 351 221 l 226 221 l 153 0 l 74 0 l 147 221 l 31 221 l 51 286 l 171 286 l 236 482 l 115 482 l 135 547 l 257 547 l 331 764 l 410 764 l 336 547 l 460 547 l 535 764 l 614 764 l 539 547 l 660 547 m 438 482 l 315 482 l 249 286 l 374 286 l 438 482 z "},"":{"ha":590,"x_min":19,"x_max":579,"o":"m 19 311 l 19 378 l 118 378 q 51 551 51 471 q 126 714 51 649 q 307 779 200 779 q 446 746 383 779 q 539 654 508 713 l 457 610 q 315 699 415 699 q 204 658 250 699 q 158 551 158 617 q 172 485 158 519 q 196 433 185 450 q 233 378 207 417 l 421 378 l 421 311 l 272 311 q 289 240 289 274 q 215 108 289 156 q 246 113 228 113 q 340 93 285 113 q 424 74 394 74 q 532 117 499 74 l 579 39 q 418 -15 522 -15 q 314 8 367 -15 q 217 32 261 32 q 86 -11 172 32 l 49 64 q 196 221 196 128 q 165 311 196 261 l 19 311 z "},"":{"ha":760,"x_min":10,"x_max":750,"o":"m 436 0 l 328 0 l 328 157 l 33 157 l 33 224 l 328 224 l 328 322 l 33 322 l 33 388 l 282 388 l 10 764 l 136 764 l 383 417 l 625 764 l 750 764 l 482 388 l 725 388 l 725 322 l 436 322 l 436 224 l 725 224 l 725 157 l 436 157 l 436 0 z "},"":{"ha":808,"x_min":65,"x_max":778,"o":"m 429 -128 l 429 -14 q 167 110 269 0 q 65 383 65 219 q 167 654 65 546 q 429 778 269 763 l 429 860 l 511 860 l 511 778 q 776 624 676 764 l 689 575 q 511 682 625 665 l 511 82 q 689 189 629 97 l 778 140 q 511 -14 674 0 l 511 -128 l 429 -128 m 176 383 q 247 181 176 264 q 429 82 318 97 l 429 682 q 247 584 318 667 q 176 383 176 501 z "},"":{"ha":539,"x_min":46,"x_max":494,"o":"m 438 478 q 466 436 438 478 q 494 278 494 393 q 438 76 494 163 q 269 -10 381 -10 q 102 76 158 -10 q 46 278 46 161 q 102 479 46 394 q 269 564 158 564 q 438 478 381 564 m 374 121 q 391 152 374 121 q 408 278 408 183 q 374 434 408 372 q 269 496 340 496 q 164 434 197 496 q 131 278 131 372 q 165 121 131 183 q 269 58 199 58 q 374 121 340 58 z "},"":{"ha":326,"x_min":19,"x_max":243,"o":"m 243 0 l 160 0 l 160 447 l 68 351 l 19 403 l 169 556 l 243 556 l 243 0 z "},"":{"ha":539,"x_min":68,"x_max":474,"o":"m 474 0 l 69 0 l 69 63 q 315 259 243 188 q 388 394 388 331 q 353 470 388 444 q 269 496 318 496 q 179 475 221 496 q 114 424 138 454 l 68 476 q 272 564 138 564 q 413 522 356 564 q 471 400 471 481 q 401 247 471 324 q 192 68 332 169 l 474 68 l 474 0 z "},"":{"ha":539,"x_min":58,"x_max":476,"o":"m 476 151 q 420 35 476 79 q 267 -10 364 -10 q 58 81 124 -10 l 104 133 q 265 58 164 58 q 359 85 325 58 q 393 156 393 111 q 249 251 393 251 q 193 250 201 251 l 193 319 q 249 318 203 318 q 385 407 385 318 q 349 472 385 449 q 260 496 314 496 q 108 429 171 496 l 65 478 q 268 564 142 564 q 412 524 357 564 q 467 415 467 483 q 429 327 467 360 q 343 288 392 294 q 434 247 392 282 q 476 151 476 211 z "},"":{"ha":539,"x_min":54,"x_max":489,"o":"m 489 139 l 410 139 l 410 0 l 326 0 l 326 139 l 54 139 l 54 201 l 294 556 l 410 556 l 410 207 l 489 207 l 489 139 m 326 207 l 326 482 l 138 207 l 326 207 z "},"":{"ha":539,"x_min":61,"x_max":478,"o":"m 424 305 q 451 282 424 305 q 478 175 478 258 q 418 41 478 92 q 267 -10 358 -10 q 61 81 129 -10 l 110 135 q 267 58 168 58 q 360 91 324 58 q 396 172 396 124 q 361 256 396 224 q 269 288 326 288 q 138 233 193 288 l 78 256 l 78 556 l 440 556 l 440 488 l 163 488 l 163 301 q 294 351 213 351 q 424 305 371 351 z "},"":{"ha":539,"x_min":53,"x_max":488,"o":"m 488 174 q 431 44 488 97 q 282 -10 374 -10 q 110 72 167 -10 q 53 278 53 153 q 115 483 53 401 q 294 564 178 564 q 457 500 393 564 l 417 442 q 294 496 367 496 q 178 437 218 496 q 136 293 138 378 q 138 269 136 278 q 203 328 160 303 q 296 354 247 354 q 433 307 378 354 q 488 174 488 260 m 403 171 q 367 258 403 228 q 275 288 331 288 q 199 267 236 288 q 139 211 163 246 q 178 103 143 149 q 279 58 213 58 q 369 93 336 58 q 403 171 403 128 z "},"":{"ha":503,"x_min":46,"x_max":449,"o":"m 449 499 l 218 0 l 125 0 l 356 488 l 46 488 l 46 556 l 449 556 l 449 499 z "},"":{"ha":539,"x_min":57,"x_max":482,"o":"m 482 142 q 421 30 482 69 q 269 -10 360 -10 q 118 30 179 -10 q 57 142 57 69 q 97 233 57 194 q 197 286 138 272 q 103 334 140 300 q 67 418 67 368 q 127 527 67 490 q 269 564 188 564 q 412 527 351 564 q 472 418 472 490 q 435 334 472 368 q 342 286 399 300 q 442 233 401 272 q 482 142 482 194 m 389 408 q 356 474 389 451 q 269 497 322 497 q 183 474 217 497 q 149 408 149 450 q 269 314 149 344 q 389 408 389 342 m 399 149 q 354 224 399 197 q 269 256 310 250 q 184 224 229 250 q 139 149 139 197 q 177 81 139 107 q 269 56 215 56 q 361 81 324 56 q 399 149 399 107 z "},"":{"ha":539,"x_min":53,"x_max":488,"o":"m 53 381 q 110 511 53 458 q 258 564 167 564 q 431 483 374 564 q 488 276 488 401 q 424 72 488 153 q 244 -10 361 -10 q 83 54 144 -10 l 124 113 q 244 58 171 58 q 361 117 321 58 q 403 263 401 176 l 403 285 q 336 226 379 251 q 244 200 293 200 q 108 247 163 200 q 53 381 53 294 m 136 383 q 172 297 136 326 q 264 267 208 267 q 401 344 349 267 q 362 451 396 407 q 263 496 328 496 q 170 461 204 496 q 136 383 136 426 z "},"":{"ha":539,"x_min":46,"x_max":494,"o":"m 438 849 q 466 807 438 849 q 494 649 494 764 q 438 447 494 533 q 269 361 381 361 q 102 447 158 361 q 46 649 46 532 q 102 850 46 765 q 269 935 158 935 q 438 849 381 935 m 374 492 q 391 523 374 492 q 408 649 408 554 q 374 805 408 743 q 269 867 340 867 q 164 805 197 867 q 131 649 131 743 q 165 492 131 554 q 269 429 199 429 q 374 492 340 429 z "},"":{"ha":326,"x_min":19,"x_max":243,"o":"m 243 371 l 160 371 l 160 818 l 68 722 l 19 774 l 169 926 l 243 926 l 243 371 z "},"":{"ha":539,"x_min":68,"x_max":474,"o":"m 474 371 l 69 371 l 69 433 q 315 630 243 558 q 388 765 388 701 q 353 841 388 815 q 269 867 318 867 q 179 846 221 867 q 114 794 138 825 l 68 847 q 272 935 138 935 q 413 893 356 935 q 471 771 471 851 q 401 617 471 694 q 192 439 332 540 l 474 439 l 474 371 z "},"":{"ha":539,"x_min":58,"x_max":476,"o":"m 476 522 q 420 406 476 450 q 267 361 364 361 q 58 451 124 361 l 104 504 q 265 429 164 429 q 359 456 325 429 q 393 526 393 482 q 249 622 393 622 q 193 621 201 622 l 193 690 q 249 689 203 689 q 385 778 385 689 q 349 843 385 819 q 260 867 314 867 q 108 800 171 867 l 65 849 q 268 935 142 935 q 412 894 357 935 q 467 786 467 854 q 429 698 467 731 q 343 658 392 665 q 434 617 392 653 q 476 522 476 582 z "},"":{"ha":539,"x_min":54,"x_max":489,"o":"m 489 510 l 410 510 l 410 371 l 326 371 l 326 510 l 54 510 l 54 572 l 294 926 l 410 926 l 410 578 l 489 578 l 489 510 m 326 578 l 326 853 l 138 578 l 326 578 z "},"":{"ha":539,"x_min":61,"x_max":478,"o":"m 424 676 q 451 652 424 676 q 478 546 478 629 q 418 412 478 463 q 267 361 358 361 q 61 451 129 361 l 110 506 q 267 429 168 429 q 360 462 324 429 q 396 543 396 494 q 361 626 396 594 q 269 658 326 658 q 138 604 193 658 l 78 626 l 78 926 l 440 926 l 440 858 l 163 858 l 163 672 q 294 722 213 722 q 424 676 371 722 z "},"":{"ha":539,"x_min":53,"x_max":488,"o":"m 488 544 q 431 415 488 468 q 282 361 374 361 q 110 442 167 361 q 53 649 53 524 q 115 853 53 772 q 294 935 178 935 q 457 871 393 935 l 417 813 q 294 867 367 867 q 178 808 218 867 q 136 664 138 749 q 138 640 136 649 q 203 699 160 674 q 296 725 247 725 q 433 678 378 725 q 488 544 488 631 m 403 542 q 367 628 403 599 q 275 658 331 658 q 199 638 236 658 q 139 582 163 617 q 178 474 143 519 q 279 429 213 429 q 369 464 336 429 q 403 542 403 499 z "},"":{"ha":503,"x_min":46,"x_max":449,"o":"m 449 869 l 218 371 l 125 371 l 356 858 l 46 858 l 46 926 l 449 926 l 449 869 z "},"":{"ha":539,"x_min":57,"x_max":482,"o":"m 482 513 q 421 401 482 440 q 269 361 360 361 q 118 401 179 361 q 57 513 57 440 q 97 604 57 565 q 197 657 138 643 q 103 705 140 671 q 67 789 67 739 q 127 898 67 861 q 269 935 188 935 q 412 898 351 935 q 472 789 472 861 q 435 705 472 739 q 342 657 399 671 q 442 604 401 643 q 482 513 482 565 m 389 779 q 356 845 389 822 q 269 868 322 868 q 183 844 217 868 q 149 779 149 821 q 269 685 149 715 q 389 779 389 713 m 399 519 q 354 594 399 568 q 269 626 310 621 q 184 594 229 621 q 139 519 139 568 q 177 452 139 478 q 269 426 215 426 q 361 452 324 426 q 399 519 399 478 z "},"":{"ha":539,"x_min":53,"x_max":488,"o":"m 53 751 q 110 882 53 829 q 258 935 167 935 q 431 853 374 935 q 488 647 488 772 q 424 442 488 524 q 244 361 361 361 q 83 425 144 361 l 124 483 q 244 429 171 429 q 361 488 321 429 q 403 633 401 547 l 403 656 q 336 597 379 622 q 244 571 293 571 q 108 618 163 571 q 53 751 53 665 m 136 754 q 172 667 136 697 q 264 638 208 638 q 401 715 349 638 q 362 822 396 778 q 263 867 328 867 q 170 832 204 867 q 136 754 136 797 z "},"":{"ha":794,"x_min":10,"x_max":785,"o":"m 333 764 l 463 764 l 785 0 l 664 0 l 593 167 l 203 167 l 132 0 l 10 0 l 333 764 m 560 263 l 399 650 l 236 263 l 560 263 m 642 960 q 399 838 551 838 q 154 960 247 838 l 207 1004 q 399 904 278 904 q 592 1004 521 904 l 642 960 z "},"":{"ha":794,"x_min":10,"x_max":785,"o":"m 333 764 l 463 764 l 785 0 l 664 0 l 593 167 l 203 167 l 132 0 l 10 0 l 333 764 m 560 263 l 399 650 l 236 263 l 560 263 m 651 872 l 147 872 l 147 939 l 651 939 l 651 872 z "},"":{"ha":794,"x_min":10,"x_max":864,"o":"m 333 764 l 463 764 l 785 0 q 679 -135 679 -53 q 742 -204 679 -204 q 813 -146 793 -204 l 864 -175 q 742 -258 828 -258 q 653 -228 689 -258 q 617 -137 617 -197 q 690 0 617 -58 l 664 0 l 593 167 l 203 167 l 132 0 l 10 0 l 333 764 m 560 263 l 399 650 l 236 263 l 560 263 z "},"":{"ha":1140,"x_min":8,"x_max":1069,"o":"m 808 1042 l 574 842 l 494 842 l 700 1042 l 808 1042 m 1069 0 l 538 0 l 538 167 l 238 167 l 132 0 l 8 0 l 497 764 l 1069 764 l 1069 668 l 646 668 l 646 439 l 1061 439 l 1061 343 l 646 343 l 646 96 l 1069 96 l 1069 0 m 538 263 l 538 650 l 290 263 l 538 263 z "},"":{"ha":808,"x_min":65,"x_max":778,"o":"m 474 -17 q 182 96 299 -17 q 65 383 65 208 q 182 669 65 558 q 474 781 299 781 q 776 624 667 781 l 689 575 q 597 655 654 625 q 474 685 539 685 q 262 599 347 685 q 176 383 176 514 q 262 165 176 251 q 474 79 347 79 q 598 109 540 79 q 689 189 656 139 l 778 140 q 474 -17 663 -17 m 697 1042 l 463 842 l 383 842 l 589 1042 l 697 1042 z "},"":{"ha":808,"x_min":65,"x_max":778,"o":"m 474 -17 q 182 96 299 -17 q 65 383 65 208 q 182 669 65 558 q 474 781 299 781 q 776 624 667 781 l 689 575 q 597 655 654 625 q 474 685 539 685 q 262 599 347 685 q 176 383 176 514 q 262 165 176 251 q 474 79 347 79 q 598 109 540 79 q 689 189 656 139 l 778 140 q 474 -17 663 -17 m 528 842 l 428 842 l 292 1042 l 363 1042 l 478 894 l 589 1042 l 660 1042 l 528 842 z "},"":{"ha":808,"x_min":65,"x_max":778,"o":"m 474 -17 q 182 96 299 -17 q 65 383 65 208 q 182 669 65 558 q 474 781 299 781 q 776 624 667 781 l 689 575 q 597 655 654 625 q 474 685 539 685 q 262 599 347 685 q 176 383 176 514 q 262 165 176 251 q 474 79 347 79 q 598 109 540 79 q 689 189 656 139 l 778 140 q 474 -17 663 -17 m 660 842 l 589 842 l 474 989 l 363 842 l 292 842 l 424 1042 l 524 1042 l 660 842 z "},"":{"ha":808,"x_min":65,"x_max":778,"o":"m 474 -17 q 182 96 299 -17 q 65 383 65 208 q 182 669 65 558 q 474 781 299 781 q 776 624 667 781 l 689 575 q 597 655 654 625 q 474 685 539 685 q 262 599 347 685 q 176 383 176 514 q 262 165 176 251 q 474 79 347 79 q 598 109 540 79 q 689 189 656 139 l 778 140 q 474 -17 663 -17 m 522 892 q 513 883 522 892 q 476 874 503 874 q 431 893 450 874 q 411 939 411 913 q 431 985 411 965 q 476 1004 450 1004 q 522 985 503 1004 q 542 939 542 967 q 522 892 542 911 z "},"":{"ha":854,"x_min":88,"x_max":772,"o":"m 365 0 l 88 0 l 88 764 l 365 764 q 660 655 549 764 q 772 381 772 546 q 661 108 772 215 q 365 0 550 0 m 365 96 q 581 177 503 96 q 660 381 660 258 q 583 587 660 506 q 365 668 506 668 l 197 668 l 197 96 l 365 96 m 464 842 l 364 842 l 228 1042 l 299 1042 l 414 894 l 525 1042 l 596 1042 l 464 842 z "},"":{"ha":869,"x_min":14,"x_max":786,"o":"m 379 0 l 101 0 l 101 349 l 14 349 l 14 421 l 101 421 l 101 764 l 379 764 q 674 655 563 764 q 786 381 786 546 q 675 108 786 215 q 379 0 564 0 m 396 349 l 211 349 l 211 96 l 379 96 q 595 177 517 96 q 674 381 674 258 q 597 587 674 506 q 379 668 519 668 l 211 668 l 211 421 l 396 421 l 396 349 z "},"":{"ha":707,"x_min":104,"x_max":635,"o":"m 635 0 l 104 0 l 104 764 l 635 764 l 635 668 l 214 668 l 214 439 l 628 439 l 628 343 l 214 343 l 214 96 l 635 96 l 635 0 m 611 960 q 368 838 521 838 q 124 960 217 838 l 176 1004 q 368 904 247 904 q 561 1004 490 904 l 611 960 z "},"":{"ha":707,"x_min":104,"x_max":635,"o":"m 635 0 l 104 0 l 104 764 l 635 764 l 635 668 l 214 668 l 214 439 l 628 439 l 628 343 l 214 343 l 214 96 l 635 96 l 635 0 m 424 842 l 324 842 l 188 1042 l 258 1042 l 374 894 l 485 1042 l 556 1042 l 424 842 z "},"":{"ha":707,"x_min":104,"x_max":635,"o":"m 635 0 l 104 0 l 104 764 l 635 764 l 635 668 l 214 668 l 214 439 l 628 439 l 628 343 l 214 343 l 214 96 l 635 96 l 635 0 m 378 874 q 332 893 351 874 q 313 939 313 913 q 332 985 313 965 q 378 1004 351 1004 q 424 985 406 1004 q 443 939 443 967 q 424 892 443 911 q 378 874 406 874 z "},"":{"ha":707,"x_min":104,"x_max":635,"o":"m 635 0 l 104 0 l 104 764 l 635 764 l 635 668 l 214 668 l 214 439 l 628 439 l 628 343 l 214 343 l 214 96 l 635 96 l 635 0 m 619 872 l 115 872 l 115 939 l 619 939 l 619 872 z "},"":{"ha":878,"x_min":104,"x_max":774,"o":"m 511 -272 q 304 -178 382 -272 l 356 -99 q 504 -176 418 -176 q 621 -133 578 -176 q 664 -19 664 -90 l 664 0 l 213 594 l 213 0 l 104 0 l 104 764 l 218 764 l 665 181 l 665 764 l 774 764 l 774 -28 q 701 -210 774 -149 q 511 -272 629 -272 z "},"":{"ha":707,"x_min":104,"x_max":714,"o":"m 663 -146 l 714 -175 q 592 -258 678 -258 q 503 -228 539 -258 q 467 -137 467 -197 q 540 0 467 -58 l 104 0 l 104 764 l 635 764 l 635 668 l 214 668 l 214 439 l 628 439 l 628 343 l 214 343 l 214 96 l 635 96 l 635 0 q 529 -135 529 -53 q 592 -204 529 -204 q 663 -146 643 -204 z "},"":{"ha":869,"x_min":65,"x_max":786,"o":"m 474 -17 q 183 95 300 -17 q 65 382 65 207 q 183 669 65 557 q 474 781 300 781 q 781 640 660 781 l 696 583 q 474 683 613 683 q 263 599 347 683 q 178 382 178 514 q 263 165 178 251 q 474 79 347 79 q 678 158 596 79 l 678 307 l 442 307 l 442 399 l 786 399 l 786 117 q 474 -17 663 -17 m 719 960 q 476 838 629 838 q 232 960 325 838 l 285 1004 q 476 904 356 904 q 669 1004 599 904 l 719 960 z "},"":{"ha":869,"x_min":65,"x_max":786,"o":"m 474 -17 q 183 95 300 -17 q 65 382 65 207 q 183 669 65 557 q 474 781 300 781 q 781 640 660 781 l 696 583 q 474 683 613 683 q 263 599 347 683 q 178 382 178 514 q 263 165 178 251 q 474 79 347 79 q 678 158 596 79 l 678 307 l 442 307 l 442 399 l 786 399 l 786 117 q 474 -17 663 -17 m 658 842 l 588 842 l 472 989 l 361 842 l 290 842 l 422 1042 l 522 1042 l 658 842 z "},"":{"ha":869,"x_min":65,"x_max":786,"o":"m 474 -17 q 183 95 300 -17 q 65 382 65 207 q 183 669 65 557 q 474 781 300 781 q 781 640 660 781 l 696 583 q 474 683 613 683 q 263 599 347 683 q 178 382 178 514 q 263 165 178 251 q 474 79 347 79 q 678 158 596 79 l 678 307 l 442 307 l 442 399 l 786 399 l 786 117 q 474 -17 663 -17 m 551 -192 q 524 -296 551 -246 q 453 -378 496 -346 l 408 -342 q 462 -287 439 -321 q 488 -222 485 -253 l 481 -222 q 472 -224 475 -224 q 431 -206 447 -224 q 414 -162 414 -189 q 433 -117 414 -136 q 478 -99 451 -99 q 530 -124 508 -99 q 551 -192 551 -149 z "},"":{"ha":869,"x_min":65,"x_max":786,"o":"m 474 -17 q 183 95 300 -17 q 65 382 65 207 q 183 669 65 557 q 474 781 300 781 q 781 640 660 781 l 696 583 q 474 683 613 683 q 263 599 347 683 q 178 382 178 514 q 263 165 178 251 q 474 79 347 79 q 678 158 596 79 l 678 307 l 442 307 l 442 399 l 786 399 l 786 117 q 474 -17 663 -17 m 475 874 q 429 893 449 874 q 410 939 410 913 q 429 985 410 965 q 475 1004 449 1004 q 522 985 503 1004 q 540 939 540 967 q 522 892 540 911 q 475 874 503 874 z "},"":{"ha":882,"x_min":104,"x_max":778,"o":"m 778 0 l 671 0 l 671 344 l 214 344 l 214 0 l 104 0 l 104 764 l 214 764 l 214 440 l 671 440 l 671 764 l 778 764 l 778 0 m 622 842 l 551 842 l 436 989 l 325 842 l 254 842 l 386 1042 l 486 1042 l 622 842 z "},"":{"ha":910,"x_min":14,"x_max":894,"o":"m 792 0 l 685 0 l 685 344 l 228 344 l 228 0 l 118 0 l 118 571 l 14 571 l 14 638 l 118 638 l 118 764 l 228 764 l 228 638 l 685 638 l 685 764 l 792 764 l 792 638 l 894 638 l 894 571 l 792 571 l 792 0 m 228 440 l 685 440 l 685 571 l 228 571 l 228 440 z "},"":{"ha":315,"x_min":-90,"x_max":397,"o":"m 213 0 l 103 0 l 103 764 l 213 764 l 213 0 m 397 960 q 154 838 307 838 q -90 960 3 838 l -37 1004 q 154 904 33 904 q 347 1004 276 904 l 397 960 z "},"":{"ha":904,"x_min":104,"x_max":799,"o":"m 214 0 l 104 0 l 104 764 l 214 764 l 214 0 m 538 -17 q 329 78 407 -17 l 382 157 q 531 79 442 79 q 647 122 604 79 q 690 236 690 165 l 690 764 l 799 764 l 799 228 q 726 45 799 107 q 538 -17 654 -17 z "},"":{"ha":315,"x_min":-93,"x_max":411,"o":"m 213 0 l 103 0 l 103 764 l 213 764 l 213 0 m 411 872 l -93 872 l -93 939 l 411 939 l 411 872 z "},"":{"ha":315,"x_min":44,"x_max":292,"o":"m 240 -146 l 292 -175 q 169 -258 256 -258 q 81 -228 117 -258 q 44 -137 44 -197 q 118 0 44 -58 l 103 0 l 103 764 l 213 764 l 213 0 q 107 -135 107 -53 q 169 -204 107 -204 q 240 -146 221 -204 z "},"":{"ha":315,"x_min":-58,"x_max":376,"o":"m 213 0 l 103 0 l 103 764 l 213 764 l 213 0 m 242 821 q 183 841 208 821 q 144 885 157 861 q 112 928 131 908 q 71 949 93 949 q 23 919 42 949 q 4 829 4 889 l -58 829 q -23 964 -58 913 q 76 1015 13 1015 q 135 995 110 1015 q 174 951 161 975 q 206 908 188 928 q 247 888 225 888 q 295 917 276 888 q 314 1007 314 947 l 376 1007 q 341 872 376 924 q 242 821 306 821 z "},"":{"ha":586,"x_min":11,"x_max":610,"o":"m 219 -17 q 11 78 89 -17 l 64 157 q 213 79 124 79 q 329 122 286 79 q 372 236 372 165 l 372 764 l 481 764 l 481 228 q 408 45 481 107 q 219 -17 336 -17 m 610 842 l 539 842 l 424 989 l 313 842 l 242 842 l 374 1042 l 474 1042 l 610 842 z "},"":{"ha":742,"x_min":104,"x_max":722,"o":"m 722 0 l 588 0 l 288 338 l 214 257 l 214 0 l 104 0 l 104 764 l 214 764 l 214 382 l 558 764 l 694 764 l 358 401 l 722 0 m 450 -192 q 422 -296 450 -246 q 351 -378 394 -346 l 307 -342 q 360 -287 338 -321 q 386 -222 383 -253 l 381 -222 q 371 -224 374 -224 q 329 -206 346 -224 q 313 -162 313 -189 q 331 -117 313 -136 q 376 -99 350 -99 q 428 -124 407 -99 q 450 -192 450 -149 z "},"":{"ha":636,"x_min":104,"x_max":583,"o":"m 583 0 l 104 0 l 104 764 l 214 764 l 214 96 l 583 96 l 583 0 m 572 1042 l 338 842 l 258 842 l 464 1042 l 572 1042 z "},"":{"ha":636,"x_min":104,"x_max":583,"o":"m 583 0 l 104 0 l 104 764 l 214 764 l 214 96 l 583 96 l 583 0 m 463 685 q 435 581 463 631 q 364 499 407 531 l 319 535 q 373 590 350 556 q 399 654 396 624 l 392 653 q 383 653 386 653 q 342 670 358 653 q 325 714 325 688 q 344 759 325 740 q 389 778 363 778 q 441 753 419 778 q 463 685 463 728 z "},"":{"ha":636,"x_min":104,"x_max":583,"o":"m 583 0 l 104 0 l 104 764 l 214 764 l 214 96 l 583 96 l 583 0 m 415 -192 q 388 -296 415 -246 q 317 -378 360 -346 l 272 -342 q 326 -287 303 -321 q 351 -222 349 -253 l 344 -222 q 336 -224 339 -224 q 294 -206 311 -224 q 278 -162 278 -189 q 297 -117 278 -136 q 342 -99 315 -99 q 394 -124 372 -99 q 415 -192 415 -149 z "},"":{"ha":656,"x_min":104,"x_max":583,"o":"m 583 0 l 104 0 l 104 764 l 214 764 l 214 96 l 583 96 l 583 0 m 547 461 q 558 450 547 461 q 569 408 569 439 q 547 355 569 378 q 493 332 525 332 q 439 355 461 332 q 417 408 417 378 q 440 461 417 439 q 493 483 463 483 q 547 461 524 483 z "},"":{"ha":878,"x_min":104,"x_max":774,"o":"m 774 0 l 664 0 l 213 594 l 213 0 l 104 0 l 104 764 l 218 764 l 665 181 l 665 764 l 774 764 l 774 0 m 660 1042 l 425 842 l 346 842 l 551 1042 l 660 1042 z "},"":{"ha":878,"x_min":104,"x_max":774,"o":"m 774 0 l 664 0 l 213 594 l 213 0 l 104 0 l 104 764 l 218 764 l 665 181 l 665 764 l 774 764 l 774 0 m 490 842 l 390 842 l 254 1042 l 325 1042 l 440 894 l 551 1042 l 622 1042 l 490 842 z "},"":{"ha":878,"x_min":104,"x_max":774,"o":"m 774 0 l 664 0 l 213 594 l 213 0 l 104 0 l 104 764 l 218 764 l 665 181 l 665 764 l 774 764 l 774 0 m 510 -192 q 482 -296 510 -246 q 411 -378 454 -346 l 367 -342 q 420 -287 397 -321 q 446 -222 443 -253 l 439 -222 q 431 -224 433 -224 q 389 -206 406 -224 q 372 -162 372 -189 q 391 -117 372 -136 q 436 -99 410 -99 q 488 -124 467 -99 q 510 -192 510 -149 z "},"":{"ha":919,"x_min":65,"x_max":854,"o":"m 744 97 q 690 40 744 97 q 460 -17 635 -17 q 175 97 285 -17 q 65 382 65 211 q 175 667 65 553 q 460 781 285 781 q 744 667 635 781 q 854 382 854 553 q 744 97 854 211 m 254 165 q 293 122 254 165 q 460 79 332 79 q 665 165 588 79 q 743 382 743 250 q 665 599 743 514 q 460 685 588 685 q 254 599 332 685 q 176 382 176 514 q 254 165 176 250 m 706 960 q 463 838 615 838 q 218 960 311 838 l 271 1004 q 463 904 342 904 q 656 1004 585 904 l 706 960 z "},"":{"ha":919,"x_min":65,"x_max":854,"o":"m 744 97 q 690 40 744 97 q 460 -17 635 -17 q 175 97 285 -17 q 65 382 65 211 q 175 667 65 553 q 460 781 285 781 q 744 667 635 781 q 854 382 854 553 q 744 97 854 211 m 254 165 q 293 122 254 165 q 460 79 332 79 q 665 165 588 79 q 743 382 743 250 q 665 599 743 514 q 460 685 588 685 q 254 599 332 685 q 176 382 176 514 q 254 165 176 250 m 538 1042 l 378 842 l 311 842 l 442 1042 l 538 1042 m 735 1042 l 575 842 l 508 842 l 639 1042 l 735 1042 z "},"":{"ha":919,"x_min":65,"x_max":854,"o":"m 744 97 q 690 40 744 97 q 460 -17 635 -17 q 175 97 285 -17 q 65 382 65 211 q 175 667 65 553 q 460 781 285 781 q 744 667 635 781 q 854 382 854 553 q 744 97 854 211 m 254 165 q 293 122 254 165 q 460 79 332 79 q 665 165 588 79 q 743 382 743 250 q 665 599 743 514 q 460 685 588 685 q 254 599 332 685 q 176 382 176 514 q 254 165 176 250 m 713 882 l 208 882 l 208 949 l 713 949 l 713 882 z "},"":{"ha":919,"x_min":65,"x_max":854,"o":"m 460 -17 q 250 38 342 -17 l 222 0 l 129 0 l 189 82 q 65 382 65 194 q 175 667 65 553 q 460 781 285 781 q 665 728 574 781 l 692 764 l 785 764 l 726 683 q 854 382 854 569 q 744 97 854 211 q 460 -17 635 -17 m 460 79 q 665 165 588 79 q 743 382 743 250 q 664 600 743 514 l 310 119 q 460 79 374 79 m 254 599 q 215 557 254 599 q 176 382 176 514 q 251 167 176 250 l 606 647 q 460 685 539 685 q 254 599 332 685 m 685 1042 l 450 842 l 371 842 l 576 1042 l 685 1042 z "},"":{"ha":757,"x_min":104,"x_max":694,"o":"m 694 0 l 567 0 l 367 297 l 214 297 l 214 0 l 104 0 l 104 764 l 432 764 q 617 698 550 764 q 685 531 685 632 q 627 373 685 433 q 478 306 569 313 l 694 0 m 422 392 q 533 430 494 392 q 572 531 572 468 q 533 631 572 593 q 422 668 493 668 l 214 668 l 214 392 l 422 392 m 590 1042 l 356 842 l 276 842 l 482 1042 l 590 1042 z "},"":{"ha":757,"x_min":104,"x_max":694,"o":"m 694 0 l 567 0 l 367 297 l 214 297 l 214 0 l 104 0 l 104 764 l 432 764 q 617 698 550 764 q 685 531 685 632 q 627 373 685 433 q 478 306 569 313 l 694 0 m 422 392 q 533 430 494 392 q 572 531 572 468 q 533 631 572 593 q 422 668 493 668 l 214 668 l 214 392 l 422 392 m 419 842 l 319 842 l 183 1042 l 254 1042 l 369 894 l 481 1042 l 551 1042 l 419 842 z "}}}
